<svg width="50" height="106" viewBox="0 0 50 106" fill="none" xmlns="http://www.w3.org/2000/svg">
<path d="M3.69058 7.81686L29.8095 21.6062C42.4672 30.5052 50 45.0092 50 60.482V65.6678C50 68.5714 49.6883 71.4666 49.0703 74.3037L47.5206 81.4173C44.9498 93.2186 35.4955 102.292 23.5985 104.376C17.7763 105.396 11.7823 104.657 6.38188 102.254L-0.657459 99.1222C-6.56578 96.4934 -13.1341 95.7247 -19.4898 96.9181L-21.0972 97.22C-33.0154 99.458 -45.0876 94.1655 -51.5173 83.884C-54.4467 79.1996 -56 73.7861 -56 68.2612V55.8791C-56 48.1458 -54.3841 40.4977 -51.2558 33.4253L-47.8463 25.7172C-43.413 15.6946 -34.7972 8.12819 -24.286 5.02655C-14.9534 2.27271 -4.91423 3.27399 3.69058 7.81686Z" fill="#6FB9D7"/>
<path d="M-4.87327 53.8017C-7.99152 52.6399 -7.22826 48.1351 -6.45551 45.6137C-5.72068 43.6785 -3.61814 40.7534 -1.25248 41.9823C0.929466 43.429 0.325016 46.5142 0.00738192 48.7201C-0.305511 51.1626 -1.99797 54.2219 -4.87327 53.8017Z" fill="black"/>
<path d="M8.46616 43.9859C5.83028 42.9265 6.85903 39.3551 6.942 37.1516C7.29045 34.8962 9.27565 30.0477 12.2683 31.1389C16.7791 32.8728 13.4144 45.2524 8.46497 43.9859H8.46616Z" fill="black"/>
<path d="M15.3774 60.603C15.3655 60.623 15.3536 60.6442 15.3416 60.6642C15.338 60.6665 15.3345 60.6689 15.3309 60.6701C15.3464 60.6477 15.3631 60.6242 15.3786 60.6018L15.3774 60.603Z" fill="black"/>
<path d="M18.2903 52.9861C18.3009 52.9955 18.3116 53.0049 18.3223 53.0132C18.2725 53.0908 18.2239 53.1685 18.1741 53.2462C18.2132 53.1591 18.2523 53.0732 18.2903 52.9861Z" fill="black"/>
<path d="M19.0228 51.7395C19.0058 51.7456 18.9888 51.7504 18.9717 51.7541C18.9888 51.7492 19.0058 51.7444 19.0228 51.7395Z" fill="black"/>
<path d="M-4.45243 70.9911C-6.65572 69.8434 -5.90312 66.8512 -5.58667 64.8678C-5.15881 63.2622 -5.07703 60.4018 -3.21509 59.8321C-2.01922 58.1029 0.81459 57.0965 2.2475 59.0882C4.20544 62.4088 0.389103 72.9027 -4.45362 70.9911H-4.45243Z" fill="black"/>
<path d="M12.0964 60.025C8.48987 59.6377 8.98172 55.3813 9.86707 52.8717C10.2937 51.8005 10.3364 49.7288 11.9317 49.9007C12.8016 48.0962 15.4825 47.3216 16.2743 49.6005C17.5069 52.6857 16.3003 59.9485 12.0964 60.0238V60.025Z" fill="black"/>
<path d="M6.8886 79.2978C3.31759 78.3678 6.81274 70.0551 8.43647 68.3377C9.68567 66.3967 12.2528 66.5626 12.9284 68.858C13.4321 71.0451 12.7138 73.371 11.8498 75.3603C11.8558 75.3486 11.8617 75.3356 11.8688 75.3239L11.8807 75.3003C10.974 77.1919 9.29929 79.678 6.8886 79.2966V79.2978Z" fill="black"/>
<path d="M19.7968 68.9051C17.3967 67.9469 19.6249 61.7824 20.8184 60.3934C21.4999 58.9103 22.2833 56.7515 24.2175 56.7056C25.2368 56.7244 25.9574 57.6437 26.0783 58.5925C26.6602 61.5694 23.7067 70.0575 19.7979 68.9051H19.7968Z" fill="black"/>
<path d="M23.6011 48.2292C21.0067 47.41 21.4689 44.3766 22.1007 42.3425C22.5297 41.3043 22.4064 39.6269 23.607 39.1561C24.2708 38.0614 26.026 37.6894 26.9422 38.6558C31.3713 39.3126 27.2421 49.5087 23.6011 48.2292Z" fill="black"/>
</svg>
