<svg width="290" height="242" viewBox="0 0 290 242" fill="none" xmlns="http://www.w3.org/2000/svg">
<g clip-path="url(#clip0_1_34)">
<g clip-path="url(#clip1_1_34)">
<path d="M234.132 80.8543C237.846 82.6402 234.296 85.6459 232.298 87.1906C226.082 92.4195 219.857 97.6334 213.654 102.876C191.004 121.944 168.498 141.159 147.437 161.976C140.379 168.828 133.671 176.039 126.493 182.765C125.261 183.859 123.974 185.039 122.515 185.851C121.796 186.251 121.036 186.562 120.218 186.728C114.617 187.453 115.428 175.977 114.578 172.269C110.304 131.696 105.11 91.2114 102.365 50.4949C102.359 50.4944 102.352 50.4925 102.346 50.4921C102.345 50.4385 102.342 50.3857 102.338 50.3315C102.328 50.1535 102.318 49.9754 102.305 49.7989C102.296 49.6913 102.289 49.5829 102.276 49.4755C102.265 49.3658 102.253 49.2561 102.231 49.1484C102.228 49.1427 102.228 49.1368 102.226 49.1302C102.225 48.9775 102.224 48.8239 102.227 48.6688C102.232 48.5723 102.241 48.4771 102.256 48.3809C102.271 48.2958 102.284 48.2114 102.306 48.1281C102.31 48.1184 102.313 48.1072 102.317 48.0975C102.332 48.0667 102.348 48.0373 102.365 48.0071C102.449 47.8725 102.538 47.7406 102.623 47.6066C102.639 47.5809 102.657 47.5544 102.674 47.5279C102.69 47.5265 102.705 47.5235 102.721 47.5206C102.857 47.4953 102.981 47.447 103.103 47.3812C103.189 47.3332 103.274 47.2823 103.359 47.2328C103.44 47.1916 103.524 47.1562 103.61 47.1236C103.627 47.1177 103.644 47.1103 103.661 47.1044C108.643 47.889 113.608 48.7992 118.568 49.6803C150.475 56.4909 181.343 67.3981 212.916 75.5399C219.901 77.6545 227.189 78.6598 234.13 80.8551L234.132 80.8543Z" fill="#55A665"/>
<path d="M130.199 109.576C131.029 109.35 157.565 120.807 170.593 117.832" stroke="black" stroke-width="5"/>
<path d="M136.834 69.6304C137.665 69.4045 164.2 80.8616 177.228 77.8867" stroke="black" stroke-width="5"/>
</g>
</g>
<defs>
<clipPath id="clip0_1_34">
<rect width="205.5" height="204.535" fill="white" transform="translate(0.0805664 88.6646) rotate(-41.7658)"/>
</clipPath>
<clipPath id="clip1_1_34">
<rect width="153.679" height="130.523" fill="white" transform="matrix(0.873891 -0.486123 0.484353 0.874873 55.3619 73.8486)"/>
</clipPath>
</defs>
</svg>
