<svg width="112" height="167" viewBox="0 0 112 167" fill="none" xmlns="http://www.w3.org/2000/svg">
<path d="M38.6039 11.2297L80 33.0846C100.061 47.1886 112 70.1761 112 94.6991V102.918C112 107.52 111.506 112.109 110.526 116.605L108.07 127.879C103.996 146.583 89.0117 160.964 70.1561 164.267C60.9285 165.883 51.4286 164.712 42.8694 160.904L31.7127 155.94C22.3486 151.774 11.9384 150.555 1.86524 152.447L-0.68243 152.925C-19.5716 156.472 -38.7049 148.084 -48.8953 131.789C-53.5381 124.365 -56 115.785 -56 107.028V87.4039C-56 75.1472 -53.4389 63.0258 -48.4808 51.8167L-43.0771 39.6C-36.0508 23.7152 -22.3955 11.7231 -5.73624 6.80734C9.05499 2.44276 24.9661 4.02969 38.6039 11.2297Z" fill="#6FB9D7"/>
<path d="M-1.57308 68.8859C-4.96177 67.552 -4.79271 63.319 -4.64431 60.2948C-4.2104 57.711 -4.05824 51.5321 -0.923146 50.9276C1.97339 48.6255 6.45532 49.937 7.37951 53.5731C8.68502 56.9367 9.89285 61.0747 7.90547 64.4066C5.7866 67.095 2.04477 69.9922 -1.57308 68.8859Z" fill="black"/>
<path d="M24.4601 40.7771C24.77 40.5943 25.1645 40.4637 25.5139 40.4245C25.5533 40.4189 25.5928 40.4152 25.6322 40.4114C25.1908 40.1988 24.755 40.4413 24.4582 40.7771H24.4601ZM21.2761 56.5433C17.2864 55.3083 15.8719 50.5267 16.9388 46.8272C17.4855 44.9579 17.7823 42.4636 19.6382 41.417C21.4076 35.8071 28.2038 34.4546 30.4053 40.445C31.9625 45.9038 28.4198 57.5769 21.2743 56.5452L21.2761 56.5433Z" fill="black"/>
<path d="M25.0311 84.1113C20.089 82.27 21.2987 75.1303 22.5234 71.1342C23.6881 68.0671 27.0204 63.4311 30.7697 65.3788C34.2279 67.6716 33.2699 72.5614 32.7665 76.0575C32.2706 79.9286 29.5882 84.7773 25.0311 84.1113Z" fill="black"/>
<path d="M46.1728 68.5538C41.9952 66.8747 43.6256 61.2145 43.7571 57.7221C44.3094 54.1476 47.4557 46.4632 52.1988 48.1926C59.3481 50.9406 54.0152 70.5612 46.1709 68.5538H46.1728Z" fill="black"/>
<path d="M3.75614 95.51C1.16578 92.9205 3.03294 84.7324 4.67281 81.8183C6.02528 79.0087 10.7026 77.9752 12.2485 81.1784C14.0349 84.9357 13.3098 90.4262 11.005 93.8477C9.46468 96.1163 6.01213 97.7356 3.75426 95.5081L3.75614 95.51Z" fill="black"/>
<path d="M57.1265 94.8908C57.1076 94.9225 57.0887 94.9561 57.0698 94.9878C57.0641 94.9915 57.0584 94.9953 57.0527 94.9971C57.0773 94.9617 57.1038 94.9244 57.1284 94.8889L57.1265 94.8908Z" fill="black"/>
<path d="M61.7432 82.8184C61.7601 82.8333 61.777 82.8482 61.7939 82.8613C61.715 82.9844 61.638 83.1075 61.5591 83.2307C61.6211 83.0926 61.6831 82.9564 61.7432 82.8184Z" fill="black"/>
<path d="M62.9036 80.8428C62.8768 80.8523 62.85 80.86 62.8232 80.8657C62.85 80.8581 62.8768 80.8504 62.9036 80.8428Z" fill="black"/>
<path d="M25.698 111.355C22.206 109.536 23.3988 104.793 23.9004 101.65C24.5785 99.1051 24.7081 94.5717 27.6591 93.6687C29.5545 90.9282 34.0458 89.3331 36.3168 92.4897C39.42 97.7525 33.3714 114.384 25.6962 111.355H25.698Z" fill="black"/>
<path d="M51.9265 93.9747C46.2104 93.3609 46.99 86.6148 48.3931 82.6374C49.0694 80.9397 49.137 77.6562 51.6654 77.9286C53.0441 75.0686 57.2931 73.8411 58.5479 77.4529C60.5015 82.3426 58.5893 93.8534 51.9265 93.9728V93.9747Z" fill="black"/>
<path d="M7.71198 111.334C6.76525 109.172 10.1295 107.498 11.2979 109.549C12.6635 111.841 8.76202 113.802 7.71198 111.334Z" fill="black"/>
<path d="M5.61932 125.199C4.78154 125.128 4.05835 124.653 3.63758 123.932C3.26565 123.294 3.2525 122.556 3.30134 121.841C2.01086 119.013 3.45537 115.7 4.4115 112.955C4.88298 111.375 5.10276 109.489 6.25423 108.25C7.84714 105.08 12.4192 104.758 12.917 108.795C13.7379 114.002 12.2859 124.744 5.61745 125.197L5.61932 125.199Z" fill="black"/>
<path d="M43.6725 124.52C38.0128 123.046 43.5523 109.872 46.1258 107.15C48.1056 104.073 52.1743 104.336 53.245 107.974C54.0433 111.441 52.905 115.127 51.5356 118.28C51.545 118.261 51.5544 118.241 51.5657 118.222L51.5845 118.185C50.1475 121.183 47.4933 125.123 43.6725 124.518V124.52Z" fill="black"/>
<path d="M64.1306 108.049C60.3268 106.53 63.8582 96.76 65.7498 94.5586C66.8299 92.2079 68.0716 88.7864 71.1371 88.7136C72.7526 88.7435 73.8947 90.2005 74.0863 91.7042C75.0086 96.4223 70.3276 109.875 64.1325 108.049H64.1306Z" fill="black"/>
<path d="M70.1604 75.2796C66.0485 73.9812 66.7811 69.1735 67.7823 65.9497C68.4623 64.3043 68.2669 61.6458 70.1698 60.8995C71.2217 59.1645 74.0036 58.575 75.4557 60.1067C82.4753 61.1477 75.9309 77.3075 70.1604 75.2796Z" fill="black"/>
</svg>
