<svg width="166" height="266" viewBox="0 0 166 266" fill="none" xmlns="http://www.w3.org/2000/svg">
<g clip-path="url(#clip0_1_109)">
<path d="M233.577 195.172C235.631 200.122 229.589 199.962 226.316 199.73C215.767 199.418 205.222 199.082 194.674 198.795C156.221 197.67 117.782 196.814 79.3559 198.762C66.586 199.295 53.8462 200.478 41.0685 200.785C38.9284 200.779 36.6594 200.809 34.5427 200.332C33.499 200.097 32.494 199.74 31.5584 199.193C25.5026 195.045 36.22 184.615 38.605 180.282C69.5765 137.223 99.5796 93.4531 132.156 51.579C132.151 51.5734 132.146 51.5658 132.141 51.5602C132.186 51.507 132.228 51.4533 132.272 51.3976C132.416 51.2161 132.56 51.0346 132.701 50.8522C132.785 50.7402 132.872 50.6287 132.953 50.5137C133.036 50.3972 133.12 50.2806 133.192 50.157C133.194 50.1487 133.199 50.1434 133.203 50.1356C133.334 49.9859 133.466 49.8367 133.603 49.6885C133.691 49.5992 133.783 49.5149 133.88 49.4342C133.968 49.3646 134.054 49.2944 134.148 49.2324C134.16 49.2264 134.173 49.2184 134.185 49.2125C134.226 49.1955 134.267 49.1807 134.31 49.1663C134.507 49.1081 134.707 49.0571 134.906 49.0015C134.944 48.9903 134.984 48.9796 135.024 48.9689C135.04 48.9815 135.058 48.9919 135.075 49.0024C135.229 49.0961 135.391 49.1566 135.566 49.1981C135.691 49.2263 135.818 49.2504 135.943 49.2765C136.057 49.3065 136.169 49.3448 136.28 49.3873C136.302 49.3966 136.325 49.4039 136.347 49.4132C140.496 54.4899 144.52 59.6739 148.564 64.8253C173.591 99.0714 194.065 136.391 217.616 171.639C222.556 179.741 228.748 187.029 233.575 195.172L233.577 195.172Z" fill="#55A665"/>
<path d="M108 133C109 133.5 124.8 167.6 140 176" stroke="black" stroke-width="5"/>
<path d="M149 100C150 100.5 165.8 134.6 181 143" stroke="black" stroke-width="5"/>
</g>
<defs>
<clipPath id="clip0_1_109">
<rect width="199.68" height="169.739" fill="white" transform="matrix(0.975567 0.2197 -0.221275 0.975212 66.395 33.5161)"/>
</clipPath>
</defs>
</svg>
