<svg width="154" height="213" viewBox="0 0 154 213" fill="none" xmlns="http://www.w3.org/2000/svg">
<path d="M94.9693 29.9609C85.3371 123.397 -21.5506 160.196 -89.3882 169.281C-101.474 170.899 -115.285 178.243 -109.918 189.192C-107.771 193.574 -104.251 197.537 -100.756 200.617C-97.413 203.563 -93.1553 205.359 -88.8278 206.42C51.9513 240.927 124.429 120.056 148.21 39.932C151.719 28.1079 149.602 14.6428 139.923 6.99831C122.248 -6.96113 108.032 2.4425 100.001 13.6589C96.6364 18.358 95.5619 24.212 94.9693 29.9609Z" fill="#D95F3A"/>
<path d="M18.0001 135.5C22.5001 143.5 44.5001 173.5 51.5001 183.5" stroke="black" stroke-width="5"/>
<path d="M44.0001 118C46.5001 121 67.0001 154 76.0001 163.5" stroke="black" stroke-width="5"/>
<path d="M66.0001 97C73.0001 104 84.0001 132 96.0001 141.5" stroke="black" stroke-width="5"/>
<path d="M84.5001 69C85.5001 69.5 101.3 103.6 116.5 112" stroke="black" stroke-width="5"/>
<path d="M96.0001 23C98.5001 23.5 120.8 65.6 136 74" stroke="black" stroke-width="5"/>
<path d="M-6.99988 147.5C-1.99988 159.833 24.0001 191 27.0001 197.5" stroke="black" stroke-width="5"/>
</svg>
