<svg width="166" height="266" viewBox="0 0 166 266" fill="none" xmlns="http://www.w3.org/2000/svg">
<path d="M109.342 150.218L84.9085 177.134C73.3035 189.918 54.1682 192.463 39.6252 183.157C27.725 175.542 21.4933 161.58 23.7719 147.637L28.2535 120.212C33.8163 86.1719 61.1686 59.882 95.4026 55.6714L140.481 50.127C181.085 45.1329 219.426 69.9692 231.47 109.066L239.657 135.645C243.983 149.691 240.061 164.976 229.505 175.202L221.772 182.694C203.036 200.846 171.644 191.225 166.296 165.693C160.75 139.217 127.525 130.189 109.342 150.218Z" fill="#F1BE60"/>
<path d="M70.399 137.621C70.4843 137.575 70.5375 137.486 70.5375 137.39C70.5375 137.293 70.4843 137.204 70.399 137.158C70.3211 137.061 70.233 136.973 70.1362 136.895H70.0485L69.9985 136.732L69.4478 136.419L68.2963 135.819C67.5202 135.43 66.7317 135.055 65.9056 134.679L63.2521 133.54L58.2456 131.037C55.8424 129.785 53.3642 128.696 50.9861 127.394C46.7931 125.103 42.6501 122.712 38.6073 120.045C37.606 119.369 36.6047 118.681 35.6159 117.955C35.1153 117.592 34.6271 117.216 34.139 116.841L33.413 116.252L32.4493 115.338C31.1509 114.282 30.125 112.93 29.4579 111.395C29.1853 110.734 29.1071 110.008 29.2326 109.304C29.3992 108.563 29.8483 107.917 30.4842 107.502C31.6512 106.84 32.9896 106.544 34.3267 106.65C35.0777 106.65 35.8913 106.763 36.6548 106.851C37.0053 106.851 37.4684 106.951 37.7437 107.014L38.5323 107.164C40.6475 107.577 42.7002 108.04 44.7905 108.503C47.4064 109.092 50.0098 109.642 52.6007 110.181C55.1312 110.814 57.7035 111.266 60.2983 111.533C61.8253 111.533 61.8128 112.021 60.3984 112.785C58.0285 113.787 55.4555 114.216 52.8886 114.036C50.0849 113.786 47.3438 113.373 44.6403 112.972L40.61 112.359L38.6199 112.083L36.8425 111.858C36.6548 111.858 36.6673 111.771 36.4921 111.72C36.3168 111.67 36.1041 111.72 36.1166 111.883C36.1237 112.056 36.185 112.223 36.2918 112.359V112.434L36.467 112.597L37.2055 113.21C37.7062 113.623 38.2193 114.024 38.745 114.462C43.8267 118.318 50.0098 121.285 55.9676 124.339C59.2093 126.004 62.6013 127.694 65.818 129.221C67.4702 129.96 69.2475 130.724 70.9622 131.6L74.0663 133.252C75.2785 133.921 76.353 134.813 77.233 135.881C77.6815 136.44 78.0134 137.082 78.2092 137.771C78.428 138.477 78.428 139.232 78.2092 139.937C77.7197 141.373 76.6337 142.528 75.2303 143.104C73.7362 143.676 72.1258 143.878 70.5367 143.693L69.285 143.555L68.3839 143.442L66.932 143.255C66.0075 143.137 65.0692 143.303 64.2409 143.73C63.7871 143.922 63.5162 144.393 63.5776 144.882C63.6734 145.349 63.894 145.782 64.2159 146.134C64.5217 146.506 64.861 146.85 65.2297 147.16C65.6678 147.548 66.4063 148.124 67.0446 148.6C68.3839 149.576 69.7982 150.503 71.2376 151.379C75.731 154.083 80.5123 156.174 85.2685 158.427C86.3199 158.928 87.3838 159.366 88.4226 159.904C89.4615 160.442 90.1874 160.843 90.8383 161.256C91.3738 161.615 91.8654 162.035 92.3027 162.508C92.9308 163.153 93.2928 164.011 93.3165 164.912C93.3538 165.29 93.3538 165.672 93.3165 166.051C93.0787 167.127 91.1762 167.027 88.1347 166.051C83.8041 164.286 79.3733 162.295 74.8924 160.079C72.677 158.953 70.4491 157.751 68.2337 156.424C67.1322 155.773 66.0308 155.072 64.9293 154.333C64.3661 153.97 63.8154 153.582 63.2647 153.182L62.4886 152.618L61.5749 151.892L61.1744 151.542L60.6237 151.066C60.2607 150.766 59.9478 150.44 59.6224 150.115C59.0032 149.491 58.4418 148.812 57.9452 148.087C57.0532 146.821 56.5884 145.304 56.6185 143.755C56.715 142.258 57.3613 140.849 58.4333 139.799C59.6317 138.707 61.0871 137.936 62.6639 137.559C63.0769 137.433 63.515 137.358 63.9155 137.258C64.316 137.158 64.7917 137.158 65.2297 137.095C65.6678 137.033 66.1434 137.095 66.594 137.095C67.0446 137.095 67.3575 137.158 67.7455 137.183C68.1335 137.208 68.3713 137.258 68.6092 137.296L69.3226 137.408L69.8608 137.496C69.9515 137.541 70.0579 137.541 70.1487 137.496L70.399 137.621Z" fill="#231F20"/>
<path d="M173.055 92.6212C173.14 92.5754 173.193 92.4865 173.193 92.3896C173.193 92.2928 173.14 92.2039 173.055 92.1581C172.977 92.0612 172.888 91.9731 172.792 91.8952H172.704L172.654 91.7324L172.103 91.4195L170.952 90.8186C170.176 90.4305 169.387 90.0549 168.561 89.6794L165.908 88.5402L160.901 86.0365C158.498 84.7847 156.02 83.6955 153.642 82.3936C149.449 80.1027 145.306 77.7117 141.263 75.0453C140.262 74.3693 139.26 73.6807 138.271 72.9547C137.771 72.5916 137.283 72.2161 136.795 71.8405L136.069 71.2522L135.105 70.3383C133.806 69.2824 132.78 67.93 132.113 66.395C131.841 65.7338 131.763 65.0085 131.888 64.3044C132.055 63.5634 132.504 62.9167 133.14 62.5017C134.307 61.8401 135.645 61.5436 136.982 61.6505C137.733 61.6505 138.547 61.7631 139.31 61.8508C139.661 61.8508 140.124 61.9509 140.399 62.0135L141.188 62.1637C143.303 62.5768 145.356 63.04 147.446 63.5032C150.062 64.0916 152.665 64.6424 155.256 65.1807C157.787 65.8137 160.359 66.2655 162.954 66.5327C164.481 66.5327 164.468 67.0209 163.054 67.7845C160.684 68.7872 158.111 69.2161 155.544 69.0364C152.74 68.786 149.999 68.3729 147.296 67.9723L143.265 67.3589L141.275 67.0835L139.498 66.8582C139.31 66.8582 139.323 66.7705 139.148 66.7205C138.972 66.6704 138.76 66.7205 138.772 66.8832C138.779 67.0562 138.841 67.2226 138.947 67.3589V67.434L139.123 67.5968L139.861 68.2102C140.362 68.6233 140.875 69.0239 141.401 69.462C146.482 73.3177 152.665 76.2846 158.623 79.3391C161.865 81.0041 165.257 82.6941 168.474 84.2213C170.126 84.9599 171.903 85.7235 173.618 86.5998L176.722 88.2523C177.934 88.9206 179.009 89.8126 179.888 90.8812C180.337 91.4397 180.669 92.0824 180.865 92.7715C181.083 93.4768 181.083 94.2318 180.865 94.9372C180.375 96.3733 179.289 97.528 177.886 98.1043C176.392 98.6764 174.781 98.8783 173.192 98.6927L171.941 98.555L171.039 98.4423L169.587 98.2546C168.663 98.1372 167.725 98.3031 166.896 98.7303C166.443 98.9225 166.172 99.3929 166.233 99.882C166.329 100.349 166.55 100.782 166.871 101.134C167.177 101.506 167.517 101.85 167.885 102.16C168.323 102.548 169.062 103.124 169.7 103.6C171.039 104.576 172.454 105.503 173.893 106.379C178.387 109.083 183.168 111.174 187.924 113.427C188.975 113.928 190.039 114.366 191.078 114.904C192.117 115.442 192.843 115.843 193.494 116.256C194.029 116.615 194.521 117.035 194.958 117.508C195.586 118.153 195.948 119.011 195.972 119.912C196.009 120.29 196.009 120.672 195.972 121.051C195.734 122.127 193.832 122.027 190.79 121.051C186.46 119.286 182.029 117.295 177.548 115.079C175.333 113.953 173.105 112.751 170.889 111.424C169.788 110.773 168.686 110.072 167.585 109.333C167.022 108.97 166.471 108.582 165.92 108.182L165.144 107.618L164.23 106.892L163.83 106.542L163.279 106.066C162.916 105.766 162.603 105.44 162.278 105.115C161.659 104.491 161.097 103.812 160.601 103.087C159.709 101.821 159.244 100.304 159.274 98.7553C159.371 97.258 160.017 95.8491 161.089 94.7995C162.287 93.7072 163.743 92.9363 165.319 92.5586C165.732 92.4335 166.171 92.3583 166.571 92.2582C166.972 92.1581 167.447 92.158 167.885 92.0955C168.323 92.0329 168.799 92.0955 169.25 92.0955C169.7 92.0955 170.013 92.1581 170.401 92.1831C170.789 92.2081 171.027 92.2582 171.265 92.2958L171.978 92.4084L172.516 92.496C172.607 92.5408 172.713 92.5408 172.804 92.496L173.055 92.6212Z" fill="#231F20"/>
<path d="M143.541 90.6934C143.679 90.6934 143.879 90.6934 143.904 90.4931C143.904 90.3312 143.836 90.1766 143.716 90.0675L143.628 89.9673L142.99 89.4666C142.489 89.0785 141.976 88.703 141.426 88.3274C140.349 87.5763 139.21 86.8377 138.046 86.1242C133.39 83.2699 128.459 80.6035 123.552 77.8494C119.96 75.8465 116.293 73.9437 112.763 71.7029C109.537 69.7372 106.5 67.4785 103.689 64.9554C102.046 63.5579 100.686 61.858 99.6834 59.948C99.054 58.6637 98.8523 57.2116 99.1076 55.8044C99.3877 54.3913 100.101 53.1006 101.148 52.1114C102.8 50.6143 104.801 49.5554 106.968 49.0318C108.866 48.5222 110.813 48.2117 112.776 48.1055C116.494 47.9014 120.223 47.9935 123.928 48.3809C127.169 48.7314 130.386 49.1696 133.578 49.6327C136.769 50.0959 139.949 50.6467 143.078 51.2727C147.096 52.0488 151.113 52.85 155.094 53.7764C157.084 54.202 159.074 54.6151 161.051 55.0282C163.029 55.4413 165.007 55.9671 166.947 56.2801C168.198 56.4428 168.636 56.4929 168.649 56.7057C168.661 56.9185 168.073 57.244 166.947 57.5069C165.425 57.8327 163.881 58.0419 162.328 58.1328C161.364 58.1328 160.325 58.258 159.236 58.2455C158.148 58.2329 157.009 58.1328 155.832 58.0076L143.428 56.5179L137.27 55.8044C135.23 55.5039 133.202 55.241 131.162 54.9907C127.107 54.4774 123.064 54.1644 119.071 53.8515C115.303 53.4963 111.503 53.7285 107.807 54.54C107.344 54.6764 106.892 54.848 106.455 55.0532L105.841 55.3537L105.353 55.7042C105.07 55.8804 104.823 56.11 104.627 56.3802C104.514 56.5259 104.441 56.6984 104.415 56.8809C104.394 57.5651 104.616 58.2346 105.04 58.7712C105.636 59.7 106.356 60.5425 107.181 61.2749C111.033 64.4196 115.174 67.1943 119.547 69.5622C124.378 72.3663 129.347 75.0203 134.316 77.7743C136.82 79.1514 139.323 80.5659 141.726 82.0807C142.978 82.8443 144.229 83.633 145.381 84.4968L146.294 85.1602L146.733 85.4982C146.883 85.6234 147.02 85.7111 147.246 85.9114C148.083 86.5882 148.854 87.3427 149.549 88.1647C150.309 89.0745 150.795 90.1815 150.951 91.3569C150.988 91.6478 150.988 91.9423 150.951 92.2332C150.86 93.1088 150.471 93.9266 149.849 94.5491C148.952 95.3539 147.837 95.8764 146.645 96.0513L145.719 96.2141H144.742C144.417 96.2328 144.091 96.2328 143.766 96.2141H142.89C139.21 95.9887 135.768 95.4505 132.364 95.0874C131.35 94.9622 130.349 94.8746 129.36 94.7995H127.97C127.708 94.7995 127.432 94.7995 127.157 94.7995C126.593 94.7969 126.032 94.877 125.492 95.0373C124.904 95.1836 124.472 95.6856 124.416 96.2892C124.385 96.7466 124.538 97.1974 124.841 97.541C125.105 97.8986 125.407 98.2261 125.743 98.5175L126.256 98.9556L126.519 99.1684L126.969 99.4939C127.57 99.9446 128.221 100.37 128.847 100.746C131.475 102.386 134.241 103.888 137.032 105.315C140.637 107.143 144.292 108.795 147.959 110.435C151.626 112.075 155.331 113.677 158.961 115.518C160.563 116.319 162.165 117.057 163.755 117.946C165.916 119.044 167.896 120.467 169.625 122.165C170.565 123.061 171.106 124.297 171.127 125.595C171.19 126.119 171.19 126.648 171.127 127.172C170.701 128.7 167.998 127.999 163.755 126.008C157.497 122.916 150.825 119.987 144.204 116.544C140.887 114.854 137.52 113.114 134.191 111.261C130.708 109.376 127.324 107.311 124.053 105.077L123.139 104.439L122.588 103.888L121.825 103.262C121.337 102.824 120.761 102.436 120.335 102.01L119.084 100.621L118.095 99.1434C117.82 98.6427 117.669 98.1294 117.444 97.6287C117.27 97.1174 117.152 96.5884 117.094 96.0513V94.4365L117.181 94.111C117.239 94.0151 117.277 93.9087 117.294 93.798L117.507 93.1721C117.667 92.7631 117.864 92.3693 118.095 91.9953C118.316 91.627 118.585 91.2901 118.896 90.9939C119.182 90.6793 119.505 90.4018 119.86 90.1676C121.505 89.1367 123.401 88.574 125.342 88.5402C125.88 88.5402 126.418 88.5402 126.944 88.5402L128.459 88.6028L130.236 88.7781C131.4 88.9158 132.501 89.0911 133.603 89.2538L139.961 90.3053C140.988 90.418 141.989 90.5182 142.94 90.5682H143.291H143.416L143.541 90.6934Z" fill="#231F20"/>
</svg>
