<svg width="162" height="204" viewBox="0 0 162 204" fill="none" xmlns="http://www.w3.org/2000/svg">
<path d="M68.5253 9.18796L120.826 36.8C146.172 54.6194 161.256 83.6625 161.256 114.646V125.029C161.256 130.844 160.632 136.641 159.394 142.322L156.291 156.567C151.143 180.198 132.212 198.367 108.389 202.539C96.7308 204.581 84.7283 203.102 73.9144 198.291L59.8187 192.019C47.9878 186.755 34.8353 185.216 22.1086 187.606L18.8898 188.21C-4.97534 192.691 -29.1489 182.094 -42.0237 161.506C-47.8896 152.126 -51 141.286 -51 130.223V105.429C-51 89.9431 -47.7642 74.6286 -41.5 60.4667L-34.6728 45.0318C-25.7956 24.9625 -8.54317 9.81135 12.5047 3.60059C31.1923 -1.91374 51.2949 0.0912461 68.5253 9.18796Z" fill="#6FB9D7"/>
</svg>
