<svg width="270" height="270" viewBox="0 0 270 270" fill="none" xmlns="http://www.w3.org/2000/svg">
<g clip-path="url(#clip0_1_27)">
<path d="M112.743 132.843L87.2443 125.174C75.0715 121.513 62.037 127.196 56.4345 138.606C51.8723 147.897 53.2595 159.01 59.9658 166.895L73.2624 182.528C89.7468 201.909 117.042 208.09 140.268 197.702L170.259 184.288C197.813 171.964 212.546 141.64 205.206 112.361L200.222 92.4841C197.605 82.0452 189.365 73.9495 178.881 71.5168L171.16 69.725C152.47 65.3881 136.349 83.3816 142.705 101.485C149.296 120.256 131.795 138.573 112.743 132.843Z" fill="#6FB9D7"/>
<path d="M93.1457 155.591C93.2168 155.588 93.2841 155.624 93.321 155.685C93.3579 155.746 93.3583 155.822 93.3222 155.884C93.3102 155.974 93.2884 156.063 93.2572 156.149L93.2022 156.182L93.2327 156.304L93.0059 156.71L92.5113 157.527C92.1716 158.066 91.8192 158.602 91.4432 159.152L90.21 160.878L88.0181 164.357C86.985 166.059 85.8428 167.687 84.8446 169.411C83.0828 172.447 81.3906 175.527 79.8663 178.744C79.4946 179.55 79.1278 180.364 78.7831 181.198C78.6069 181.617 78.4432 182.039 78.2796 182.461L78.0476 183.108L77.7902 184.05C77.3767 185.209 77.2473 186.451 77.413 187.672C77.4936 188.193 77.7209 188.68 78.0679 189.076C78.455 189.48 78.9835 189.718 79.5412 189.738C80.5265 189.712 81.4805 189.391 82.2799 188.817C82.7518 188.531 83.2201 188.152 83.6664 187.807C83.8866 187.674 84.1395 187.435 84.2886 187.291L84.7269 186.897C85.8986 185.833 87.0119 184.762 88.1488 183.676C89.5683 182.312 90.9942 180.977 92.4171 179.654C93.7659 178.294 95.2101 177.033 96.7387 175.879C97.6981 175.3 97.5043 174.997 96.3246 175.052C94.4536 175.319 92.6734 176.025 91.129 177.113C89.4627 178.335 87.8978 179.636 86.3517 180.915L84.053 182.831L82.9075 183.76L81.8766 184.577C81.7586 184.648 81.7999 184.699 81.7089 184.797C81.6178 184.895 81.4651 184.944 81.4109 184.837C81.3495 184.725 81.3246 184.597 81.3398 184.47L81.3112 184.423L81.3593 184.254L81.5896 183.587C81.7467 183.136 81.9166 182.689 82.0799 182.213C83.8039 177.852 86.5586 173.634 89.1384 169.446C90.541 167.166 92.0284 164.812 93.4677 162.628C94.2244 161.535 95.0502 160.379 95.7938 159.175L97.1146 156.955C97.6216 156.073 97.9569 155.103 98.1027 154.095C98.1717 153.573 98.1354 153.041 97.996 152.532C97.8647 152.004 97.577 151.528 97.1708 151.166C96.3161 150.446 95.1938 150.13 94.0924 150.299C92.9356 150.506 91.8468 150.99 90.9191 151.71L90.1851 152.272L89.6618 152.685L88.821 153.355C88.2849 153.779 87.6321 154.031 86.9489 154.076C86.5905 154.127 86.2411 153.933 86.0933 153.601C85.9755 153.27 85.9493 152.914 86.0174 152.57C86.0676 152.218 86.15 151.873 86.2634 151.537C86.3908 151.126 86.6354 150.483 86.8552 149.94C87.3247 148.816 87.8605 147.695 88.431 146.596C90.2242 143.185 92.4319 140.052 94.5619 136.825C95.0317 136.11 95.5333 135.43 95.981 134.696C96.4286 133.963 96.7321 133.434 96.9837 132.927C97.1837 132.498 97.3324 132.046 97.4269 131.582C97.5758 130.936 97.4763 130.258 97.1482 129.681C97.0273 129.428 96.8819 129.187 96.7142 128.962C96.1546 128.374 94.9973 129.159 93.4583 130.929C91.4096 133.686 89.384 136.623 87.4127 139.722C86.4499 141.273 85.5079 142.877 84.6214 144.554C84.1774 145.383 83.7524 146.243 83.3417 147.127C83.1261 147.57 82.9279 148.024 82.7345 148.485L82.4615 149.135L82.1641 149.94L82.046 150.313L81.8812 150.822C81.7675 151.149 81.6949 151.474 81.6145 151.802C81.4631 152.431 81.369 153.072 81.3333 153.718C81.2551 154.855 81.5411 155.988 82.1499 156.953C82.781 157.861 83.7239 158.504 84.7974 158.759C85.9665 158.993 87.1747 158.927 88.3093 158.567C88.6166 158.489 88.9204 158.37 89.2102 158.281C89.5001 158.192 89.7989 158.012 90.098 157.885C90.3971 157.758 90.6721 157.538 90.9553 157.367C91.2384 157.196 91.4111 157.038 91.6454 156.875C91.8797 156.712 92.01 156.59 92.1451 156.476L92.5505 156.134L92.8553 155.875C92.8952 155.812 92.9621 155.772 93.0362 155.765L93.1457 155.591Z" fill="#231F20"/>
<path d="M174.793 145.008C174.864 145.005 174.931 145.041 174.968 145.102C175.005 145.163 175.005 145.239 174.969 145.3C174.957 145.391 174.935 145.48 174.904 145.566L174.849 145.599L174.88 145.721L174.653 146.127L174.158 146.943C173.818 147.483 173.466 148.019 173.09 148.569L171.857 150.295L169.665 153.774C168.632 155.476 167.49 157.103 166.491 158.827C164.73 161.864 163.037 164.944 161.513 168.16C161.141 168.967 160.775 169.781 160.43 170.614C160.254 171.033 160.09 171.456 159.926 171.878L159.694 172.524L159.437 173.466C159.024 174.625 158.894 175.868 159.06 177.089C159.14 177.609 159.368 178.097 159.715 178.493C160.102 178.897 160.63 179.135 161.188 179.155C162.173 179.129 163.127 178.808 163.927 178.233C164.399 177.948 164.867 177.568 165.313 177.223C165.533 177.09 165.786 176.851 165.935 176.707L166.374 176.313C167.545 175.25 168.659 174.179 169.796 173.093C171.215 171.729 172.641 170.393 174.064 169.071C175.413 167.711 176.857 166.449 178.386 165.296C179.345 164.717 179.151 164.413 177.971 164.469C176.1 164.736 174.32 165.442 172.776 166.53C171.11 167.752 169.545 169.053 167.999 170.331L165.7 172.248L164.554 173.177L163.523 173.994C163.405 174.065 163.447 174.116 163.356 174.214C163.265 174.312 163.112 174.361 163.058 174.254C162.996 174.142 162.971 174.014 162.987 173.887L162.958 173.84L163.006 173.671L163.236 173.003C163.394 172.553 163.563 172.105 163.727 171.629C165.451 167.269 168.205 163.051 170.785 158.863C172.188 156.582 173.675 154.229 175.115 152.045C175.871 150.952 176.697 149.796 177.441 148.592L178.761 146.372C179.268 145.49 179.604 144.52 179.75 143.512C179.819 142.989 179.782 142.458 179.643 141.949C179.512 141.421 179.224 140.945 178.818 140.583C177.963 139.863 176.841 139.547 175.739 139.716C174.582 139.923 173.494 140.406 172.566 141.127L171.832 141.689L171.309 142.102L170.468 142.771C169.932 143.196 169.279 143.448 168.596 143.493C168.237 143.544 167.888 143.35 167.74 143.018C167.622 142.687 167.596 142.33 167.664 141.986C167.714 141.635 167.797 141.29 167.91 140.954C168.038 140.543 168.282 139.899 168.502 139.357C168.972 138.233 169.507 137.112 170.078 136.013C171.871 132.602 174.079 129.469 176.209 126.242C176.679 125.527 177.18 124.847 177.628 124.113C178.075 123.379 178.379 122.851 178.631 122.344C178.831 121.914 178.979 121.463 179.074 120.998C179.223 120.353 179.123 119.674 178.795 119.098C178.674 118.844 178.529 118.604 178.361 118.379C177.801 117.79 176.644 118.576 175.105 120.346C173.056 123.103 171.031 126.04 169.06 129.138C168.097 130.69 167.155 132.293 166.268 133.971C165.824 134.8 165.399 135.66 164.989 136.544C164.773 136.987 164.575 137.441 164.381 137.902L164.108 138.552L163.811 139.357L163.693 139.73L163.528 140.239C163.414 140.566 163.342 140.89 163.261 141.219C163.11 141.848 163.016 142.489 162.98 143.135C162.902 144.272 163.188 145.405 163.797 146.37C164.428 147.278 165.371 147.921 166.444 148.176C167.613 148.41 168.822 148.344 169.956 147.984C170.263 147.906 170.567 147.787 170.857 147.698C171.147 147.609 171.446 147.429 171.745 147.302C172.044 147.175 172.319 146.955 172.602 146.784C172.885 146.613 173.058 146.455 173.292 146.292C173.527 146.129 173.657 146.007 173.792 145.893L174.197 145.551L174.502 145.291C174.542 145.229 174.609 145.188 174.683 145.182L174.793 145.008Z" fill="#231F20"/>
<path d="M156.983 157.427C157.069 157.374 157.195 157.298 157.287 157.415C157.349 157.517 157.365 157.641 157.331 157.755L157.314 157.851L157.104 158.409C156.937 158.844 156.758 159.276 156.555 159.722C156.165 160.604 155.73 161.502 155.271 162.394C153.433 165.961 151.35 169.515 149.316 173.114C147.822 175.741 146.243 178.333 144.879 181.086C143.601 183.55 142.553 186.128 141.748 188.786C141.248 190.291 141.041 191.879 141.139 193.464C141.233 194.513 141.66 195.506 142.356 196.296C143.07 197.081 144.01 197.625 145.045 197.851C146.653 198.168 148.314 198.077 149.875 197.584C151.262 197.185 152.604 196.642 153.877 195.964C156.292 194.681 158.6 193.208 160.78 191.557C162.683 190.106 164.537 188.609 166.366 187.105C168.195 185.601 169.983 184.047 171.711 182.465C173.939 180.45 176.159 178.42 178.307 176.325C179.395 175.301 180.488 174.285 181.573 173.274C182.658 172.263 183.701 171.181 184.8 170.247C185.525 169.669 185.781 169.471 185.708 169.332C185.635 169.193 185.141 169.211 184.333 169.473C183.253 169.845 182.203 170.299 181.193 170.831C180.587 171.197 179.887 171.513 179.207 171.934C178.528 172.355 177.85 172.851 177.159 173.376L169.932 179.024L166.335 181.811C165.168 182.775 163.994 183.71 162.807 184.643C160.455 186.506 158.034 188.238 155.644 189.95C153.412 191.605 150.936 192.901 148.304 193.792C147.961 193.882 147.611 193.945 147.259 193.981L146.759 194.025L146.319 193.989C146.073 193.985 145.831 193.934 145.605 193.838C145.478 193.789 145.367 193.708 145.281 193.603C145.007 193.179 144.891 192.673 144.954 192.173C144.974 191.362 145.105 190.557 145.344 189.782C146.567 186.336 148.112 183.015 149.957 179.861C151.925 176.259 154.036 172.699 156.109 169.076C157.157 167.257 158.191 165.415 159.124 163.547C159.619 162.591 160.105 161.618 160.5 160.636L160.821 159.871L160.967 159.492C161.014 159.356 161.067 159.248 161.132 159.036C161.4 158.292 161.597 157.523 161.721 156.741C161.852 155.879 161.736 154.996 161.386 154.196C161.298 153.998 161.186 153.812 161.052 153.643C160.661 153.125 160.105 152.757 159.477 152.6C158.607 152.433 157.708 152.527 156.892 152.869L156.248 153.118L155.634 153.489C155.423 153.6 155.218 153.724 155.021 153.859L154.47 154.192C152.244 155.731 150.286 157.377 148.285 158.898C147.696 159.361 147.1 159.797 146.508 160.219L145.635 160.747C145.47 160.847 145.297 160.951 145.124 161.056C144.77 161.271 144.388 161.434 143.987 161.537C143.562 161.669 143.099 161.516 142.834 161.157C142.64 160.88 142.564 160.537 142.624 160.205C142.654 159.88 142.719 159.559 142.818 159.248L142.974 158.776L143.058 158.542L143.217 158.166C143.423 157.654 143.67 157.138 143.92 156.664C144.947 154.632 146.112 152.635 147.322 150.675C148.891 148.154 150.558 145.725 152.237 143.298C153.917 140.872 155.634 138.455 157.214 135.917C157.915 134.804 158.64 133.73 159.301 132.566C160.24 131.053 160.942 129.404 161.382 127.677C161.631 126.755 161.5 125.77 161.019 124.943C160.859 124.589 160.657 124.255 160.418 123.949C159.568 123.147 158.137 124.615 156.229 127.481C153.475 131.807 150.399 136.186 147.55 140.871C146.11 143.196 144.658 145.571 143.272 148.003C141.801 150.515 140.461 153.101 139.257 155.752L138.927 156.501L138.79 157.058L138.549 157.742C138.409 158.204 138.195 158.667 138.09 159.097L137.833 160.449L137.775 161.756C137.792 162.176 137.894 162.557 137.943 162.958C138.028 163.347 138.156 163.725 138.324 164.086L138.939 165.104L139.118 165.276C139.191 165.315 139.255 165.367 139.308 165.431L139.68 165.745C139.937 165.942 140.211 166.116 140.498 166.264C140.777 166.412 141.075 166.523 141.383 166.591C141.682 166.681 141.991 166.734 142.303 166.747C143.73 166.772 145.135 166.408 146.368 165.692C146.706 165.488 147.044 165.284 147.375 165.084L148.302 164.47L149.352 163.685C150.031 163.156 150.657 162.627 151.287 162.107L154.881 159.03C155.483 158.569 156.074 158.126 156.653 157.733L156.873 157.6L156.952 157.553L156.983 157.427Z" fill="#231F20"/>
</g>
<defs>
<clipPath id="clip0_1_27">
<rect width="196" height="196" fill="white" transform="matrix(-0.855947 0.517063 0.517063 0.855947 167.766 0)"/>
</clipPath>
</defs>
</svg>
