<svg width="191" height="150" viewBox="0 0 191 150" fill="none" xmlns="http://www.w3.org/2000/svg">
<path d="M131.017 137.426C127.831 134.823 124.487 132.394 121.063 130.079C114.113 125.38 106.789 121.179 99.3862 117.109C95.4931 114.967 91.4503 113.03 87.459 111.037C83.4678 109.043 79.4166 107.04 75.3904 105.061C71.711 103.246 68.0332 101.428 64.3571 99.6068C56.0068 71.3625 46.9391 39.3427 48.74 39.3427L185.642 35.4755C188.865 35.4755 191.027 38.0986 190.461 41.3229L173.872 135.977C173.306 139.201 170.225 141.826 167.001 141.826H136.542C134.74 140.31 132.839 138.913 131.017 137.426Z" fill="black"/>
<path d="M44.832 35.8071H182.811C185.857 35.8071 187.893 38.277 187.358 41.3231L170.769 135.977C170.235 139.025 167.332 141.495 164.288 141.495H26.3171C23.2712 141.495 21.2357 139.025 21.77 135.977L38.3591 41.3231C38.885 38.277 41.7961 35.8071 44.832 35.8071Z" fill="#FFF9E4"/>
<path d="M171.051 134.755H170.986C170.889 134.737 170.804 134.682 170.748 134.602C170.692 134.522 170.67 134.423 170.686 134.327L186.987 41.2648C187.23 39.8842 186.919 38.6001 186.113 37.6342C185.308 36.6682 184.149 36.1802 182.803 36.1802H178.61C178.517 36.1739 178.429 36.1323 178.365 36.0639C178.301 35.9954 178.266 35.9051 178.266 35.8113C178.266 35.7176 178.301 35.6273 178.365 35.5588C178.429 35.4903 178.517 35.4487 178.61 35.4424H182.81C184.377 35.4424 185.754 36.0537 186.683 37.1612C187.611 38.2687 188.001 39.7942 187.72 41.3931L171.418 134.455C171.402 134.54 171.357 134.617 171.289 134.672C171.222 134.727 171.137 134.756 171.051 134.755Z" fill="black"/>
<path d="M31.1291 82.6693H31.0642C30.9681 82.6522 30.8826 82.5978 30.8265 82.5179C30.7704 82.438 30.7481 82.3392 30.7646 82.2429L37.9898 41.2646C38.5523 38.0537 41.6215 35.4356 44.8321 35.4356H74.4302C74.4807 35.4322 74.5314 35.4392 74.5791 35.4562C74.6268 35.4732 74.6704 35.4998 74.7074 35.5344C74.7444 35.569 74.7738 35.6108 74.794 35.6573C74.8141 35.7037 74.8245 35.7538 74.8245 35.8045C74.8245 35.8551 74.8141 35.9052 74.794 35.9517C74.7738 35.9981 74.7444 36.04 74.7074 36.0745C74.6704 36.1091 74.6268 36.1358 74.5791 36.1528C74.5314 36.1698 74.4807 36.1768 74.4302 36.1734H44.8321C41.9627 36.1734 39.2181 38.505 38.7138 41.3862L31.4902 82.3645C31.4754 82.4497 31.4311 82.5269 31.365 82.5826C31.299 82.6383 31.2155 82.669 31.1291 82.6693Z" fill="black"/>
<path d="M4.5334 141.544H164.982C167.121 141.544 168.86 143.313 168.86 145.585C168.86 147.857 167.121 149.625 164.982 149.625H4.5334C2.39297 149.625 0.655334 147.862 0.655334 145.585C0.655334 143.308 2.39297 141.544 4.5334 141.544Z" fill="#FFF9E4"/>
<path d="M164.989 150H4.54015C2.16005 150 0.29425 148.063 0.29425 145.592C0.29425 143.12 2.16005 141.182 4.54015 141.182H164.989C167.371 141.182 169.235 143.118 169.235 145.592C169.235 148.065 167.371 150 164.989 150ZM4.54015 141.919C2.57282 141.919 1.03158 143.531 1.03158 145.592C1.03158 147.652 2.57282 149.256 4.54015 149.256H164.989C166.958 149.256 168.499 147.643 168.499 145.592C168.499 143.54 166.958 141.919 164.989 141.919H4.54015Z" fill="black"/>
<path d="M48.2341 39.453H178.629C181.506 39.453 183.43 41.753 182.924 44.5892L167.246 132.718C166.746 135.549 163.998 137.854 161.121 137.854H30.7262C27.8484 137.854 25.9244 135.554 26.4287 132.718L42.109 44.6009C42.6133 41.7563 45.3563 39.453 48.2341 39.453Z" fill="#FFF9E4"/>
<path d="M161.121 138.214H30.7262C29.2282 138.214 27.91 137.634 27.0279 136.578C26.1458 135.522 25.8029 134.127 26.0675 132.645L41.7462 44.5275C42.2788 41.5297 45.1899 39.0865 48.2374 39.0865H178.632C180.13 39.0865 181.446 39.6678 182.33 40.722C183.214 41.7762 183.555 43.1752 183.291 44.6575L167.612 132.774C167.074 135.774 164.165 138.214 161.121 138.214ZM48.2341 39.8243C45.5294 39.8243 42.9446 41.9894 42.4703 44.6541L26.7915 132.771C26.5668 134.034 26.8515 135.218 27.5921 136.102C28.3328 136.986 29.4463 137.474 30.7262 137.474H161.121C163.824 137.474 166.409 135.309 166.883 132.645L182.563 44.5275C182.788 43.2651 182.503 42.081 181.763 41.1967C181.022 40.3123 179.909 39.8243 178.629 39.8243H48.2341Z" fill="black"/>
<path d="M182.244 48.7876H41.4349C41.381 48.7876 41.3278 48.7759 41.2789 48.7532C41.23 48.7304 41.1867 48.6973 41.152 48.656C41.1172 48.6148 41.092 48.5664 41.0782 48.5143C41.0644 48.4622 41.0623 48.4076 41.0721 48.3546L41.7528 44.5357C42.2854 41.5379 45.1965 39.103 48.244 39.103H178.627C180.125 39.103 181.446 39.6826 182.329 40.7368C183.211 41.791 183.552 43.185 183.287 44.6656L182.606 48.4845C182.592 48.5697 182.547 48.647 182.48 48.7025C182.414 48.7579 182.33 48.7881 182.244 48.7876ZM41.8677 48.0515H181.939L182.567 44.5357C182.79 43.275 182.507 42.0942 181.768 41.2048C181.029 40.3155 179.913 39.8325 178.63 39.8325H48.234C45.5294 39.8325 42.9446 41.9976 42.4702 44.6623L41.8677 48.0515Z" fill="black"/>
<path d="M163.081 46.5377C162.543 46.5377 162.017 46.378 161.57 46.0788C161.122 45.7796 160.773 45.3544 160.567 44.8568C160.361 44.3592 160.307 43.8117 160.412 43.2835C160.517 42.7553 160.777 42.2701 161.157 41.8893C161.538 41.5085 162.023 41.2491 162.551 41.1441C163.078 41.039 163.626 41.0929 164.123 41.299C164.62 41.5051 165.045 41.8541 165.344 42.3019C165.643 42.7497 165.803 43.2762 165.803 43.8147C165.801 44.5365 165.514 45.2284 165.004 45.7387C164.494 46.2491 163.803 46.5364 163.081 46.5377ZM163.081 41.8279C162.689 41.8279 162.305 41.9444 161.978 42.1627C161.652 42.381 161.397 42.6913 161.247 43.0544C161.097 43.4175 161.057 43.8169 161.134 44.2024C161.211 44.5878 161.4 44.9418 161.677 45.2197C161.955 45.4975 162.309 45.6868 162.694 45.7634C163.079 45.8401 163.478 45.8008 163.841 45.6504C164.204 45.5 164.514 45.2453 164.732 44.9186C164.951 44.5919 165.067 44.2077 165.067 43.8147C165.067 43.2879 164.857 42.7828 164.485 42.4103C164.113 42.0378 163.608 41.8283 163.081 41.8279Z" fill="black"/>
<path d="M169.587 46.6757C169.049 46.676 168.523 46.5166 168.075 46.2176C167.627 45.9186 167.278 45.4934 167.072 44.9959C166.866 44.4984 166.812 43.9508 166.917 43.4225C167.021 42.8942 167.28 42.4088 167.661 42.0278C168.041 41.6468 168.526 41.3873 169.054 41.2821C169.582 41.1769 170.129 41.2307 170.627 41.4368C171.124 41.6428 171.549 41.9919 171.848 42.4397C172.147 42.8875 172.307 43.4141 172.307 43.9527C172.306 44.6743 172.019 45.3661 171.51 45.8766C171 46.387 170.309 46.6744 169.587 46.6757ZM169.587 41.9675C169.195 41.9675 168.811 42.0839 168.485 42.302C168.159 42.5202 167.905 42.8302 167.755 43.193C167.604 43.5557 167.565 43.9549 167.642 44.34C167.718 44.7251 167.907 45.0788 168.185 45.3564C168.462 45.6341 168.816 45.8231 169.2 45.8997C169.585 45.9763 169.984 45.937 170.347 45.7868C170.709 45.6365 171.019 45.3821 171.237 45.0556C171.455 44.7292 171.571 44.3453 171.571 43.9527C171.571 43.4263 171.362 42.9216 170.99 42.5494C170.618 42.1772 170.114 41.9679 169.587 41.9675Z" fill="black"/>
<path d="M175.947 46.6757C175.409 46.6757 174.883 46.516 174.435 46.2168C173.988 45.9176 173.639 45.4923 173.433 44.9947C173.227 44.4972 173.173 43.9497 173.278 43.4215C173.383 42.8932 173.642 42.4081 174.023 42.0272C174.403 41.6464 174.888 41.3871 175.416 41.282C175.944 41.1769 176.491 41.2309 176.989 41.437C177.486 41.6431 177.911 41.9921 178.21 42.4399C178.509 42.8877 178.668 43.4141 178.668 43.9527C178.668 44.6746 178.381 45.3667 177.87 45.8772C177.36 46.3876 176.669 46.6748 175.947 46.6757ZM175.947 41.9658C175.555 41.9681 175.172 42.0867 174.847 42.3065C174.522 42.5264 174.269 42.8377 174.121 43.2012C173.972 43.5646 173.935 43.9639 174.013 44.3486C174.091 44.7334 174.282 45.0863 174.56 45.3629C174.839 45.6394 175.193 45.8272 175.578 45.9026C175.963 45.9779 176.362 45.9375 176.724 45.7862C177.086 45.635 177.395 45.3798 177.612 45.0529C177.829 44.726 177.945 44.342 177.944 43.9494C177.944 43.6878 177.892 43.4289 177.791 43.1876C177.69 42.9462 177.543 42.7272 177.357 42.5429C177.172 42.3587 176.952 42.2129 176.71 42.1138C176.468 42.0148 176.209 41.9645 175.947 41.9658Z" fill="black"/>
<path d="M159.846 132.171L32.9315 132.814L47.9311 53.151L174.707 53.3092L159.846 132.171Z" fill="#FFF9E4"/>
<path d="M32.9316 133.182C32.8774 133.182 32.8238 133.171 32.7747 133.148C32.7256 133.125 32.6821 133.091 32.6475 133.05C32.6128 133.008 32.5878 132.959 32.5741 132.907C32.5605 132.854 32.5587 132.799 32.5688 132.746L47.5684 53.0826C47.5846 52.9982 47.6297 52.9222 47.6959 52.8675C47.7622 52.8127 47.8453 52.7828 47.9312 52.7828L174.707 52.9494C174.761 52.9497 174.815 52.9617 174.863 52.9847C174.912 53.0077 174.956 53.0411 174.99 53.0826C175.025 53.1241 175.05 53.1729 175.064 53.2253C175.077 53.2778 175.079 53.3326 175.068 53.3857L160.207 132.248C160.192 132.332 160.147 132.408 160.082 132.463C160.016 132.518 159.933 132.549 159.848 132.549L32.9333 133.191L32.9316 133.182ZM48.2441 53.5206L33.3843 132.443L159.546 131.805L174.27 53.6772L48.2441 53.5206Z" fill="black"/>
<mask id="mask0_1_269" style="mask-type:luminance" maskUnits="userSpaceOnUse" x="32" y="0" width="158" height="133">
<path d="M159.846 132.171L32.9315 132.814L39.1015 0L181.433 0.531288L189.783 22.0788L159.846 132.171Z" fill="white"/>
</mask>
<g mask="url(#mask0_1_269)">
<path d="M115.146 95.3517L76.8136 92.8369C76.8136 92.8369 53.8781 142.915 65.727 186.302C72.6126 211.508 77.7706 224.291 79.8295 228.937C80.1039 229.558 80.5583 230.081 81.1338 230.44C81.7093 230.799 82.3793 230.976 83.0568 230.949L89.4997 230.701C89.9527 230.683 90.3977 230.575 90.8081 230.382C91.2186 230.19 91.5862 229.917 91.8892 229.579C92.1922 229.242 92.4244 228.847 92.572 228.418C92.7196 227.989 92.7797 227.534 92.7486 227.082C91.7233 212.326 87.9984 155.439 91.0426 149.114C91.0426 149.114 92.4823 191.536 133.541 211.33C134.054 211.577 134.633 211.649 135.19 211.535C135.747 211.42 136.251 211.125 136.624 210.695L141.118 205.499C141.472 205.092 141.689 204.583 141.739 204.045C141.789 203.507 141.669 202.967 141.396 202.501C135.392 192.214 103.075 134.2 115.146 95.3517Z" fill="black"/>
<path d="M126.726 51.9653C124.156 50.0147 121.177 48.6725 118.014 48.0398L112.508 46.2944C107.544 44.7191 102.315 44.1471 97.1274 44.6117C91.9396 45.0763 86.8959 46.5682 82.2895 49.0008L64.8814 75.0716C64.6363 75.4382 64.491 75.8625 64.4599 76.3024C64.4288 76.7424 64.513 77.1829 64.7041 77.5803C64.8952 77.9778 65.1867 78.3184 65.5497 78.5687C65.9127 78.8189 66.3346 78.97 66.7739 79.0071L74.1988 79.6383C74.5318 79.6667 74.8557 79.762 75.151 79.9185C75.4464 80.075 75.7072 80.2894 75.9179 80.549C76.1286 80.8087 76.2848 81.1081 76.3772 81.4295C76.4696 81.7509 76.4963 82.0876 76.4557 82.4196C76.2704 83.931 76.3939 85.4643 76.8186 86.9266C77.2433 88.3888 77.9604 89.7495 78.9265 90.9261C79.8925 92.1027 81.0873 93.0707 82.4385 93.7713C83.7896 94.4719 85.269 94.8907 86.7867 95.002L134.126 98.4728C134.126 98.4728 134.267 54.2552 126.726 51.9653Z" fill="#FFF9E4"/>
<path d="M98.1346 74.6554C98.0642 74.655 97.9955 74.6343 97.9365 74.596C97.8775 74.5576 97.8307 74.5031 97.8017 74.4389C95.638 69.6607 95.6147 64.4462 95.6147 64.2264C95.621 64.1328 95.6626 64.0452 95.731 63.9811C95.7994 63.9171 95.8896 63.8815 95.9833 63.8815C96.0771 63.8815 96.1673 63.9171 96.2357 63.9811C96.3042 64.0452 96.3457 64.1328 96.352 64.2264C96.352 64.2797 96.3787 69.5059 98.4741 74.1358C98.4998 74.1916 98.5111 74.2531 98.5068 74.3144C98.5026 74.3757 98.483 74.435 98.4498 74.4867C98.4166 74.5385 98.371 74.5811 98.3171 74.6106C98.2632 74.64 98.2027 74.6555 98.1413 74.6554H98.1346Z" fill="black"/>
<path d="M100.282 178.464C92.156 178.464 84.6362 177.397 80.2039 174.229C79.9922 174.08 79.831 173.869 79.7418 173.626C79.6526 173.383 79.6396 173.118 79.7046 172.867C82.7005 161.745 108.998 64.0266 112.435 57.6746C116.047 50.9879 123.264 47.9351 123.57 47.8069C123.653 47.7733 123.745 47.7704 123.83 47.7985C123.926 47.8318 133.576 51.231 135.206 62.1064C135.461 63.7951 135.788 65.7704 136.136 67.8755C138.077 79.5902 140.735 95.6318 137.499 101.504C136.088 104.064 133.232 104.9 130.712 105.636C128.325 106.336 126.265 106.938 125.867 108.769C125.494 110.483 123.498 126.346 126.005 141.778C128.097 154.665 132.954 167.153 134.945 171.923C135.053 172.182 135.102 172.462 135.09 172.743C135.077 173.024 135.002 173.299 134.871 173.548C134.74 173.797 134.556 174.013 134.332 174.183C134.107 174.352 133.848 174.47 133.573 174.527C127.679 175.76 113.216 178.464 100.282 178.464ZM123.73 48.5446C122.731 48.991 116.317 52.0537 113.091 58.0244C110.336 63.124 91.2606 132.731 80.4236 173.058C80.3954 173.164 80.4004 173.275 80.4379 173.377C80.4755 173.48 80.5437 173.568 80.6333 173.63C92.1577 181.874 126.638 175.223 133.432 173.806C133.601 173.772 133.761 173.7 133.899 173.597C134.038 173.493 134.152 173.36 134.232 173.207C134.313 173.054 134.358 172.885 134.366 172.712C134.373 172.539 134.341 172.367 134.274 172.207C132.277 167.413 127.39 154.86 125.286 141.896C122.761 126.354 124.787 110.344 125.155 108.612C125.654 106.354 128.011 105.663 130.514 104.93C133.017 104.197 135.597 103.441 136.862 101.148C139.974 95.5002 137.231 78.949 135.417 68.0054C135.069 65.9036 134.74 63.9184 134.487 62.2246C133.024 52.4601 124.865 48.9827 123.73 48.5446Z" fill="black"/>
<path d="M97.8301 44.006C97.8509 43.9585 97.859 43.9063 97.8534 43.8546C97.8479 43.803 97.829 43.7537 97.7985 43.7116C97.7681 43.6695 97.7272 43.6362 97.6799 43.6148C97.6326 43.5934 97.5805 43.5847 97.5288 43.5897C95.2303 43.7995 84.901 45.7547 80.943 49.5403C65.0546 64.7658 63.7081 58.7003 58.3221 64.0913C57.1753 65.2388 52.1272 73.9274 56.0319 78.9138C59.6486 83.5304 70.0795 82.8309 73.5265 80.6691C73.5655 80.6442 73.6115 80.6325 73.6577 80.6358C73.7039 80.6391 73.7478 80.6574 73.7828 80.6877C73.8178 80.7181 73.8421 80.7589 73.852 80.8042C73.8619 80.8495 73.8569 80.8967 73.8377 80.9389C71.5242 86.0019 59.2176 113.433 57.9177 126.61C56.721 138.725 54.9034 152.147 54.3275 156.304C54.2781 156.662 54.3634 157.027 54.567 157.326C54.7705 157.625 55.0778 157.838 55.4294 157.924C58.2056 158.604 64.8449 160.108 68.8944 160.053L73.6862 160.068C74.0583 160.069 74.4169 159.928 74.6892 159.675C74.9615 159.421 75.1272 159.073 75.1526 158.702C75.8783 147.733 81.1112 74.1273 91.7168 55.7374C95.9344 48.4245 97.4423 44.9304 97.8301 44.006Z" fill="#FFF9E4"/>
<path d="M73.6912 160.436L68.8994 160.421C64.8083 160.481 58.0574 158.945 55.3495 158.282C54.9094 158.175 54.5249 157.908 54.27 157.533C54.0152 157.159 53.9082 156.703 53.9697 156.254C54.5073 152.368 56.3564 138.747 57.5581 126.576C58.828 113.71 70.4756 87.4577 73.31 81.2206C69.3255 83.309 59.3174 83.6971 55.7489 79.1404C51.6894 73.9576 56.924 64.9841 58.0674 63.8317C60.1563 61.7415 61.6592 61.3168 63.56 60.7789C66.6258 59.9129 70.8268 58.7254 80.69 49.274C84.6513 45.4784 94.939 43.4566 97.5005 43.2218C97.6153 43.2122 97.7305 43.2326 97.835 43.281C97.9395 43.3293 98.0297 43.4039 98.0967 43.4975C98.1638 43.5912 98.2055 43.7006 98.2177 43.8151C98.2299 43.9297 98.2122 44.0454 98.1663 44.1511C97.5005 45.7216 95.8361 49.339 92.0313 55.9225C81.3791 74.3939 76.0846 150.15 75.5154 158.727C75.4842 159.19 75.2785 159.624 74.9399 159.941C74.6013 160.258 74.155 160.435 73.6912 160.436ZM68.8894 159.683L73.6879 159.7C73.9661 159.7 74.2341 159.595 74.4377 159.405C74.6413 159.215 74.7653 158.955 74.7847 158.677C75.7134 144.656 80.8831 73.7844 91.3971 55.5544C95.0921 49.1458 96.7632 45.575 97.4473 43.9679C94.7676 44.2427 84.9642 46.1996 81.1977 49.8069C71.2112 59.3849 66.9004 60.6007 63.758 61.4884C61.8856 62.0163 60.5341 62.3994 58.5817 64.3529C57.5032 65.4305 52.5483 73.8693 56.3215 78.6858C59.7368 83.0459 69.9546 82.4763 73.33 80.3512C73.4361 80.2838 73.5611 80.2525 73.6863 80.2619C73.8116 80.2714 73.9305 80.3212 74.0252 80.4038C74.1199 80.4864 74.1854 80.5974 74.2119 80.7203C74.2384 80.8432 74.2245 80.9713 74.1722 81.0857C71.7455 86.3984 59.5754 113.562 58.2838 126.641C57.0821 138.825 55.2313 152.455 54.6937 156.347C54.6558 156.617 54.7202 156.891 54.8742 157.116C55.0282 157.341 55.2607 157.499 55.5259 157.561C58.1972 158.222 64.8682 159.741 68.8894 159.683Z" fill="black"/>
<path d="M89.9224 90.5486C88.5209 90.3821 89.175 91.5479 90.3351 92.3656C91.1956 92.9785 92.3241 93.4432 92.9665 93.6813C92.9884 93.6821 93.0099 93.6872 93.0298 93.6962C93.0497 93.7053 93.0676 93.7182 93.0825 93.7342C93.0974 93.7502 93.1091 93.769 93.1167 93.7895C93.1244 93.81 93.1279 93.8318 93.1272 93.8537C93.1264 93.8756 93.1213 93.8971 93.1123 93.917C93.1032 93.9369 93.0903 93.9548 93.0743 93.9698C93.0583 93.9847 93.0395 93.9963 93.019 94.004C92.9985 94.0116 92.9768 94.0152 92.9549 94.0144C85.4534 96.0563 87.7287 101.009 87.7287 101.009C89.5445 104.75 100.603 100.808 102.272 100.663C103.569 100.551 113.447 106.459 113.447 106.459C118.003 109.558 123.731 111.622 127.779 112.692C136.071 114.874 134.022 101.794 134.126 98.4712C134.126 98.4712 111.36 96.7424 102.207 94.3442C101.006 94.0208 99.8518 93.5445 98.772 92.9269C97.5237 92.2241 94.9222 91.1699 89.9224 90.5486Z" fill="#FFF9E4"/>
<path d="M129.499 113.305C128.886 113.298 128.277 113.213 127.686 113.05C125.135 112.384 118.618 110.424 113.241 106.765C108.452 103.902 103.04 100.986 102.304 101.033C101.625 101.151 100.952 101.306 100.29 101.497C96.3337 102.515 88.972 104.41 87.3975 101.164C87.1488 100.556 87.0266 99.9043 87.0383 99.2477C87.05 98.5911 87.1955 97.9438 87.4657 97.3453C88.2047 95.7665 89.8308 94.5774 92.3041 93.8096C91.5372 93.5057 90.8056 93.1193 90.1221 92.6571C89.3598 92.1142 88.5576 91.2548 88.8056 90.6153C88.9038 90.3605 89.185 90.0773 89.9706 90.1756C94.9389 90.7918 97.5986 91.841 98.9584 92.5988C100.01 93.2014 101.135 93.666 102.306 93.9811C111.322 96.3428 133.929 98.0798 134.157 98.0965C134.251 98.1057 134.337 98.1501 134.399 98.2206C134.46 98.2911 134.493 98.3824 134.49 98.4762C134.475 98.9608 134.508 99.6836 134.547 100.52C134.713 104.117 134.989 110.138 132.19 112.401C131.427 113.01 130.474 113.33 129.499 113.305ZM102.291 100.295C103.789 100.295 111.989 105.158 113.637 106.144C118.938 109.75 125.358 111.677 127.873 112.338C129.517 112.771 130.779 112.607 131.731 111.838C134.239 109.808 133.973 104.022 133.814 100.563C133.783 99.8968 133.756 99.2906 133.753 98.8159C130.86 98.5861 110.578 96.9223 102.114 94.7039C100.882 94.3723 99.698 93.8837 98.5906 93.25C97.2924 92.5172 94.7259 91.518 89.8758 90.9184C89.7514 90.8957 89.624 90.8957 89.4996 90.9184C89.5396 91.0849 89.8408 91.5629 90.5499 92.0676C91.3821 92.6605 92.5022 93.1168 93.0947 93.3366C93.2029 93.377 93.2955 93.4507 93.3592 93.547C93.4229 93.6434 93.4544 93.7575 93.4493 93.8729C93.4445 93.9876 93.4034 94.0979 93.3319 94.1877C93.2604 94.2775 93.1622 94.3422 93.0515 94.3725C90.4849 95.072 88.8289 96.1812 88.1332 97.6718C87.9095 98.1721 87.788 98.7122 87.776 99.2602C87.764 99.8082 87.8617 100.353 88.0632 100.863C89.3698 103.551 96.6216 101.685 100.107 100.788C101.127 100.525 101.866 100.335 102.241 100.303L102.291 100.295Z" fill="black"/>
<path d="M86.4306 38.2869C85.5884 38.8265 84.9808 39.3545 84.7145 40.2072L81.8418 54.6083C81.2968 57.38 80.5644 60.1115 79.6498 62.7839C77.3762 69.3475 74.808 73.0214 68.926 75.5762L64.9797 77.29C64.3639 77.557 63.6673 77.5684 63.0431 77.3217C62.4189 77.075 61.9181 76.5903 61.6509 75.9743L61.0783 74.6569C60.3384 72.9495 59.9686 71.1046 59.9933 69.2438C60.018 67.383 60.4365 65.5486 61.2215 63.8615L61.6009 63.0454C62.7978 60.4745 64.2634 58.0377 65.9733 55.7757L78.5047 39.2146C78.5729 39.1113 78.6378 39.0047 78.6994 38.8981C79.5985 37.2931 80.0932 35.493 80.1408 33.6536L80.2023 31.2221C80.2772 28.2876 81.1843 26.1808 83.7741 24.0207C84.6463 23.2929 89.3499 19.9137 90.9144 23.4561C91.5103 24.8035 89.4831 26.0009 90.1039 26.6638C90.5799 27.1734 92.965 24.7785 94.0585 26.3307C94.6011 27.0984 94.1734 27.9162 94.0419 28.146C93.4693 29.1569 92.8768 29.112 92.2576 30.0329C91.6385 30.9539 90.5932 32.293 89.8409 34.1966C89.0886 36.1002 89.3299 36.3616 87.8436 37.5907C87.5673 37.8156 86.7834 38.0637 86.4306 38.2869Z" fill="#FFF9E4"/>
<path d="M63.971 77.8729C63.6064 77.8722 63.2451 77.8033 62.9058 77.6697C62.5508 77.5305 62.227 77.3223 61.953 77.057C61.679 76.7917 61.4603 76.4746 61.3096 76.1242L60.7371 74.8068C59.9767 73.0518 59.5967 71.1554 59.6219 69.2427C59.6472 67.33 60.0771 65.4443 60.8835 63.71L61.263 62.8939C62.4719 60.3023 63.9515 57.8459 65.677 55.5659L78.2067 39.0031C78.2566 38.9265 78.3182 38.8365 78.3731 38.7283C79.2407 37.1756 79.7188 35.4353 79.7662 33.657L79.8295 31.2255C79.911 28.0411 80.9846 25.8744 83.5344 23.7493C83.5661 23.721 86.8483 21.0179 89.2999 21.5842C90.1754 21.789 90.8312 22.3703 91.2473 23.3129C91.6501 24.2256 91.1091 25.055 90.7147 25.6595C90.5482 25.9044 90.3435 26.2275 90.3502 26.3674C90.6101 26.2846 90.8619 26.1781 91.1025 26.0493C92.0529 25.5896 93.4892 24.8951 94.3547 26.1225C94.7975 26.7487 94.7975 27.5548 94.3547 28.3342C94.1001 28.7815 93.7493 29.1666 93.3278 29.4618C93.0248 29.6726 92.763 29.9374 92.5555 30.2428C92.4473 30.4094 92.3258 30.5759 92.1943 30.7708C91.5951 31.6302 90.7779 32.8093 90.1754 34.3365C90.009 34.7762 89.8841 35.1193 89.7809 35.4241C89.4481 36.4233 89.2816 36.8763 88.0616 37.8806C87.8032 38.058 87.5236 38.2024 87.2294 38.3103C87.02 38.3934 86.8164 38.4908 86.6202 38.6017C85.8363 39.1014 85.3004 39.5643 85.0623 40.3038L82.1946 54.6866C81.6459 57.4741 80.9091 60.2211 79.9892 62.9089C77.8555 69.071 75.3838 73.1747 69.0641 75.9193L65.1178 77.6331C64.7559 77.7906 64.3656 77.8722 63.971 77.8729ZM88.5676 22.247C86.8799 22.247 84.7561 23.691 84.0071 24.3155C81.6087 26.3141 80.6433 28.2576 80.5668 31.2438L80.5052 33.6753C80.4552 35.5741 79.9445 37.4323 79.0172 39.0897C78.9523 39.2046 78.8824 39.3178 78.8092 39.4228L66.2629 56.0023C64.5702 58.243 63.1196 60.657 61.9354 63.2037L61.5543 64.0214C60.792 65.6613 60.3855 67.4443 60.3617 69.2527C60.3379 71.0612 60.6973 72.8543 61.4161 74.5137L61.9887 75.8311C62.1018 76.0921 62.2652 76.3282 62.4696 76.526C62.674 76.7238 62.9153 76.8793 63.1798 76.9837C63.4442 77.0881 63.7267 77.1394 64.011 77.1345C64.2952 77.1296 64.5758 77.0687 64.8365 76.9553L68.7828 75.2415C74.8529 72.6051 77.238 68.633 79.3052 62.6657C80.2139 60.0095 80.9417 57.2947 81.4839 54.54L84.3566 40.1373C84.3557 40.1245 84.3557 40.1117 84.3566 40.099C84.6579 39.1397 85.322 38.5584 86.2274 37.9788C86.4563 37.8454 86.695 37.7296 86.9415 37.6324C87.1691 37.5454 87.3881 37.4372 87.5956 37.3093C88.6558 36.4383 88.7607 36.1435 89.0836 35.1842C89.1851 34.8878 89.3099 34.518 89.4897 34.065C90.1238 32.4562 90.971 31.2338 91.5885 30.3478C91.7183 30.1612 91.8382 29.9897 91.943 29.8315C92.1956 29.4597 92.5123 29.136 92.8784 28.8755C93.2218 28.6409 93.5066 28.3304 93.7106 27.9679C93.922 27.5948 94.0984 27.0452 93.7472 26.5456C93.2779 25.8794 92.4506 26.2125 91.4171 26.7121C90.7513 27.0319 90.1871 27.3083 89.8226 26.9203C89.3415 26.4057 89.7393 25.7944 90.0905 25.2548C90.4417 24.7152 90.8079 24.1556 90.5665 23.6094C90.2436 22.8799 89.7726 22.4519 89.1252 22.3003C88.9418 22.2582 88.7541 22.2375 88.5659 22.2387L88.5676 22.247Z" fill="black"/>
<path d="M38.89 31.3535C38.8377 31.3536 38.7859 31.3426 38.7381 31.3212C38.6904 31.2998 38.6477 31.2684 38.6131 31.2291C38.5784 31.1898 38.5525 31.1437 38.5371 31.0936C38.5217 31.0435 38.5172 30.9907 38.5238 30.9388L40.9639 12.0593C40.9712 12.0065 40.9898 11.9559 41.0186 11.9111C41.0473 11.8662 41.0854 11.8281 41.1303 11.7995C41.1739 11.7705 41.2231 11.751 41.2748 11.7424C41.3264 11.7338 41.3793 11.7362 41.4299 11.7495L91.883 25.193C91.9555 25.2124 92.0204 25.2534 92.0691 25.3105C92.1178 25.3676 92.1481 25.4381 92.156 25.5128C92.1634 25.5872 92.1479 25.6622 92.1116 25.7277C92.0754 25.7931 92.02 25.846 91.9529 25.8791C91.5002 26.1056 91.1474 26.2772 90.8577 26.4187C89.9993 26.8074 89.1866 27.29 88.4344 27.8577L87.8052 28.2957C87.7496 28.3344 87.6847 28.3574 87.6172 28.3623L38.925 31.3601L38.89 31.3535ZM41.6296 12.5706L39.3095 30.5907L87.4557 27.6279L87.9983 27.2481C88.7818 26.6572 89.628 26.1546 90.5215 25.7492L90.7329 25.646L41.6296 12.5706Z" fill="black"/>
<path d="M124.131 17.8135C123.337 16.223 121.348 15.825 120.156 14.6309C119.757 14.2328 120.056 13.8331 120.456 13.4351C119.9 12.4286 119.2 11.5085 118.379 10.7037L118.314 10.6388C116.846 9.20715 115.027 8.18795 113.04 7.68388C111.053 7.17981 108.968 7.20866 106.996 7.76756L99.9421 9.76609C99.1345 9.9948 98.3944 10.4164 97.7856 10.9945C97.1767 11.5727 96.7173 12.2902 96.4469 13.0853C96.2761 13.5892 96.2351 14.1281 96.3276 14.6521C96.4201 15.1761 96.6432 15.6683 96.9762 16.0831L110.791 33.2372C112.779 33.0177 114.674 32.2747 116.282 31.084C117.89 29.8933 119.154 28.2974 119.945 26.4588L121.009 23.9857C121.821 22.0949 122.131 20.026 121.907 17.9801L123.272 18.8811C123.821 18.7728 124.316 18.5463 124.131 17.8135Z" fill="black"/>
<path d="M187.731 22.6084L169.29 16.7344C163.777 14.9799 158.668 12.1496 154.255 8.40714C151.657 6.20266 148.476 4.79808 145.097 4.36305C141.718 3.92802 138.286 4.48114 135.214 5.95561C128.688 9.08832 121.067 12.7623 118.77 13.9314C118.663 13.7016 118.542 13.4801 118.419 13.2653C118.059 13.625 117.788 13.9847 118.147 14.3428C119.224 15.4203 121.019 15.7801 121.736 17.2157C121.902 17.8819 121.456 18.0817 120.965 18.18L126.702 21.9672C131.084 24.8581 134.695 28.7731 137.225 33.3738C138.881 36.385 141.186 38.9899 143.972 41.0002C146.758 43.0104 149.956 44.3756 153.335 44.997L156.405 45.5616C156.474 45.5743 156.545 45.5634 156.607 45.5306C156.669 45.4978 156.717 45.445 156.745 45.381C156.773 45.3169 156.779 45.2452 156.761 45.1776C156.743 45.11 156.703 45.0505 156.647 45.0086C153.238 42.4482 150.53 39.0685 148.774 35.1825L157.532 39.969C162.792 42.8422 168.968 43.5376 174.734 41.9059L181.623 39.9524C181.688 39.9345 181.746 39.8956 181.788 39.8416C181.829 39.7875 181.851 39.7214 181.851 39.6534C181.851 39.5854 181.829 39.5193 181.788 39.4652C181.746 39.4112 181.688 39.3723 181.623 39.3545L176.36 37.9338C172.072 36.7773 168.036 34.8347 164.456 32.2047C164.33 32.1127 164.236 31.9837 164.187 31.8356C164.137 31.6876 164.135 31.5278 164.181 31.3785C164.226 31.2292 164.317 31.0978 164.441 31.0027C164.565 30.9075 164.715 30.8532 164.871 30.8474L170.862 30.5992C176.098 30.3821 181.129 28.5027 185.226 25.2331L187.841 23.1463C187.884 23.1103 187.917 23.0632 187.936 23.0101C187.954 22.9569 187.958 22.8997 187.947 22.8445C187.936 22.7893 187.91 22.7381 187.872 22.6966C187.834 22.655 187.785 22.6245 187.731 22.6084Z" fill="black"/>
<path d="M112.623 21.2312C112.526 21.2681 112.423 21.2836 112.319 21.2766C112.216 21.2697 112.115 21.2405 112.024 21.191C111.932 21.1415 111.853 21.0729 111.791 20.9899C111.728 20.9069 111.685 20.8113 111.663 20.7099C111.22 18.6564 109.401 15.2889 106.933 14.238C103.77 12.8906 99.7957 13.2271 98.5157 15.5853C97.4006 17.6438 97.865 19.0828 94.9489 21.491C94.6693 21.7208 94.7908 22.1922 95.0371 22.457L96.3254 23.9958C96.6017 24.2939 96.7298 25.1517 96.6982 25.5564C96.5983 26.8088 96.2854 29.4535 96.6533 29.8682C97.3706 30.6759 101.59 31.1706 101.59 31.1706L102.891 43.1801C102.903 43.2883 102.893 43.3977 102.862 43.5019C102.83 43.606 102.778 43.7027 102.708 43.7861C102.638 43.8695 102.552 43.9379 102.456 43.9872C102.359 44.0365 102.253 44.0656 102.144 44.0728L97.7751 44.3759C97.7751 44.3759 100.322 49.7186 110.433 50.8428C116.896 51.5606 121.879 49.0691 121.879 49.0691C121.879 49.0691 110.268 43.9612 111.202 29.1104C111.212 28.9498 111.265 28.7947 111.354 28.6608C111.444 28.5269 111.567 28.4189 111.711 28.3476C112.835 27.7864 115.89 26.0926 115.819 23.8043C115.744 21.3761 114.045 20.7033 112.623 21.2312Z" fill="#FFF9E4"/>
<path d="M112.823 51.3425C112.011 51.343 111.2 51.2985 110.393 51.2092C100.195 50.0751 97.5505 44.759 97.4423 44.5341C97.4167 44.4798 97.4048 44.4201 97.4074 44.3601C97.4101 44.3001 97.4274 44.2417 97.4577 44.1898C97.488 44.138 97.5305 44.0944 97.5815 44.0627C97.6324 44.0309 97.6903 44.0121 97.7502 44.0078L102.119 43.7064C102.178 43.7024 102.236 43.6864 102.288 43.6595C102.341 43.6326 102.388 43.5953 102.426 43.5498C102.464 43.5042 102.493 43.4511 102.51 43.3938C102.528 43.3364 102.533 43.2762 102.525 43.2168L101.255 31.497C100.13 31.3521 97.0744 30.8941 96.3787 30.1097C96.0209 29.7083 96.0575 28.5742 96.2739 26.1859C96.2955 25.9411 96.3155 25.7163 96.3305 25.5197C96.3604 25.1467 96.2239 24.4205 96.0558 24.2407L94.7559 22.6868C94.6441 22.5661 94.5572 22.4246 94.5 22.2703C94.4429 22.116 94.4168 21.9519 94.423 21.7875C94.4287 21.6746 94.4576 21.564 94.5081 21.4629C94.5585 21.3617 94.6293 21.272 94.716 21.1996C96.645 19.6107 97.0295 18.4616 97.4373 17.2475C97.6317 16.6109 97.8846 15.9937 98.1929 15.4038C99.6326 12.7391 103.925 12.5509 107.076 13.8933C109.739 15.0224 111.57 18.5099 112.024 20.625C112.033 20.6736 112.053 20.7195 112.082 20.7598C112.111 20.8 112.148 20.8336 112.191 20.8582C112.236 20.8835 112.286 20.8985 112.338 20.902C112.39 20.9054 112.442 20.8973 112.49 20.8781C112.887 20.7169 113.316 20.6534 113.742 20.6928C114.168 20.7322 114.578 20.8734 114.938 21.1046C115.479 21.4694 116.134 22.2305 116.182 23.786C116.255 26.1276 113.519 27.8514 111.869 28.6708C111.783 28.7135 111.71 28.7781 111.656 28.8582C111.603 28.9383 111.571 29.031 111.565 29.1271C110.658 43.5349 121.909 48.6744 122.022 48.7244C122.086 48.753 122.14 48.7989 122.178 48.8569C122.217 48.9149 122.238 48.9826 122.24 49.0522C122.242 49.1218 122.224 49.1905 122.188 49.2504C122.153 49.3102 122.101 49.3588 122.039 49.3906C121.862 49.4888 118.088 51.3425 112.823 51.3425ZM98.4093 44.7007C99.3231 46.0114 102.507 49.5904 110.475 50.4764C114.055 50.8433 117.671 50.3507 121.024 49.0392C118.485 47.6086 110.039 41.8594 110.834 29.0871C110.849 28.8621 110.923 28.645 111.048 28.4574C111.173 28.2697 111.345 28.1182 111.546 28.0179C112.741 27.4217 115.514 25.8195 115.451 23.816C115.421 22.8317 115.103 22.1072 114.532 21.7225C114.269 21.558 113.969 21.4589 113.66 21.4334C113.35 21.4079 113.039 21.4568 112.751 21.576C112.604 21.6314 112.447 21.6542 112.29 21.643C112.133 21.6318 111.981 21.5868 111.843 21.511C111.706 21.4363 111.587 21.3329 111.494 21.2079C111.401 21.0828 111.336 20.9391 111.303 20.7865C110.892 18.8829 109.175 15.5937 106.788 14.5778C103.922 13.357 100.044 13.5419 98.8404 15.7619C98.5536 16.3146 98.3174 16.892 98.1347 17.4873C97.7136 18.748 97.2758 20.0521 95.1837 21.7758C95.1837 21.7758 95.1604 21.7941 95.157 21.8441C95.1613 21.9793 95.2146 22.1083 95.3068 22.2072L96.6084 23.7594C96.9912 24.1707 97.0977 25.17 97.0661 25.5914C97.0495 25.7845 97.0295 26.0127 97.0062 26.2575C96.9246 27.1652 96.7316 29.2936 96.938 29.6367C97.3591 30.1097 99.9339 30.6077 101.633 30.8025C101.717 30.8122 101.795 30.8507 101.854 30.9114C101.913 30.9721 101.949 31.0513 101.956 31.1356L103.258 43.1468C103.276 43.3043 103.262 43.4639 103.217 43.6159C103.171 43.7679 103.096 43.9089 102.994 44.0305C102.892 44.1521 102.767 44.2517 102.625 44.3231C102.484 44.3945 102.329 44.4363 102.171 44.4459L98.4093 44.7007Z" fill="black"/>
<path d="M57.2752 133.059C57.1777 133.059 57.0841 133.02 57.0151 132.951C56.9462 132.882 56.9074 132.789 56.9074 132.691C56.9074 132.593 56.9462 132.5 57.0151 132.431C57.0841 132.362 57.1777 132.323 57.2752 132.323L124.642 131.982C124.691 131.98 124.739 131.988 124.785 132.006C124.83 132.024 124.871 132.051 124.906 132.085C124.94 132.119 124.968 132.16 124.986 132.206C125.004 132.251 125.013 132.299 125.012 132.348C125.012 132.446 124.974 132.54 124.905 132.609C124.836 132.679 124.743 132.718 124.645 132.719L57.2786 133.052L57.2752 133.059Z" fill="black"/>
</g>
</svg>
