<svg width="105" height="85" viewBox="0 0 105 85" fill="none" xmlns="http://www.w3.org/2000/svg">
<g opacity="0.1">
<path d="M91.4667 50.7542C90.4457 49.923 89.6594 48.8424 89.1849 47.6184C88.9659 47.1552 88.8389 46.6544 88.8108 46.1434C88.912 44.5711 89.7591 43.1403 91.0927 42.2888C91.554 41.9913 91.9281 41.7062 92.3396 41.4336C92.7487 41.0489 93.2587 40.7869 93.811 40.6775C93.998 40.6775 94.3222 41.0741 94.5467 41.6071C94.7711 42.14 94.9207 42.8465 94.7212 43.0696C94.296 43.7435 93.7752 44.353 93.175 44.8792C92.8758 45.0155 93.175 45.3502 93.2623 45.437C93.2863 45.75 93.4289 46.0424 93.6613 46.255C94.2791 46.8763 95.1146 47.236 95.9931 47.2589C96.2335 47.2205 96.463 47.1318 96.6664 46.9987C96.8535 46.9119 97.0031 46.7756 97.1403 46.7136C97.2774 46.6516 97.24 46.5896 97.3024 46.5896C97.7157 47.0082 98.0531 47.4946 98.2999 48.0274L98.6615 48.5975C99.0692 49.1935 99.1444 49.9545 98.861 50.6178C98.686 51.0766 98.3778 51.4735 97.9757 51.7581C97.6327 52.026 97.2604 52.2547 96.8659 52.4398C96.1092 52.6324 95.3159 52.6324 94.5591 52.4398C93.4398 52.1326 92.3901 51.6151 91.4667 50.9153V50.7542Z" fill="#3C3C3C"/>
<path d="M5.3291 21.2678C5.12484 20.5548 4.9871 19.8245 4.91761 19.0864C4.91761 18.7145 4.91761 18.3427 4.91761 17.9709C4.90122 17.6045 4.93478 17.2376 5.01737 16.8802C5.04287 16.334 5.13499 15.793 5.29169 15.2689C5.9531 13.5707 7.13531 12.1224 8.67086 11.1291C8.99506 10.9184 9.26939 10.6706 9.59359 10.4722L10.5787 9.97646C11.3768 9.51499 12.2749 9.25141 13.1972 9.20801C13.4965 9.20801 13.5588 9.60463 13.4965 10.1128C13.4574 10.6435 13.2475 11.1476 12.8979 11.5506L12.4116 11.8852L12.0002 12.2818C11.7383 12.5545 11.4515 12.7652 11.2021 13.0131C10.9427 13.231 10.6677 13.4299 10.3792 13.608C10.1048 13.8063 9.88038 14.0418 9.58112 14.2525C9.27429 14.5272 9.03898 14.8717 8.89531 15.2565C8.77062 15.6655 8.68333 16.0621 8.55864 16.4959C8.35222 17.4226 8.35222 18.3829 8.55864 19.3095C8.60685 19.6075 8.69057 19.8987 8.80802 20.1771L8.95766 20.6109L9.1821 21.0075C9.59438 21.8552 10.2218 22.5814 11.0026 23.1146C11.3227 23.2763 11.662 23.3971 12.0126 23.474C12.3569 23.5157 12.6983 23.5778 13.0351 23.6599C13.1803 23.6726 13.3263 23.6726 13.4715 23.6599C14.0077 23.7591 14.1698 24.0194 14.2945 24.763C14.2945 24.9366 14.3693 25.1101 14.3943 25.2836C14.4864 25.8588 14.1076 26.4045 13.5339 26.523C13.0584 26.6985 12.557 26.7948 12.05 26.8081C11.529 26.8737 10.9998 26.8185 10.5038 26.647C10.0068 26.4766 9.52332 26.2694 9.05741 26.0273C8.63345 25.7422 8.19703 25.4323 7.81048 25.1101C6.66153 24.063 5.80275 22.7399 5.31663 21.2678H5.3291Z" fill="#3C3C3C"/>
<path d="M18.1101 25.3827C14.8907 27.4258 10.9401 27.9861 7.27433 26.9196C5.91865 26.5891 4.64552 25.9859 3.53356 25.1472C1.54664 23.5947 0.28515 21.3018 0.0421622 18.8012C-0.174516 16.4774 0.448805 14.1529 1.80033 12.2446C2.98013 10.6862 4.65375 9.56844 6.55112 9.07161C8.73728 8.43057 11.0784 8.55305 13.1848 9.41865C13.8082 9.69133 13.5963 10.026 12.9853 10.373C12.1583 10.8313 11.2847 11.2011 10.3792 11.4761C8.82501 11.7639 7.43886 12.6278 6.50124 13.893C6.21445 14.4384 5.86531 14.7978 5.61592 15.3556C5.33775 15.9295 5.1566 16.5451 5.07974 17.1776C5.02222 17.5923 5.05195 18.0143 5.16703 18.417C5.24466 18.8117 5.39245 19.1894 5.60345 19.5325C6.06065 20.2105 6.67689 20.7677 7.39903 21.1562C9.28912 22.1697 11.5308 22.3101 13.5339 21.5404C14.7928 21.0998 15.8737 20.2646 16.6138 19.1607C17.1431 18.3755 17.4292 17.4534 17.4368 16.5083C17.3549 15.5821 16.9064 14.7262 16.1899 14.1285C14.849 13.1435 13.2789 12.5124 11.6261 12.2942L10.5288 12.1826C10.0203 12.1591 9.52829 11.9961 9.10732 11.7116C8.77706 11.3454 8.51146 10.9264 8.32175 10.4722C8.222 10.2367 8.08484 10.026 8.01002 9.82767C7.88105 9.45241 7.97232 9.037 8.24694 8.74935C8.42157 8.50167 8.62684 8.27681 8.85793 8.08005C9.13339 7.86534 9.45969 7.7245 9.8056 7.67104C12.0947 7.14159 14.4871 7.25749 16.7136 8.00568C17.9803 8.41408 19.1361 9.10514 20.0927 10.026C21.241 11.0882 22.121 12.4046 22.6614 13.8683C23.0823 15.0603 23.2397 16.3286 23.1228 17.5866C23.0237 18.7181 22.7195 19.8224 22.225 20.8463C21.3469 22.7562 19.9581 24.3897 18.2099 25.5686L18.1101 25.3827Z" fill="#3C3C3C"/>
<path d="M45.318 43.3671C41.5365 43.6607 37.7984 42.4072 34.9685 39.8967C33.7925 38.9111 32.9088 37.6256 32.4123 36.1783C31.7733 33.8173 32.0678 31.3027 33.2353 29.1507C33.7247 28.2232 34.3187 27.3541 35.0059 26.5603C35.6973 25.8294 36.4714 25.1806 37.3128 24.6267C38.7513 23.6003 40.3779 22.8635 42.101 22.4577C44.3546 21.9342 46.7195 22.6206 48.3356 24.2673C48.797 24.7631 48.4229 25.0481 47.6997 25.3084C46.9764 25.5687 45.9041 25.9653 45.2058 26.1388L44.6946 26.2504L44.1709 26.4239C44.0233 26.4859 43.8814 26.5605 43.7469 26.647C43.5987 26.6865 43.4562 26.7448 43.3229 26.8205C42.7701 27.0844 42.251 27.4131 41.7768 27.7997C40.8086 28.6927 39.8888 29.636 39.0211 30.6256C38.5252 31.1756 38.2423 31.8829 38.223 32.6211C38.2366 33.1768 38.3956 33.7193 38.6844 34.1952C39.0564 34.816 39.6024 35.3157 40.2555 35.633C41.0982 36.0975 42.0196 36.4042 42.9738 36.5378C43.9295 36.7377 44.9258 36.5503 45.742 36.0172C46.278 35.5752 46.6219 34.9448 46.7021 34.2572C46.8594 33.3639 46.76 32.4445 46.4153 31.6048C45.9145 30.345 44.8923 29.3605 43.6097 28.9028C43.4957 28.8698 43.3746 28.8698 43.2606 28.9028C43.2606 28.9028 43.2606 28.9028 43.2606 28.7541C43.2693 28.7258 43.2693 28.6956 43.2606 28.6673C43.2727 28.5934 43.2727 28.5181 43.2606 28.4442C43.2003 28.1645 43.1039 27.8937 42.9738 27.6386C42.8242 27.3163 42.6371 26.9321 42.4376 26.5726C42.2612 26.2673 42.0654 25.9734 41.8516 25.6926C41.531 25.1772 41.4492 24.5495 41.6271 23.9698C41.8223 22.9677 42.6836 22.2295 43.7095 22.185C45.4109 21.9657 47.1353 22.3568 48.5725 23.2881C49.7066 24.0364 50.6881 24.991 51.4654 26.1017C52.1839 27.1069 52.7549 28.2087 53.1612 29.3738C53.3715 29.9937 53.5381 30.6273 53.66 31.2701C54.2287 34.3066 53.5212 37.4421 51.7023 39.9462C50.8875 40.9787 49.8582 41.8242 48.6847 42.4251C47.6413 42.9546 46.5159 43.3065 45.3554 43.4663L45.318 43.3671Z" fill="#3C3C3C"/>
<path d="M35.3053 67.9948C34.7472 69.3537 33.7971 70.5181 32.5745 71.3413C32.2868 71.5442 31.9823 71.7225 31.6642 71.8742L31.2029 72.085L30.7789 72.2213C30.2229 72.4138 29.6514 72.5589 29.0706 72.6551L27.6616 72.8534C27.1339 72.8495 26.6078 72.7956 26.0905 72.6923C25.1515 72.4145 24.2953 71.9124 23.5966 71.2297C23.2672 70.9337 23.0002 70.5756 22.8111 70.1762C22.6008 69.8241 22.4413 69.4445 22.3372 69.0483C21.9571 67.7027 21.9571 66.279 22.3372 64.9334C22.5862 63.8315 23.0386 62.7851 23.6715 61.8471C24.3951 60.5568 25.7189 59.7106 27.2003 59.5914C27.6491 59.5914 27.699 60.1987 27.6367 60.9547C27.6246 61.6035 27.5153 62.2468 27.3125 62.8635C26.6113 64.0206 26.3174 65.3767 26.477 66.7182C26.4869 66.8873 26.5337 67.0522 26.6142 67.2015L26.7514 67.3131C26.7514 67.3131 26.7514 67.4122 26.8511 67.4122C26.8848 67.4256 26.9148 67.4469 26.9384 67.4742C26.9384 67.4742 27.0257 67.4742 27.0506 67.4742C27.0756 67.4742 27.2252 67.4742 27.3125 67.4742C27.3998 67.4742 27.6616 67.4742 27.8487 67.4742C28.0357 67.4742 28.335 67.3131 28.5968 67.2635C28.9703 67.167 29.3053 66.9594 29.5569 66.6686C29.9253 66.2126 30.1196 65.6419 30.1056 65.0573C30.1911 64.0459 29.7995 63.0523 29.0457 62.3677C28.8718 62.2009 28.5962 62.2009 28.4222 62.3677C28.3225 62.5288 28.3599 62.7519 28.2851 62.9007C28.2497 62.9949 28.1992 63.0828 28.1354 63.161C28.0528 63.2192 27.9597 63.2613 27.8611 63.2849C27.6925 63.2596 27.5286 63.2094 27.3748 63.1362C26.8634 62.8993 26.3678 62.6302 25.891 62.3305L25.1553 61.8967C24.7734 61.6488 24.4672 61.3016 24.27 60.8928C23.9454 60.3895 23.8376 59.7777 23.9707 59.1947C24.3422 58.3061 24.9553 57.5379 25.7413 56.9761C26.8613 56.2963 28.1795 56.0124 29.4821 56.1705C30.7711 56.3596 31.9762 56.9197 32.9486 57.7818C33.7402 58.443 34.4 59.246 34.8938 60.1491C35.5343 61.3324 35.9127 62.6383 36.0036 63.979C36.1139 65.3544 35.9224 66.7373 35.4424 68.032L35.3053 67.9948Z" fill="#3C3C3C"/>
<path d="M70.6681 56.7655C70.0732 57.033 69.4437 57.2165 68.7977 57.3108L67.8375 57.4224L66.8649 57.2984C66.2187 57.22 65.5929 57.0224 65.0195 56.7159L64.5831 56.53L64.2464 56.2449C63.9862 56.0604 63.7365 55.8618 63.4982 55.65C62.7499 55.0663 62.1516 54.3144 61.7525 53.4562C61.4696 52.7428 61.338 51.9791 61.366 51.2128C61.3815 50.603 61.4609 49.9966 61.6029 49.4032C61.8377 48.301 62.237 47.2398 62.7875 46.255C63.24 45.3828 63.8014 44.5707 64.4584 43.8381C64.9398 43.277 65.5846 42.8786 66.3038 42.6978C67.0986 42.5125 67.9348 42.7099 68.5608 43.2307C68.9099 43.553 68.4859 43.962 68.0121 44.4702C67.7659 44.6946 67.5593 44.9586 67.4011 45.251C67.2988 45.446 67.2474 45.6633 67.2515 45.8832C67.2515 46.0691 67.2515 46.131 67.052 46.3294C66.8642 46.5694 66.6934 46.822 66.5407 47.0854C66.1687 47.7667 65.8397 48.4705 65.5557 49.1925C65.3968 49.6174 65.375 50.0809 65.4933 50.5187C65.5379 50.7477 65.6047 50.9718 65.6928 51.188C65.947 51.7477 66.4971 52.117 67.1143 52.1424C67.5758 52.1529 68.0233 51.9839 68.3613 51.6714C68.9591 51.1779 69.179 50.3633 68.9099 49.6387C68.6106 49.0809 67.7503 49.0313 67.2764 49.1305C67.1745 49.1694 67.0704 49.2025 66.9647 49.2297C66.5657 49.2297 66.5532 48.8702 66.5532 47.3705V46.3294C66.5532 45.1643 67.0395 44.2843 68.0994 44.1231C68.936 44.0041 69.7889 44.0762 70.5933 44.3339C71.0375 44.4232 71.4607 44.5957 71.8402 44.842C72.2358 45.042 72.601 45.2966 72.925 45.5981C74.2917 46.807 75.0344 48.566 74.945 50.3823C74.9619 50.716 74.9283 51.0502 74.8453 51.3739C74.7938 51.7082 74.7231 52.0393 74.6333 52.3655C74.4163 53.0012 74.1233 53.6088 73.7604 54.175C73.04 55.3075 72.0398 56.2377 70.8551 56.877L70.6681 56.7655Z" fill="#3C3C3C"/>
<path d="M71.1793 6.9522C71.3195 7.41467 71.7678 7.71518 72.2517 7.67108C72.4512 7.67108 72.4138 7.36122 72.5759 7.29925C73.1744 7.02657 73.1869 6.0598 72.3764 5.29135C72.294 5.19324 72.1921 5.11307 72.0771 5.05585C71.9161 4.92465 71.7403 4.81235 71.5534 4.72121C71.1893 4.52298 70.7989 4.37693 70.3937 4.2874C69.9821 4.20625 69.5584 4.20625 69.1468 4.2874C69.0517 4.30149 68.9551 4.30149 68.86 4.2874C68.7779 4.3387 68.69 4.38029 68.5982 4.41134C68.3737 4.41134 68.1992 4.63444 67.9498 4.75839C67.7004 4.88233 67.0021 4.63444 66.6031 3.89078C66.3726 3.4396 66.2815 2.93075 66.3412 2.42823C66.4587 1.78964 66.8323 1.22594 67.3762 0.866535C67.6505 0.717801 67.9373 0.556674 68.2241 0.420335C68.5093 0.318974 68.8009 0.23617 69.0969 0.172446C69.6668 0.0285531 70.2558 -0.0258138 70.8426 0.0113182C71.3742 0.049668 71.9006 0.141019 72.4138 0.283996C72.8889 0.435768 73.3551 0.613696 73.8103 0.816957L74.4837 1.18879L74.9326 1.46147C75.0822 1.54823 75.2942 1.57302 75.4064 1.70936C75.9052 2.18035 76.4039 2.61415 76.8778 3.09753C77.3354 3.54366 77.7526 4.02891 78.1247 4.54768C78.3781 5.05063 78.5907 5.57285 78.7606 6.10938C78.9465 6.7241 79.0964 7.349 79.2095 7.98094C79.3228 8.56047 79.3688 9.151 79.3467 9.74095C79.2761 10.94 78.8413 12.0896 78.0997 13.0379C76.425 15.0565 73.8967 16.1801 71.2666 16.0745C69.7227 16.071 68.2061 15.6696 66.8649 14.9094C64.8616 13.7956 63.5547 11.7562 63.386 9.48067C63.2934 8.65694 63.2934 7.82551 63.386 7.00178C63.5039 6.05242 63.7955 5.13249 64.2464 4.2874C64.4313 3.85181 64.6611 3.43644 64.9322 3.04796C65.3799 2.50726 65.9787 2.11047 66.653 1.90767C67.2788 1.88635 67.8835 2.13488 68.3114 2.58936C68.5877 2.81283 68.8501 3.0529 69.0969 3.30824C69.4617 3.69989 69.7455 4.1589 69.9324 4.65923C70.0948 4.94883 70.2325 5.25149 70.3439 5.56403C70.5184 6.13417 70.8426 6.2829 71.0421 6.32009C71.139 6.35411 71.2446 6.35411 71.3414 6.32009C71.2402 6.42618 71.2109 6.58138 71.2666 6.71671L71.1793 6.9522Z" fill="#3C3C3C"/>
<path d="M102.091 50.3452C101.021 51.2915 99.738 51.9675 98.3498 52.3159C97.0633 52.6299 95.7243 52.6679 94.422 52.4274C93.5399 52.3102 92.6767 52.0811 91.8533 51.7457C91.1879 51.3922 90.5575 50.9773 89.9704 50.5063C89.314 50.0339 88.7374 49.4607 88.2621 48.8082C87.2659 47.3926 86.9894 45.5967 87.514 43.9496C87.8589 42.7494 88.4395 41.6288 89.2223 40.6527C89.7056 40.0055 90.3112 39.4581 91.0054 39.0414C91.7506 38.5859 92.6427 38.4307 93.4992 38.6076C94.0603 38.7564 93.7985 39.3017 93.4992 39.8471C93.2 40.3924 92.988 41.1733 92.7261 41.4707C92.1353 42.1462 91.7087 42.9477 91.4792 43.8133C91.3773 44.1775 91.3146 44.5514 91.2922 44.9288C91.2865 45.17 91.3074 45.411 91.3545 45.6477C91.5479 46.0797 91.8877 46.4306 92.3146 46.6392C92.6025 46.7943 92.898 46.935 93.2 47.0606L94.0603 47.3705C95.2356 47.8147 96.5452 47.7426 97.664 47.1722C98.0025 46.9802 98.3095 46.7377 98.5742 46.4533C98.808 46.2379 99.0058 45.9869 99.1603 45.7096C99.4175 45.3089 99.507 44.8241 99.4097 44.3586C99.2715 43.8868 98.9146 43.509 98.4495 43.3423C98.265 43.2749 98.072 43.2332 97.8759 43.2184C97.6189 43.1934 97.3599 43.1934 97.1028 43.2184C96.5916 43.2184 96.0928 43.4291 95.6315 43.491C95.4195 43.491 95.2325 43.6274 95.0329 43.6522C94.7152 43.701 94.3926 43.6002 94.1601 43.3795C93.8301 43.0549 93.5449 42.6881 93.3122 42.2888L92.8259 41.5823C92.5804 41.2182 92.4783 40.777 92.5391 40.3428C92.6569 39.8489 92.9433 39.4109 93.3496 39.1034C93.6779 38.8181 94.0478 38.5841 94.4469 38.4093C94.8488 38.2151 95.2658 38.0534 95.6938 37.9259C96.5377 37.6955 97.419 37.6323 98.2874 37.74C98.7464 37.7868 99.2008 37.8697 99.6466 37.9879C100.2 38.1877 100.741 38.4195 101.268 38.682C101.803 38.9628 102.301 39.3083 102.751 39.7107C102.982 39.9013 103.199 40.1084 103.4 40.3305L103.936 41.0369C104.964 42.5129 105.266 44.3711 104.759 46.0939C104.726 46.3133 104.671 46.5291 104.597 46.7384L104.31 47.3581C104.139 47.7844 103.939 48.1985 103.712 48.5975C103.462 48.9322 103.188 49.366 102.951 49.6263C102.714 49.8866 102.49 50.1592 102.215 50.4071L102.091 50.3452Z" fill="#3C3C3C"/>
<path d="M78.9352 81.8147C78.107 80.8914 77.5392 79.7668 77.2893 78.5549C77.1806 78.1486 77.1056 77.734 77.0648 77.3155C77.0648 76.9313 77.1646 76.5594 77.2394 76.2C77.3489 75.8589 77.4952 75.5306 77.6758 75.2208C77.9692 74.6145 78.3333 74.0446 78.7606 73.5228C79.1035 73.1276 79.424 72.7138 79.7208 72.2834C80.0761 71.7526 80.5666 71.3249 81.1423 71.0439C81.3418 70.9695 81.666 71.3538 81.9278 71.8372C82.1897 72.3205 82.4515 72.9155 82.3144 73.2005C81.9312 74.0605 81.481 74.8893 80.9677 75.6794C80.8074 76.0727 80.7726 76.5053 80.8679 76.9189C80.904 77.4065 81.0673 77.8765 81.3418 78.2823C81.9097 79.0185 82.7396 79.5108 83.6611 79.658C84.0491 79.6203 84.407 79.4336 84.6586 79.1375C84.6586 79.1375 84.7334 79.0259 84.7958 79.0135C84.8581 79.0011 84.7958 79.0135 84.908 79.0135C84.9986 79.0649 85.0824 79.1274 85.1574 79.1995L85.9055 79.8564L86.342 80.2282C86.8534 80.6318 87.0575 81.3097 86.8532 81.9262C86.3848 82.7606 85.5984 83.3725 84.6711 83.6243C83.818 83.8649 82.918 83.8905 82.0525 83.6986C80.833 83.3726 79.7309 82.7109 78.8729 81.7899L78.9352 81.8147Z" fill="#3C3C3C"/>
<path d="M91.6788 77.6253C91.2814 79.4028 90.3197 81.0062 88.9356 82.1989C87.7575 83.209 86.3758 83.957 84.883 84.3927C83.8827 84.742 82.8371 84.9466 81.7782 85C81.2933 85.0008 80.8093 84.9594 80.3318 84.8761C79.8337 84.8232 79.3439 84.7108 78.8729 84.5414C77.8792 84.2355 76.9702 83.7052 76.2169 82.9921C74.8631 81.6367 74.0976 79.8079 74.0847 77.898C74.0186 76.3952 74.318 74.8986 74.9575 73.5352C75.4206 72.6601 76.0875 71.9079 76.9027 71.3414L77.5511 70.9571C77.788 70.8704 78.0249 70.8084 78.2619 70.7464C78.7262 70.6076 79.2144 70.5654 79.6958 70.6225C80.2944 70.6225 80.1697 71.1678 79.8455 71.7876C79.6958 72.1098 79.4963 72.4197 79.3342 72.7543C79.21 73.0638 79.0598 73.3623 78.8853 73.6467C78.8105 73.7459 78.7482 73.845 78.6733 73.9318C78.5985 74.0186 78.5736 74.1673 78.5237 74.2789C78.4249 74.5018 78.3496 74.7345 78.2993 74.9729C78.2993 75.196 78.212 75.4687 78.1372 75.6918C78.0624 75.9149 78.1372 76.1876 78.1372 76.4479C78.1436 77.3606 78.3611 78.2597 78.7731 79.0755C78.7731 79.1747 78.9227 79.249 78.9976 79.3482C79.0701 79.4423 79.1703 79.5116 79.2843 79.5465C79.3878 79.6198 79.4961 79.686 79.6085 79.7448L80.0076 79.8316C80.6454 79.8971 81.2897 79.8594 81.9154 79.72C83.3932 79.5344 84.7195 78.7263 85.5564 77.5014C85.7463 77.1706 85.8612 76.8026 85.8931 76.4231C85.9329 76.0456 85.9076 75.6642 85.8182 75.2952C85.7484 74.7322 85.4569 74.2197 85.0077 73.8698C84.5105 73.5535 83.8951 73.4805 83.3369 73.6715C82.7575 73.8737 82.2206 74.1804 81.7533 74.5763C81.2305 75.0216 80.735 75.4976 80.2694 76.0017C80.0574 76.2124 79.8953 76.4727 79.6709 76.671C78.6733 77.1668 78.0873 77.018 76.9152 76.1876C76.6533 75.9893 76.379 75.8282 76.1296 75.6298C75.2798 74.9145 75.0101 73.7258 75.4687 72.7172C75.5952 72.2752 75.7932 71.8565 76.0548 71.4777C76.3246 71.137 76.6118 70.8101 76.9152 70.4985C77.5558 69.8434 78.2714 69.2652 79.0474 68.7757C79.984 68.2037 81.0071 67.7852 82.0775 67.5363L83.1498 67.3008C83.5114 67.3008 83.873 67.3008 84.2471 67.3008C84.9724 67.3006 85.6943 67.4007 86.3918 67.5982C90.7685 68.6146 92.7013 74.2045 91.8409 77.6997L91.6788 77.6253Z" fill="#3C3C3C"/>
</g>
</svg>
