<svg width="50" height="74" viewBox="0 0 50 74" fill="none" xmlns="http://www.w3.org/2000/svg">
<g opacity="0.1">
<path d="M38.6096 38.1619C39.3923 36.2622 40.2026 34.3717 41.0221 32.4812L42.2559 29.7147L42.6519 28.7925C42.7071 28.6818 42.6519 28.5896 42.5874 28.4421C42.3152 27.9098 41.9645 27.4217 41.5469 26.9942C41.1142 26.5055 40.6261 26.0721 40.1197 25.5372C38.2505 23.7856 36.2862 22.1385 34.2358 20.6035C32.164 19.0173 30.0554 17.4588 27.9468 15.8911L22.2931 11.7505C19.835 10.0447 17.5193 8.14183 15.3687 6.06064C14.715 5.39667 15.1293 5.13845 16.0593 5.19378C17.408 5.38486 18.694 5.88678 19.8162 6.66006C22.2747 8.39377 24.7793 10.026 27.2562 11.7505C29.7331 13.475 32.1732 15.264 34.6226 17.1453C36.0682 18.2796 37.6059 19.3585 39.1437 20.4836C40.7505 21.6052 42.2598 22.8608 43.6556 24.2369C44.0578 24.6642 44.4359 25.1137 44.7881 25.5833C44.9723 25.8138 45.138 26.0721 45.313 26.321L45.5432 26.736C45.6504 26.9046 45.7399 27.0838 45.8102 27.2709L46.0496 27.8519L46.2246 28.4513C46.2246 28.5527 46.3167 28.6542 46.2798 28.7556L46.1877 29.0507L46.022 29.6409C45.9575 29.8253 45.8839 30.0467 45.8286 30.1942L45.6813 30.5631L45.3867 31.2916C44.6132 33.2005 43.8581 35.091 43.1307 37C42.2099 39.3515 41.3444 41.7215 40.5156 44.1008C39.2357 47.6973 37.9927 51.3307 36.943 54.9826C36.1327 57.8229 35.5986 60.6909 34.9448 63.5404C34.8067 64.1675 34.7146 64.8038 34.5489 65.3848C33.9412 67.7087 33.4163 68.345 32.0259 68.4557C31.7213 68.5026 31.4133 68.5241 31.1051 68.5202C30.0738 68.4465 29.5674 67.2753 29.816 65.5047C30.212 62.8383 30.7717 60.199 31.4919 57.6016C32.2469 54.9733 33.1677 52.3636 34.1161 49.7446C35.5618 45.8806 37.0258 41.9982 38.5451 38.125L38.6096 38.1619Z" fill="#FAFAFA"/>
<path d="M38.4162 16.6934C40.0921 18.0398 41.7587 19.4139 43.4162 20.8156L45.8931 22.9551L47.1178 24.0617L47.4308 24.3383L47.9096 24.7902L48.9041 25.7124L49.7052 26.8651C49.9039 27.2956 50.0045 27.765 49.9998 28.2392C49.9695 29.2133 49.8179 30.1798 49.5487 31.1164C49.254 32.2876 48.9133 33.3758 48.5726 34.4639C47.882 36.6218 47.1546 38.7429 46.3995 40.8455C45.3038 43.8518 44.3093 46.8858 43.1399 49.8552C41.771 53.2857 40.3653 56.6947 38.9227 60.0822L36.7312 65.1635L33.9688 71.462C33.8323 71.7578 33.6523 72.0313 33.4347 72.2735L33.1493 72.6332L33.0112 72.8176L32.8731 72.9283L32.3206 73.3801C32.2152 73.476 32.076 73.5258 31.9338 73.5185C31.7961 73.5331 31.6572 73.5331 31.5195 73.5185C30.9558 73.3799 30.4222 73.1392 29.9449 72.8084C29.3759 72.4003 28.8485 71.937 28.3704 71.4251C27.8547 70.8902 27.3391 70.3185 26.8695 69.7744L26.2617 69.1012L25.7921 68.5479C25.166 67.8009 24.5491 67.0724 23.9506 66.3162C20.8291 62.443 17.6431 58.6436 14.3743 55.0102C12.238 52.7048 10.1847 50.3347 8.03921 48.0754C6.97109 46.9411 5.86614 45.8437 4.74277 44.7924C3.68503 43.7197 2.47495 42.8092 1.15167 42.0904C0.341367 41.7031 -0.0177432 41.6754 0.000672687 41.5094C0.0190886 41.3434 0.479486 41.159 1.40028 41.2604C2.63736 41.4121 3.84296 41.7575 4.97297 42.2841C6.56865 42.9595 8.06986 43.8399 9.43882 44.9031C10.6665 45.8806 11.8943 46.8827 13.122 47.9094L14.8991 49.4679C15.4884 49.9843 16.0133 50.5653 16.5566 51.1186C18.7296 53.3595 20.8291 55.6557 22.8824 57.9704C24.9358 60.2851 26.98 62.5814 28.9321 64.9422L29.6595 65.8643L30.0278 66.2885C30.0549 66.3269 30.0795 66.3669 30.1015 66.4084C30.1567 66.5099 30.212 66.6113 30.2948 66.7404C30.3777 66.8695 30.4698 67.0355 30.6171 67.1001C30.7644 67.1646 30.7644 66.9341 30.8657 66.8234L31.0867 66.5099C31.2597 66.2112 31.4165 65.9033 31.5563 65.5877L32.1456 64.2505L33.2966 61.5393C34.0517 59.6949 34.7791 57.8505 35.4789 56.0062C36.8969 52.3174 38.2413 48.5273 39.5857 44.8108C40.6722 41.7676 41.7219 38.7398 42.7348 35.7273C43.232 34.2334 43.72 32.7302 44.1528 31.2547L44.4567 30.1942L44.6316 29.5395C44.6703 29.379 44.6949 29.2155 44.7053 29.0507C44.7159 28.9687 44.6759 28.8885 44.604 28.8478L44.429 28.6726C44.1896 28.4052 43.0847 27.4277 42.2652 26.6991C41.4457 25.9706 40.4972 25.1775 39.5857 24.4306C35.4697 21.0185 31.2248 17.7263 26.9523 14.5171L21.7222 10.5332L19.1164 8.53208L17.3577 7.13958L16.7315 6.63238L16.4184 6.36495C16.3264 6.30962 16.2067 6.10674 16.0962 6.24506C15.8339 6.71113 15.6356 7.21055 15.5069 7.72978L15.2859 8.50442L15.028 9.4266L14.2914 12.1194C12.7629 18.2058 11.529 24.3291 9.54011 30.4248C9.08892 31.7619 8.61931 33.0991 8.05763 34.4363C7.33431 36.3397 6.17345 38.0457 4.6691 39.4161C3.78766 40.1912 2.56936 40.4561 1.44632 40.1169C1.06871 40.0179 0.720984 39.828 0.433446 39.5636C0.138792 39.1579 0.433446 38.706 0.691269 38.0143C1.07579 36.9195 1.5437 35.8559 2.09088 34.8328C3.1751 32.4434 4.08298 29.9777 4.80722 27.4553C5.59911 24.8271 6.32653 22.1159 7.04475 19.3585C7.76298 16.6012 8.46278 13.7701 9.181 10.9574L9.73348 8.80874L10.0097 7.72978L10.6082 5.74708C10.9415 4.39796 11.4297 3.09204 12.0631 1.85546C12.3293 1.40569 12.6757 1.00871 13.0852 0.684288C13.4553 0.385357 13.8809 0.162824 14.3375 0.0295364C14.871 -0.00218999 15.406 -0.00218999 15.9396 0.0295364C16.3908 -0.136457 17.1735 0.435298 17.8641 0.79495L20.1845 2.63932L22.0261 4.08715L24.4202 5.80242L29.107 9.36205C32.2438 11.7413 35.3807 14.1482 38.5175 16.5828L38.4162 16.6934Z" fill="#FAFAFA"/>
</g>
</svg>
