<svg width="65" height="64" viewBox="0 0 65 64" fill="none" xmlns="http://www.w3.org/2000/svg">
<g opacity="0.1">
<path d="M54.98 22.3217C55.2353 22.2004 55.1311 21.8621 54.9073 21.39C54.7791 21.1949 54.5904 21.0473 54.3702 20.9699C54.1627 21.003 53.9581 21.0522 53.7581 21.1171C53.4503 21.2966 53.1726 21.5237 52.9353 21.7897C52.7718 21.9988 52.5567 22.1918 52.391 22.3832C52.2252 22.5745 52.091 22.7666 52.0014 22.8811C51.6444 23.3636 51.3678 23.9007 51.1822 24.4714C50.8238 25.6335 50.64 26.8422 50.637 28.058C50.6437 28.339 50.6972 28.6169 50.7954 28.8801L51.61 31.548C51.6786 31.6952 51.7061 31.8582 51.6899 32.0198C51.7956 32.5353 52.0003 33.0253 52.2927 33.4625C52.4872 33.7672 52.6995 34.0697 52.8726 34.3094C53.0095 34.4718 53.1602 34.6219 53.3231 34.7582C53.6638 35.0085 54.0179 35.2399 54.3839 35.4515C54.7304 35.6676 55.0906 35.8609 55.4622 36.0302C55.5662 36.0715 55.6462 36.1742 55.8015 36.1191C56.1809 35.9825 56.3415 36.1563 56.5528 36.2653C56.8569 36.3984 57.1799 36.4833 57.5103 36.5168C57.7089 36.5034 57.9029 36.4505 58.0809 36.3612C58.2578 36.299 58.3714 35.826 58.3511 35.7699C58.2908 35.5703 58.4786 35.4122 58.5645 35.2306C58.597 35.1691 58.6253 35.1055 58.6494 35.0402C58.5291 34.744 58.3756 34.4624 58.1919 34.2007C58.0399 33.9261 57.8739 33.6596 57.6944 33.4022L57.4308 33.196C57.2565 33.0376 57.0904 32.8702 56.9334 32.6945L56.674 32.4113L56.4727 32.1255L56.2324 31.777C56.1603 31.6842 56.0663 31.6107 55.9589 31.563C55.8085 31.3363 55.6839 31.0935 55.5874 30.839C55.4815 30.59 55.389 30.3354 55.3103 30.0764C55.2142 29.7657 55.0373 29.4861 54.7978 29.2662C54.7444 29.2245 54.7146 29.1593 54.7181 29.0915L54.4898 28.2869L54.3593 27.8798L54.276 27.4535C54.2459 27.3103 54.2312 27.1642 54.2321 27.0178L54.2552 26.5784C54.2431 26.5224 54.2274 26.4672 54.2081 26.4132C54.1795 26.3482 54.1633 26.2784 54.1606 26.2075C54.1908 25.5048 54.3509 24.8137 54.633 24.1691C54.6862 23.984 54.7219 23.7943 54.7396 23.6025C54.787 23.4083 54.8562 23.2201 54.946 23.0415C54.981 22.9967 54.9638 22.8548 54.9493 22.6991C54.9349 22.5433 54.9339 22.3499 54.98 22.3217Z" fill="#FAFAFA"/>
<path d="M41.9889 16.9187C42.4082 16.5119 42.6054 15.9277 42.5183 15.3504C42.5113 15.1443 42.1905 14.8371 42.0211 14.9614C41.6843 15.1153 41.3531 15.2415 40.9962 15.4519C40.7984 15.5812 40.6145 15.7304 40.4473 15.8973C40.0745 16.1929 39.7194 16.51 39.3837 16.8471C39.0086 17.2419 38.6565 17.6578 38.329 18.0928L37.8889 18.6554L37.5682 19.1269C36.8792 20.1248 36.3285 21.2114 35.9312 22.3569C35.1172 24.6933 34.6753 27.1427 34.6216 29.6154C34.6019 30.1625 34.6473 30.7099 34.7568 31.2461C35.182 33.0797 35.5487 34.8754 36.024 36.6758C36.1276 36.975 36.1825 37.2889 36.1865 37.6055C36.2348 37.9582 36.3251 38.3037 36.4555 38.6347C36.6726 39.2595 36.9243 39.8716 37.2093 40.4684C37.5 41.0803 37.8232 41.6761 38.1777 42.2533C38.3913 42.5969 38.6253 42.9274 38.8785 43.2429C40.0131 44.4981 41.2936 45.613 42.693 46.564C42.8833 46.7284 43.1163 46.8356 43.3651 46.873C43.901 46.9099 44.4154 47.098 44.8485 47.4155C45.1709 47.5712 45.5043 47.7032 45.846 47.8105C46.1942 47.8983 46.5419 47.9456 46.9106 48.0173C47.2813 48.0251 47.6515 47.9857 48.0124 47.9C48.3305 47.852 48.2873 47.3847 48.2105 47.3086C47.9803 47.0803 48.265 46.9419 48.3342 46.7713C48.3641 46.7127 48.3838 46.6494 48.3925 46.5841C47.9358 46.1721 47.5 45.7374 47.0867 45.2818C46.4947 44.5939 45.9618 43.9122 45.8481 43.7911C45.2693 43.2377 44.7193 42.6547 44.2004 42.0447C43.6173 41.3185 43.1064 40.5371 42.6749 39.7116C42.5263 39.4721 42.3484 39.252 42.1453 39.0566C41.8255 38.4604 41.5558 37.8387 41.339 37.1978C40.9931 36.2771 40.7504 35.3168 40.724 35.248C40.5872 34.8787 40.4694 34.5026 40.3711 34.1211C40.2545 33.7343 40.084 33.3658 39.8646 33.0267C39.785 32.8855 39.7382 32.7282 39.7277 32.5664C39.627 31.8856 39.5096 31.216 39.4 30.5363C39.2623 29.8601 39.1598 29.1771 39.0929 28.4902C39.0569 28.1382 39.0499 27.7838 39.0722 27.4306C39.0794 27.0831 39.0995 26.7296 39.1085 26.3594C39.1041 26.2298 39.0929 26.1005 39.0749 25.972C39.0465 25.8104 39.0432 25.6453 39.065 25.4826C39.2194 23.8069 39.6597 22.1697 40.3668 20.642C40.6597 19.7849 41.0372 18.9591 41.4937 18.1767C41.6161 17.7418 41.782 17.3204 41.9889 16.9187Z" fill="#FAFAFA"/>
<path d="M23.7323 8.69658C23.8974 8.52696 24.0437 8.33998 24.1686 8.13892C24.2843 7.95723 24.3815 7.76436 24.4586 7.56321C24.6086 7.12977 24.693 6.67645 24.7092 6.21823C24.7218 5.91512 24.2881 5.56783 24.0255 5.7396C23.5308 6.07491 23.0193 6.42127 22.5261 6.8059C22.2459 7.07889 21.9836 7.36969 21.7409 7.67646C21.5461 7.92541 21.3163 8.21918 21.0311 8.50175C20.746 8.78431 20.517 9.15899 20.277 9.51702C19.3275 10.8183 18.4757 12.1881 17.7284 13.6151C16.7866 15.3799 16.0891 17.2643 15.655 19.2166C14.8316 23.1517 14.5954 27.1863 14.9543 31.1891C15.0364 32.0751 15.1853 32.9535 15.3996 33.8168C16.1629 36.7656 16.9346 39.6728 17.8887 42.5621C18.1 43.0284 18.2391 43.5243 18.3014 44.0327C18.4149 44.6091 18.5904 45.1715 18.8247 45.7102C19.0105 46.1284 19.1823 46.6159 19.431 47.1074L20.223 48.6259C21.0731 50.1784 22.077 51.6413 23.2196 52.9927C25.097 54.9985 27.207 56.773 29.5049 58.2787C29.8023 58.5392 30.1582 58.724 30.5424 58.8174C31.3883 58.9484 32.1977 59.2536 32.9193 59.7137C33.4553 59.9404 33.9825 60.1682 34.5242 60.3672C35.0659 60.5662 35.6383 60.6849 36.1952 60.8236C36.7725 60.8822 37.3544 60.8801 37.9314 60.8174C38.4462 60.7947 38.3242 60.1615 38.1889 60.0476C37.7811 59.7287 38.2265 59.5794 38.3298 59.3552C38.3735 59.2797 38.3987 59.1948 38.4032 59.1077C38.1502 58.9019 37.8766 58.7228 37.5868 58.5733L37.1947 58.3469L36.787 58.028L35.8845 57.3782L35.0295 56.637C34.7666 56.4208 34.5174 56.1883 34.2834 55.941C34.0048 55.6421 33.7104 55.3583 33.4016 55.0907C33.3717 55.0674 32.993 54.6908 32.3764 54.2084C31.6428 53.5687 30.9495 52.8843 30.3003 52.159C29.1972 50.9452 28.2155 49.6262 27.3693 48.2208C27.097 47.8115 26.7883 47.4276 26.447 47.0739C26.4022 47.0389 26.1898 46.6239 25.8771 46.0502C25.5644 45.4765 25.2158 44.6822 24.8429 43.9089C24.1214 42.3412 23.5414 40.7157 23.4819 40.597C23.1794 39.959 22.9883 39.3119 22.7262 38.6734C22.4903 38.0121 22.1765 37.3813 21.7914 36.7944C21.6637 36.544 21.5735 36.276 21.5238 35.9992C20.9045 33.679 20.4143 31.3261 20.0554 28.9513C19.9949 28.3422 19.956 27.7259 19.9022 27.0979L19.8952 25.2624C19.886 25.0385 19.8502 24.8179 19.8321 24.5951C19.8038 24.3185 19.7911 24.0406 19.7939 23.7626C19.871 22.2979 20.0271 20.855 20.2625 19.4339C20.3635 18.7104 20.5044 18.018 20.6498 17.289C20.7953 16.56 21.033 15.8872 21.2747 15.2094C21.3774 14.9284 21.4627 14.6414 21.5302 14.3499C21.6396 13.9539 21.7521 13.472 21.9259 13.0141C22.0998 12.5562 22.2438 12.0749 22.3986 11.6823C22.5534 11.2898 22.7456 10.9826 22.8663 10.8283C23.0158 10.4658 23.145 10.0953 23.2535 9.71854C23.3659 9.35774 23.527 9.01392 23.7323 8.69658Z" fill="#FAFAFA"/>
</g>
</svg>
