<svg width="78" height="83" viewBox="0 0 78 83" fill="none" xmlns="http://www.w3.org/2000/svg">
<g opacity="0.1">
<path d="M26.3886 54.0439C25.6601 53.5628 24.9909 52.9974 24.395 52.3594C23.7984 51.7565 23.2698 51.0899 22.819 50.3714C21.8981 48.9437 21.2735 47.3455 20.9823 45.6717C20.9221 45.0596 20.8104 44.453 20.7806 43.8515C20.7512 43.2512 20.7594 42.6496 20.805 42.0503C21.0166 39.9995 21.5259 37.9905 22.3167 36.0865C22.7167 35.1388 23.0688 34.216 23.5651 33.3072L24.2116 31.9621L24.9348 30.6594C25.3673 29.8878 25.7874 29.1144 26.2413 28.3712C26.6952 27.628 27.1099 26.8476 27.5692 26.1115C28.1651 25.1722 28.7449 24.2116 29.3586 23.2812C29.9894 22.3524 30.7296 21.5028 31.5633 20.7507C32.048 20.2406 32.1017 20.4006 31.9875 21.0327C31.9241 21.3479 31.8664 21.8036 31.7823 22.3573C31.7282 22.6337 31.6538 22.9057 31.5599 23.1712L31.4096 23.6076C31.328 23.7359 31.2642 23.8731 31.1756 24.0067C28.8519 27.8 26.7379 31.7179 24.8431 35.7426C23.752 38.1505 23.1754 40.7595 23.1502 43.403C23.116 44.7929 23.3556 46.176 23.8553 47.4734L24.3024 48.4068L24.849 49.3097L25.4917 50.1625L26.2107 50.9244C27.4494 52.1462 29.0161 52.9823 30.7207 53.331C33.4624 53.7783 36.2584 53.7786 39.0001 53.3318C41.1797 53.0599 43.3197 52.6172 45.6029 52.5124C46.1066 52.5005 46.6012 52.462 47.1192 52.484C49.0206 52.7449 49.6018 53.176 49.7776 53.8235C49.8323 53.9523 49.8795 54.0841 49.9191 54.2183C49.9822 54.5385 49.1269 54.8821 47.9504 54.8439C44.3588 54.8538 40.4436 55.7205 36.1424 55.9421C34.5236 56.0877 32.8938 56.0568 31.2817 55.8499C29.5444 55.5988 27.8758 54.9991 26.3762 54.0866L26.3886 54.0439Z" fill="#FAFAFA"/>
<path d="M23.2974 40.8184C22.7252 42.9533 22.7767 45.2075 23.4456 47.3141C23.6888 47.7995 23.8572 48.3188 24.1324 48.8022L24.5719 49.5185L24.788 49.8793L25.029 50.1991C25.3344 50.6236 25.6869 51.0121 26.0799 51.3571C26.285 51.5257 26.4687 51.7104 26.6738 51.879L27.3332 52.2957C28.7751 53.0649 30.3635 53.5199 31.9939 53.6306C35.2901 53.8981 38.6073 53.7253 41.8579 53.117L47.0831 52.2438L49.6789 51.8588L52.319 51.4292C55.5619 50.8283 58.876 50.7116 62.1532 51.083C64.2521 51.3956 66.3063 51.9573 68.2722 52.7563C69.2427 53.1651 70.1678 53.6742 71.0325 54.2753C71.4603 54.5769 71.8899 54.866 72.3106 55.1729L73.5036 56.1793C74.4773 57.0278 74.1092 57.2049 72.9273 57.115C72.3203 57.0933 71.5547 56.9348 70.6095 56.8782C70.1395 56.8312 69.6447 56.7807 69.1408 56.7036C68.8819 56.659 68.6202 56.6328 68.3575 56.6253C68.1135 56.5529 67.8482 56.4965 67.5989 56.417C65.8311 55.9062 64.0088 55.6075 62.1704 55.527C60.3525 55.4375 58.5308 55.4595 56.7156 55.5928C54.8074 55.8041 52.9117 56.1167 51.0367 56.5293C50.5849 56.6247 49.843 56.7492 49.416 56.8035L47.941 56.9902L44.8985 57.3887C42.4343 57.6968 39.9099 58.1617 37.2373 58.4597C34.4742 58.8462 31.6644 58.7375 28.9394 58.1386C28.1554 57.9411 27.3888 57.6804 26.6471 57.3589L25.5247 56.8453L24.4678 56.1821C23.7735 55.7308 23.1271 55.2099 22.5385 54.6274C21.978 54.0361 21.4502 53.4147 20.9574 52.7658C19.1308 50.1516 18.1509 47.0395 18.1501 43.8503C18.1832 41.9717 18.4859 40.1076 19.0488 38.315C19.6038 36.5953 20.3081 34.9275 21.1536 33.3305C22.4112 30.9843 23.8485 28.739 25.4525 26.6146C25.8446 26.0851 26.2242 25.5539 26.5737 25.0565C26.9232 24.5592 27.294 24.0458 27.6309 23.5022C27.9678 22.9586 28.287 22.4506 28.5795 21.9071C28.8858 21.3743 29.1644 20.826 29.414 20.2643C30.99 16.8978 31.736 13.2025 31.5893 9.48829C31.5811 9.09468 31.5493 8.7019 31.4941 8.31209C31.4541 7.91885 31.4194 7.53272 31.3668 7.13774C31.2997 6.07724 31.3175 5.01307 31.4201 3.95542C31.5242 3.31431 31.8066 2.71543 32.2349 2.2272C32.404 2.00014 32.5871 1.78395 32.7834 1.57991C33.1103 1.33356 33.5057 1.45902 34.014 1.9562C34.7367 2.69124 35.277 3.58545 35.5915 4.56708C35.9571 5.48951 36.2206 6.44916 36.3775 7.42892L36.5304 8.91823C36.5618 9.41827 36.5612 9.92016 36.5588 10.4345C36.5576 12.4704 36.313 14.4988 35.8303 16.4767C34.824 20.4228 33.1004 24.1502 30.7456 27.4729L28.3631 30.8616C27.6145 31.9383 26.93 33.0557 26.258 34.1304C24.9785 36.2229 24.0112 38.4909 23.3865 40.8626L23.2974 40.8184Z" fill="#FAFAFA"/>
<path d="M44.5305 20.6732C45.3665 20.8174 46.1917 21.0183 47.0003 21.2745C47.4085 21.401 47.8098 21.5486 48.2027 21.7167C48.6006 21.8498 48.9902 22.0064 49.3695 22.1857C50.1416 22.5696 50.8823 23.0136 51.5847 23.5137C51.9306 23.7657 52.2978 24.0015 52.6205 24.282L53.5533 25.1502L54.0188 25.5905C54.1474 25.7611 54.2705 25.9245 54.3991 26.0951L55.2466 27.0275C55.7553 27.7027 56.1843 28.4937 56.6415 29.2188C57.4068 30.7981 57.8734 32.5052 58.018 34.2542C58.2384 36.6508 57.9937 39.0674 57.2974 41.3713C55.9866 44.9562 54.2919 48.3888 52.243 51.6092C51.2908 53.1847 50.3866 54.6906 49.5038 56.2695C48.488 58.0266 47.466 59.3762 46.5689 60.9213C44.9766 63.5525 43.7987 66.4131 43.0767 69.4027C42.2377 73.222 42.0995 77.162 42.6689 81.0307C42.8105 82.2834 42.4937 82.277 41.616 81.3784C41.4339 81.1368 41.1664 80.8704 40.8951 80.54C40.5917 80.1732 40.3216 79.7801 40.088 79.3654C39.4082 78.3811 38.9458 77.2634 38.7315 76.0866C37.997 71.4853 38.6068 66.7698 40.4875 62.5067C41.3696 60.4543 42.4106 58.4739 43.6011 56.5837L44.4506 55.2416L44.8692 54.6142L45.2328 54.0616L46.075 52.6804L46.9475 51.3098C48.3524 49.1881 49.6144 46.9753 50.7251 44.6859C51.7743 42.5407 52.5597 40.2764 53.0645 37.9424C53.8154 35.0363 53.1412 31.9464 51.248 29.6173L50.7125 28.9066L50.0632 28.2816C49.6214 27.8559 49.1416 27.4715 48.6297 27.1333C48.3795 26.9615 48.1161 26.8098 47.842 26.6795C47.5791 26.5185 47.3031 26.3798 47.017 26.2649C44.0136 25.12 40.7554 24.8136 37.5912 25.3786C35.0483 25.7612 32.5408 26.3502 30.0935 27.1398C28.8824 27.5288 27.5735 27.9803 26.2627 28.3552C24.9519 28.7301 23.6267 29.0713 22.2854 29.3467C18.1185 30.3387 13.8148 30.6252 9.55319 30.1943C8.58904 30.0997 7.63326 29.9335 6.69377 29.6971C3.19191 28.4361 2.45586 27.2079 2.34623 25.9534C2.30266 25.6757 2.28475 25.3945 2.29271 25.1135C2.35586 24.7094 2.77197 24.5518 3.43752 24.5183C3.7774 24.4961 4.16724 24.5255 4.63534 24.5405C5.10345 24.5554 5.58423 24.6611 6.15214 24.7346C6.96053 24.9054 7.81477 24.8856 8.61781 25.0493L9.86404 25.2245L11.0781 25.357C12.7484 25.4627 14.4238 25.4583 16.0935 25.3438C17.8159 25.2211 19.5283 24.9841 21.2193 24.6345C22.9479 24.2869 24.6538 23.8348 26.3277 23.281L28.3533 22.6125C29.0594 22.3813 29.7761 22.1644 30.4982 21.9545C31.946 21.5543 33.417 21.1701 34.9417 20.9015C38.0956 20.2371 41.3405 20.1214 44.5338 20.5593L44.5305 20.6732Z" fill="#FAFAFA"/>
<path d="M23.0001 14.1333L20.7931 15.6404C20.5387 15.8544 20.273 16.0546 19.9971 16.2402C18.9573 16.8121 17.8906 17.3485 16.856 17.883C16.3867 18.1029 15.9584 18.3922 15.5105 18.6406C14.9731 19.0199 14.3765 19.3076 13.7451 19.4918C13.5406 19.5457 13.426 19.2754 13.4306 18.9266C13.4077 18.5413 13.5484 18.1642 13.818 17.8881C14.7938 17.0727 15.8284 16.3303 16.9133 15.667C17.5613 15.2205 18.1597 14.706 18.6985 14.1324C19.4091 13.5968 20.1198 13.0613 20.793 12.476L22.1149 11.4799C22.7901 10.9712 23.4652 10.4624 24.0904 9.90212C24.3341 9.68144 24.5591 9.44103 24.7633 9.18336L25.0846 8.79642C25.2095 8.69126 25.3399 8.59294 25.4754 8.50187C25.5837 8.40917 25.6976 8.32332 25.8166 8.24481C26.2805 7.97324 26.544 8.04205 26.9704 8.48958C27.0561 8.60329 27.1773 8.69022 27.2755 8.80568C27.5667 9.1456 27.6357 9.62305 27.4527 10.0315C27.2451 10.5984 26.9213 11.1156 26.5022 11.55C26.088 11.9384 25.6527 12.3036 25.1983 12.644L23.0876 14.2345L23.0001 14.1333Z" fill="#FAFAFA"/>
<path d="M22.2746 18.3014C22.6418 18.1815 22.9986 18.0319 23.3414 17.8541C23.448 17.7737 23.5546 17.6934 23.6684 17.6077C24.1234 17.354 24.6211 17.0681 25.0938 16.7787C25.3039 16.6599 25.4974 16.514 25.6695 16.3449C25.836 16.0883 26.0876 15.8986 26.3802 15.8093C26.6008 15.7768 27.3816 17.1383 27.2167 17.4074C26.8451 17.8802 26.3698 18.2613 25.8275 18.5212C25.5189 18.7402 25.2442 19.0035 25.0124 19.3025C24.6786 19.5931 24.3247 19.8597 23.9534 20.1005C23.7402 20.2612 23.5199 20.4272 23.271 20.5256C22.9152 20.6973 22.573 20.8956 22.2472 21.1188C22.027 21.3326 21.8334 21.572 21.6704 21.832C21.6324 21.8881 21.5909 21.9417 21.5462 21.9925C21.3472 22.1425 21.2064 22.0591 20.8262 21.5545L20.5316 21.1637C20.2944 20.8838 20.1744 20.5233 20.1965 20.1571C20.3856 19.619 20.75 19.16 21.2311 18.8537C21.5328 18.622 21.8609 18.4271 22.2087 18.2731L22.2746 18.3014Z" fill="#FAFAFA"/>
<path d="M54.1795 67.3538L56.4347 65.9106C56.6906 65.7178 56.9464 65.525 57.2094 65.3269C58.2457 64.7799 59.291 64.2596 60.2989 63.6896C60.7522 63.4483 61.1626 63.1501 61.5891 62.8733C62.1041 62.4728 62.674 62.1485 63.2813 61.9102C63.4805 61.8492 63.6163 62.1034 63.6722 62.429C63.7189 62.8098 63.6028 63.1926 63.3525 63.4833C62.4203 64.3806 61.4008 65.1824 60.3092 65.8769C59.6583 66.3385 59.0496 66.8568 58.4902 67.4258C57.7795 67.9614 57.0689 68.4969 56.3582 69.0325L55.0434 70.0232C54.3754 70.5266 53.7073 71.03 53.0393 71.5334C52.7959 71.7527 52.5675 71.9881 52.3557 72.238L52.0344 72.6249C51.9097 72.7303 51.7792 72.8286 51.6435 72.9195C51.5353 73.0122 51.4213 73.098 51.3024 73.1765C50.826 73.4464 50.5696 73.3722 50.1628 72.9211C50.0717 72.8002 49.986 72.6865 49.9004 72.5728C49.6181 72.2508 49.5351 71.8001 49.6841 71.3987C49.8996 70.8375 50.2266 70.3257 50.6453 69.8944C51.0663 69.5003 51.5087 69.1297 51.9705 68.7844C52.6812 68.2488 53.4294 67.763 54.1508 67.2417L54.1795 67.3538Z" fill="#FAFAFA"/>
<path d="M55.0929 62.8436C54.6085 63.0704 54.1362 63.3222 53.6779 63.5979C53.5216 63.7157 53.3652 63.8335 53.2089 63.9514C52.6046 64.3176 51.9754 64.6803 51.3854 65.0803C51.1269 65.2619 50.8871 65.4687 50.6696 65.6977C50.418 66.0265 50.0813 66.2803 49.6959 66.4314C49.4256 66.5014 48.6945 65.1024 48.966 64.753C49.4895 64.1462 50.1117 63.6321 50.8064 63.2325C51.221 62.9445 51.5992 62.6072 51.9324 62.2279C52.3731 61.8959 52.8279 61.5531 53.2827 61.2104C53.5599 61.0015 53.8371 60.7927 54.1142 60.5838C54.5407 60.2625 55.0349 60.046 55.4418 59.7283C55.7485 59.453 56.0345 59.1555 56.2976 58.8382C56.3687 58.7847 56.4076 58.6885 56.4787 58.6349C56.7416 58.4368 56.9162 58.5058 57.3035 59.005C57.3962 59.1133 57.4821 59.2272 57.5606 59.3462C57.8219 59.628 57.9262 60.0213 57.8388 60.3956C57.5135 61.0497 57.0281 61.611 56.4276 62.0273C56.0199 62.3509 55.588 62.6428 55.1357 62.9005L55.0929 62.8436Z" fill="#FAFAFA"/>
<path d="M37.2101 34.6911C36.4973 35.1057 35.7775 35.5255 35.0684 35.9596C34.8419 36.1516 34.6047 36.3304 34.3577 36.4952C33.4031 37.0028 32.4432 37.5033 31.5261 38.0607C31.1287 38.3211 30.7489 38.6074 30.389 38.9175C29.9651 39.3629 29.4547 39.7171 28.8892 39.9585C28.7025 40.0212 28.4668 39.6641 28.3537 39.2478C28.2406 38.8316 28.1593 38.2801 28.4364 38.0712C29.2806 37.1695 30.2541 36.3984 31.3251 35.783C31.9591 35.3662 32.55 34.8873 33.0892 34.3534C33.7572 33.85 34.4628 33.3964 35.1593 32.916L36.4441 32.0482C37.0695 31.5769 37.7485 31.1767 38.3132 30.6397C38.8036 30.2702 39.1994 29.8048 39.6684 29.4068C39.7601 29.304 39.8712 29.2203 39.9953 29.1605C40.3832 28.9756 40.8478 29.0944 41.0994 29.4427C41.169 29.5351 41.2386 29.6275 41.3029 29.7128C41.4946 30.0339 41.5219 30.427 41.3765 30.7716L41.2298 31.2275C41.1765 31.3569 41.108 31.4795 41.026 31.5928C40.8717 31.8317 40.712 32.0634 40.5417 32.2809C40.3806 32.5075 40.2038 32.7226 40.0127 32.9246L39.3589 33.4173C38.7051 33.91 37.9799 34.3228 37.2922 34.7853L37.2101 34.6911Z" fill="#FAFAFA"/>
<path d="M40.4117 38.4961L37.4136 40.4322C37.0654 40.6946 36.703 40.9677 36.3689 41.2194C35.0698 42.0535 33.694 42.8006 32.4056 43.6489C31.8347 44.0289 31.2866 44.442 30.7639 44.886C30.1364 45.5029 29.4208 46.0234 28.6406 46.4303C28.3828 46.5466 28.1185 46.1663 28.0462 45.6415C27.8891 45.1311 27.9908 44.5762 28.3186 44.1547C29.5937 42.9047 31.0042 41.8008 32.5239 40.8633C33.4588 40.3148 34.2293 39.489 35.1213 38.8392L38.0798 36.7323L39.8636 35.3881L41.2139 34.3706C41.6687 34.0279 42.1165 33.6905 42.5642 33.3531C43.2749 32.8175 43.818 32.1631 44.4414 31.5708C44.5792 31.4393 44.7318 31.3243 44.8962 31.2281C45.5005 30.8619 45.7675 30.9058 46.2363 31.1877C46.337 31.2535 46.4329 31.3265 46.5233 31.4059C46.8051 31.6616 46.7919 32.1172 46.5367 32.6215C46.1593 33.3538 45.673 34.0246 45.0943 34.611C44.5528 35.2084 43.9704 35.781 43.379 36.327C42.9315 36.7177 42.4565 37.0756 41.9576 37.3981L40.5041 38.4265L40.4117 38.4961Z" fill="#FAFAFA"/>
<path d="M41.9114 44.5083L40.2923 45.4944C40.1075 45.6336 39.9298 45.7675 39.745 45.9067C39.034 46.3088 38.3123 46.6966 37.6281 47.1342C37.3257 47.3232 37.0403 47.5382 36.7753 47.7769C36.4704 48.1234 36.098 48.4041 35.6808 48.6016C35.3999 48.7019 34.8186 47.4574 35.1861 47.0579C35.8423 46.3851 36.5972 45.8162 37.4248 45.371C37.8868 45.0282 38.3188 44.6468 38.7161 44.2308C39.2136 43.8559 39.7181 43.4756 40.2298 43.0901L41.1608 42.3885C41.6534 42.0571 42.1279 41.6996 42.5822 41.3174C42.8921 40.9785 43.1729 40.6141 43.4216 40.2281C43.4997 40.1692 43.5297 40.0463 43.5972 39.9732C43.8511 39.7039 44.0416 39.7497 44.4964 40.1758C44.5821 40.2895 44.7104 40.3711 44.8103 40.4741C45.156 40.7277 45.3069 41.17 45.1884 41.582C44.8002 42.3439 44.2233 42.9935 43.5126 43.4688C43.008 43.849 42.5034 44.2293 41.9613 44.5598L41.9114 44.5083Z" fill="#FAFAFA"/>
</g>
</svg>
