<svg width="73" height="59" viewBox="0 0 73 59" fill="none" xmlns="http://www.w3.org/2000/svg">
<g opacity="0.1">
<path d="M63.5475 35.2294C62.8388 34.6524 62.293 33.9024 61.9636 33.0527C61.8116 32.7313 61.7235 32.3836 61.704 32.029C61.7742 30.9376 62.3622 29.9444 63.2879 29.3534C63.6081 29.1469 63.8678 28.949 64.1534 28.7597C64.4374 28.4928 64.7914 28.3109 65.1747 28.235C65.3045 28.235 65.5295 28.5103 65.6853 28.8802C65.8411 29.2501 65.945 29.7405 65.8065 29.8954C65.5113 30.3631 65.1499 30.7862 64.7333 31.1514C64.5256 31.2461 64.7333 31.4784 64.7939 31.5386C64.8105 31.7559 64.9095 31.9588 65.0708 32.1064C65.4996 32.5376 66.0796 32.7873 66.6893 32.8033C66.8562 32.7766 67.0155 32.715 67.1567 32.6226C67.2865 32.5624 67.3904 32.4677 67.4856 32.4247C67.5808 32.3817 67.5549 32.3387 67.5981 32.3387C67.885 32.6292 68.1193 32.9669 68.2905 33.3367L68.5415 33.7324C68.8246 34.146 68.8767 34.6743 68.68 35.1347C68.5585 35.4532 68.3446 35.7287 68.0655 35.9262C67.8274 36.1122 67.569 36.2709 67.2952 36.3994C66.7699 36.533 66.2193 36.533 65.694 36.3994C64.9171 36.1862 64.1885 35.827 63.5475 35.3412V35.2294Z" fill="#FAFAFA"/>
<path d="M3.75785 14.7624C3.61607 14.2674 3.52046 13.7606 3.47223 13.2482C3.47223 12.9901 3.47223 12.732 3.47223 12.4739C3.46085 12.2196 3.48414 11.9649 3.54147 11.7168C3.55917 11.3377 3.62311 10.9622 3.73188 10.5984C4.19097 9.41965 5.01157 8.41436 6.07742 7.72494C6.30245 7.57869 6.49287 7.40663 6.7179 7.26898L7.40166 6.92485C7.95563 6.60453 8.57907 6.42157 9.21924 6.39145C9.42696 6.39145 9.47023 6.66675 9.42696 7.01948C9.39982 7.38784 9.25416 7.73774 9.01151 8.01745L8.67396 8.24974L8.38834 8.52504C8.20658 8.71431 8.00752 8.86057 7.83441 9.03263C7.65436 9.18391 7.46344 9.32193 7.26318 9.44558C7.07276 9.58324 6.91697 9.7467 6.70925 9.89295C6.49627 10.0836 6.33294 10.3227 6.23321 10.5898C6.14666 10.8737 6.08608 11.149 5.99953 11.4501C5.85625 12.0933 5.85625 12.7599 5.99953 13.4031C6.03299 13.6099 6.0911 13.8121 6.17263 14.0053L6.27649 14.3064L6.43228 14.5817C6.71845 15.1701 7.15399 15.6742 7.69593 16.0442C7.91809 16.1565 8.15365 16.2403 8.397 16.2937C8.63594 16.3227 8.87293 16.3658 9.10672 16.4228C9.2075 16.4316 9.30887 16.4316 9.40965 16.4228C9.78182 16.4916 9.89434 16.6723 9.98089 17.1885C9.98089 17.3089 10.0328 17.4294 10.0501 17.5498C10.1141 17.9491 9.85117 18.3279 9.45292 18.4101C9.12288 18.5319 8.77489 18.5988 8.42296 18.608C8.06133 18.6535 7.694 18.6152 7.34973 18.4962C7.00473 18.3779 6.66913 18.2341 6.34573 18.066C6.05146 17.8681 5.74853 17.653 5.48022 17.4294C4.68271 16.7026 4.08661 15.7842 3.74919 14.7624H3.75785Z" fill="#FAFAFA"/>
<path d="M12.6294 17.6187C10.3948 19.0368 7.65257 19.4257 5.10808 18.6854C4.16708 18.4561 3.28337 18.0374 2.51154 17.4552C1.13239 16.3775 0.256766 14.786 0.0881034 13.0504C-0.0622967 11.4374 0.370361 9.82386 1.30848 8.49926C2.1274 7.41757 3.28909 6.6417 4.60608 6.29684C6.12354 5.85189 7.74853 5.9369 9.21062 6.53773C9.64337 6.727 9.49624 6.95929 9.07213 7.20018C8.49811 7.51831 7.89174 7.77498 7.26321 7.96586C6.18443 8.16562 5.22228 8.76528 4.57146 9.64349C4.3724 10.022 4.13005 10.2715 3.95695 10.6587C3.76387 11.057 3.63813 11.4843 3.58478 11.9233C3.54485 12.2112 3.56548 12.5041 3.64536 12.7837C3.69925 13.0576 3.80183 13.3198 3.94829 13.5579C4.26564 14.0285 4.69339 14.4153 5.19463 14.685C6.50658 15.3884 8.06256 15.4859 9.45296 14.9517C10.3268 14.6458 11.077 14.0661 11.5908 13.2998C11.9582 12.7549 12.1568 12.1148 12.162 11.4588C12.1052 10.8159 11.7938 10.2218 11.2965 9.80695C10.3658 9.12321 9.27595 8.68514 8.12873 8.53367L7.36707 8.45625C7.01411 8.43995 6.67259 8.32679 6.38039 8.12932C6.15115 7.87515 5.96679 7.58428 5.83511 7.269C5.76587 7.10554 5.67067 6.95929 5.61874 6.82164C5.52922 6.56116 5.59257 6.27282 5.78318 6.07316C5.9044 5.90124 6.04688 5.74516 6.20728 5.60859C6.39849 5.45955 6.62498 5.36179 6.86508 5.32468C8.454 4.95719 10.1146 5.03763 11.66 5.55697C12.5392 5.84044 13.3416 6.32012 14.0056 6.95929C14.8026 7.69659 15.4134 8.61031 15.7885 9.62628C16.0807 10.4537 16.1899 11.334 16.1088 12.2072C16.04 12.9926 15.8288 13.7592 15.4856 14.4699C14.8761 15.7956 13.9121 16.9294 12.6986 17.7477L12.6294 17.6187Z" fill="#FAFAFA"/>
<path d="M31.5149 30.1019C28.8901 30.3056 26.2953 29.4356 24.3311 27.693C23.5148 27.0089 22.9014 26.1166 22.5568 25.112C22.1132 23.4732 22.3176 21.7278 23.128 20.234C23.4677 19.5902 23.8801 18.987 24.3571 18.4359C24.8369 17.9287 25.3742 17.4783 25.9583 17.0938C26.9568 16.3814 28.0858 15.8699 29.2818 15.5883C30.8461 15.2249 32.4877 15.7013 33.6094 16.8444C33.9297 17.1885 33.67 17.3864 33.168 17.567C32.666 17.7477 31.9217 18.023 31.437 18.1434L31.0821 18.2209L30.7186 18.3413C30.6162 18.3843 30.5177 18.4361 30.4243 18.4962C30.3214 18.5236 30.2225 18.564 30.1301 18.6166C29.7463 18.7998 29.386 19.0279 29.0568 19.2963C28.3848 19.9161 27.7463 20.5708 27.144 21.2578C26.7998 21.6395 26.6035 22.1305 26.5901 22.6429C26.5995 23.0286 26.7099 23.4052 26.9103 23.7355C27.1686 24.1664 27.5475 24.5132 28.0009 24.7335C28.5858 25.0559 29.2254 25.2688 29.8877 25.3615C30.551 25.5003 31.2427 25.3702 31.8091 25.0002C32.1812 24.6934 32.4199 24.2558 32.4756 23.7785C32.5848 23.1584 32.5158 22.5203 32.2765 21.9374C31.9289 21.063 31.2194 20.3797 30.3291 20.062C30.25 20.039 30.1659 20.039 30.0868 20.062C30.0868 20.062 30.0868 20.062 30.0868 19.9587C30.0928 19.9391 30.0928 19.9181 30.0868 19.8985C30.0952 19.8472 30.0952 19.7949 30.0868 19.7436C30.0449 19.5495 29.978 19.3615 29.8877 19.1844C29.7838 18.9607 29.654 18.694 29.5155 18.4445C29.393 18.2326 29.2572 18.0286 29.1087 17.8337C28.8862 17.4759 28.8295 17.0402 28.953 16.6379C29.0884 15.9423 29.6863 15.4299 30.3984 15.399C31.5793 15.2468 32.7762 15.5183 33.7739 16.1647C34.561 16.6841 35.2423 17.3467 35.7819 18.1176C36.2806 18.8154 36.6769 19.5801 36.959 20.3889C37.1049 20.8191 37.2206 21.259 37.3052 21.7052C37.6999 23.8128 37.2088 25.9892 35.9463 27.7274C35.3807 28.444 34.6663 29.0309 33.8518 29.448C33.1275 29.8156 32.3463 30.0598 31.5408 30.1707L31.5149 30.1019Z" fill="#FAFAFA"/>
<path d="M24.5648 47.1965C24.1775 48.1397 23.518 48.9479 22.6694 49.5193C22.4697 49.6602 22.2583 49.7839 22.0375 49.8893L21.7173 50.0355L21.423 50.1302C21.0371 50.2638 20.6404 50.3645 20.2373 50.4313L19.2592 50.5689C18.893 50.5662 18.5278 50.5288 18.1687 50.4571C17.5169 50.2643 16.9226 49.9157 16.4377 49.4419C16.209 49.2364 16.0237 48.9879 15.8924 48.7106C15.7465 48.4662 15.6357 48.2027 15.5635 47.9277C15.2996 46.9937 15.2996 46.0055 15.5635 45.0715C15.7363 44.3066 16.0503 43.5803 16.4896 42.9293C16.9919 42.0336 17.9108 41.4463 18.939 41.3635C19.2506 41.3635 19.2852 41.785 19.2419 42.3098C19.2335 42.7601 19.1577 43.2067 19.0169 43.6347C18.5302 44.4379 18.3262 45.3792 18.437 46.3103C18.4438 46.4277 18.4763 46.5422 18.5322 46.6459L18.6274 46.7233C18.6274 46.7233 18.6274 46.7921 18.6967 46.7921C18.7201 46.8014 18.7408 46.8161 18.7572 46.8351C18.7572 46.8351 18.8178 46.8351 18.8351 46.8351C18.8525 46.8351 18.9563 46.8351 19.0169 46.8351C19.0775 46.8351 19.2592 46.8351 19.3891 46.8351C19.5189 46.8351 19.7266 46.7233 19.9084 46.6889C20.1676 46.6219 20.4002 46.4778 20.5748 46.2759C20.8305 45.9594 20.9654 45.5633 20.9557 45.1575C21.015 44.4555 20.7432 43.7658 20.22 43.2906C20.0992 43.1748 19.9079 43.1748 19.7872 43.2906C19.718 43.4025 19.7439 43.5573 19.692 43.6605C19.6674 43.726 19.6324 43.787 19.5881 43.8412C19.5307 43.8817 19.4661 43.9108 19.3977 43.9272C19.2807 43.9096 19.1669 43.8749 19.0602 43.824C18.7052 43.6596 18.3612 43.4728 18.0302 43.2648L17.5196 42.9637C17.2545 42.7916 17.0419 42.5506 16.9051 42.2668C16.6797 41.9175 16.6049 41.4929 16.6973 41.0882C16.9552 40.4714 17.3807 39.9381 17.9264 39.5482C18.7038 39.0763 19.6187 38.8793 20.5229 38.989C21.4176 39.1202 22.2541 39.5091 22.929 40.1074C23.4785 40.5664 23.9365 41.1238 24.2792 41.7506C24.7238 42.572 24.9865 43.4784 25.0495 44.409C25.1261 45.3637 24.9932 46.3236 24.6601 47.2223L24.5648 47.1965Z" fill="#FAFAFA"/>
<path d="M49.1108 39.4019C48.6979 39.5876 48.2609 39.715 47.8125 39.7805L47.1461 39.8579L46.471 39.7719C46.0224 39.7174 45.588 39.5803 45.19 39.3675L44.8871 39.2385L44.6534 39.0406C44.4728 38.9125 44.2994 38.7746 44.1341 38.6276C43.6146 38.2225 43.1993 37.7006 42.9224 37.1049C42.726 36.6097 42.6346 36.0796 42.6541 35.5477C42.6648 35.1245 42.7199 34.7035 42.8185 34.2916C42.9815 33.5266 43.2586 32.79 43.6407 32.1064C43.9549 31.501 44.3445 30.9373 44.8005 30.4288C45.1347 30.0394 45.5823 29.7628 46.0815 29.6373C46.6332 29.5087 47.2135 29.6457 47.6481 30.0072C47.8904 30.2309 47.5961 30.5148 47.2672 30.8676C47.0963 31.0233 46.9529 31.2065 46.8431 31.4096C46.7721 31.5449 46.7364 31.6957 46.7393 31.8483C46.7393 31.9774 46.7393 32.0204 46.6008 32.158C46.4705 32.3246 46.3519 32.5 46.2459 32.6828C45.9877 33.1558 45.7593 33.6442 45.5622 34.1454C45.4519 34.4403 45.4368 34.7621 45.5189 35.0659C45.5498 35.2249 45.5962 35.3804 45.6574 35.5305C45.8338 35.919 46.2156 36.1754 46.6441 36.1929C46.9644 36.2003 47.275 36.083 47.5096 35.866C47.9246 35.5235 48.0772 34.9581 47.8904 34.4551C47.6827 34.0679 47.0855 34.0335 46.7566 34.1024C46.6858 34.1294 46.6136 34.1524 46.5402 34.1712C46.2632 34.1712 46.2546 33.9217 46.2546 32.8807V32.158C46.2546 31.3493 46.5921 30.7385 47.3278 30.6267C47.9085 30.544 48.5005 30.5941 49.0589 30.7729C49.3672 30.835 49.6609 30.9547 49.9244 31.1257C50.199 31.2645 50.4525 31.4411 50.6774 31.6504C51.626 32.4896 52.1415 33.7105 52.0795 34.9713C52.0912 35.2029 52.0679 35.4349 52.0103 35.6595C51.9746 35.8916 51.9254 36.1214 51.8631 36.3478C51.7125 36.7891 51.5091 37.2108 51.2573 37.6039C50.7572 38.3899 50.0629 39.0356 49.2406 39.4794L49.1108 39.4019Z" fill="#FAFAFA"/>
<path d="M49.4657 4.82565C49.563 5.14665 49.8741 5.35524 50.21 5.32463C50.3485 5.32463 50.3225 5.10955 50.435 5.06654C50.8505 4.87727 50.8591 4.20622 50.2966 3.67282C50.2394 3.60472 50.1686 3.54907 50.0888 3.50936C49.9771 3.41828 49.8551 3.34034 49.7253 3.27707C49.4726 3.13948 49.2016 3.0381 48.9204 2.97596C48.6347 2.91963 48.3406 2.91963 48.0549 2.97596C47.9889 2.98574 47.9218 2.98574 47.8558 2.97596C47.7988 3.01157 47.7378 3.04044 47.674 3.06199C47.5183 3.06199 47.3971 3.21685 47.224 3.30288C47.0509 3.38891 46.5662 3.21685 46.2892 2.70066C46.1293 2.38749 46.066 2.03428 46.1075 1.68548C46.189 1.24222 46.4483 0.850949 46.8258 0.601477C47.0163 0.498239 47.2153 0.386397 47.4144 0.291762C47.6124 0.221406 47.8148 0.16393 48.0203 0.119698C48.4158 0.0198192 48.8247 -0.0179178 49.232 0.00785616C49.6009 0.0344754 49.9663 0.0978841 50.3225 0.197127C50.6523 0.302474 50.9759 0.425977 51.2919 0.567064L51.7593 0.82516L52.0709 1.01443C52.1747 1.07465 52.3219 1.09186 52.3997 1.18649C52.746 1.51342 53.0922 1.81453 53.4211 2.15005C53.7387 2.45972 54.0283 2.79654 54.2866 3.15663C54.4624 3.50573 54.6101 3.86821 54.728 4.24063C54.857 4.66731 54.961 5.10107 55.0396 5.53971C55.1182 5.94197 55.1501 6.35187 55.1348 6.76137C55.0858 7.59365 54.784 8.39159 54.2693 9.04982C53.1068 10.451 51.3519 11.2309 49.5262 11.1576C48.4546 11.1552 47.4019 10.8765 46.471 10.3489C45.0804 9.57574 44.1733 8.1602 44.0562 6.5807C43.9919 6.00893 43.9919 5.43183 44.0562 4.86006C44.1381 4.20109 44.3404 3.56255 44.6534 2.97596C44.7817 2.67361 44.9413 2.38529 45.1294 2.11564C45.4402 1.74033 45.8558 1.46492 46.3238 1.32415C46.7583 1.30935 47.1779 1.48186 47.475 1.79732C47.6668 1.95243 47.8489 2.11907 48.0203 2.29631C48.2734 2.56816 48.4704 2.88676 48.6001 3.23406C48.7129 3.43507 48.8084 3.64515 48.8858 3.86209C49.0069 4.25784 49.232 4.36107 49.3705 4.38688C49.4377 4.4105 49.511 4.4105 49.5782 4.38688C49.5079 4.46052 49.4876 4.56825 49.5262 4.66219L49.4657 4.82565Z" fill="#FAFAFA"/>
<path d="M70.9217 34.9455C70.1794 35.6023 69.2887 36.0716 68.3252 36.3134C67.4322 36.5313 66.5028 36.5577 65.5988 36.3908C64.9866 36.3095 64.3874 36.1504 63.8158 35.9176C63.354 35.6723 62.9164 35.3842 62.5089 35.0573C62.0533 34.7294 61.653 34.3315 61.3232 33.8787C60.6317 32.896 60.4397 31.6495 60.8038 30.5062C61.0433 29.6731 61.4463 28.8953 61.9896 28.2178C62.3251 27.7685 62.7455 27.3886 63.2273 27.0994C63.7445 26.7832 64.3638 26.6755 64.9583 26.7982C65.3478 26.9015 65.166 27.28 64.9583 27.6586C64.7506 28.0371 64.6035 28.5791 64.4217 28.7856C64.0116 29.2545 63.7155 29.8108 63.5562 30.4116C63.4855 30.6644 63.4419 30.9239 63.4264 31.1859C63.4224 31.3533 63.4369 31.5206 63.4696 31.6849C63.6039 31.9847 63.8397 32.2283 64.1361 32.3731C64.3359 32.4808 64.541 32.5784 64.7506 32.6656L65.3478 32.8807C66.1636 33.189 67.0726 33.139 67.8491 32.7431C68.0841 32.6098 68.2972 32.4415 68.481 32.2441C68.6432 32.0945 68.7806 31.9203 68.8877 31.7279C69.0663 31.4497 69.1284 31.1132 69.0608 30.7901C68.965 30.4626 68.7172 30.2004 68.3944 30.0847C68.2663 30.0379 68.1323 30.0089 67.9963 29.9986C67.8178 29.9813 67.6381 29.9813 67.4596 29.9986C67.1048 29.9986 66.7586 30.1449 66.4383 30.1879C66.2912 30.1879 66.1614 30.2825 66.0229 30.2997C65.8023 30.3336 65.5784 30.2637 65.417 30.1105C65.188 29.8852 64.99 29.6306 64.8285 29.3534L64.4909 28.863C64.3206 28.6103 64.2497 28.304 64.2919 28.0027C64.3736 27.6599 64.5724 27.3558 64.8545 27.1424C65.0823 26.9443 65.3391 26.7819 65.6161 26.6606C65.8951 26.5258 66.1845 26.4136 66.4816 26.3251C67.0674 26.1651 67.6791 26.1212 68.2819 26.196C68.6004 26.2285 68.9159 26.286 69.2253 26.3681C69.6095 26.5068 69.9852 26.6676 70.3505 26.8499C70.7221 27.0448 71.068 27.2846 71.3804 27.5639C71.5408 27.6962 71.6912 27.84 71.8305 27.9941L72.2027 28.4845C72.916 29.5089 73.126 30.7988 72.7739 31.9946C72.7507 32.1469 72.713 32.2967 72.6614 32.4419L72.4623 32.8721C72.3438 33.168 72.205 33.4554 72.0469 33.7324C71.8738 33.9647 71.6834 34.2658 71.5189 34.4465C71.3545 34.6272 71.1987 34.8164 71.0083 34.9885L70.9217 34.9455Z" fill="#FAFAFA"/>
<path d="M54.8492 56.789C54.2743 56.1481 53.8802 55.3675 53.7067 54.5264C53.6313 54.2443 53.5792 53.9566 53.5509 53.6661C53.5509 53.3994 53.6201 53.1413 53.6721 52.8918C53.7481 52.655 53.8496 52.4271 53.975 52.2121C54.1786 51.7912 54.4314 51.3956 54.728 51.0335C54.966 50.7592 55.1885 50.472 55.3944 50.1732C55.6411 49.8048 55.9815 49.5079 56.3811 49.3128C56.5196 49.2612 56.7446 49.5279 56.9264 49.8634C57.1082 50.199 57.2899 50.6119 57.1947 50.8098C56.9288 51.4067 56.6162 51.982 56.26 52.5304C56.1487 52.8034 56.1246 53.1037 56.1907 53.3908C56.2158 53.7293 56.3291 54.0554 56.5196 54.3371C56.9138 54.8481 57.4898 55.1898 58.1295 55.2921C58.3988 55.2659 58.6473 55.1362 58.8219 54.9307C58.8219 54.9307 58.8738 54.8533 58.9171 54.8447C58.9604 54.8361 58.9171 54.8447 58.995 54.8447C59.0579 54.8804 59.116 54.9237 59.1681 54.9737L59.6874 55.4297L59.9903 55.6878C60.3453 55.968 60.487 56.4385 60.3452 56.8665C60.02 57.4456 59.4742 57.8704 58.8305 58.0451C58.2384 58.2121 57.6137 58.2299 57.013 58.0967C56.1665 57.8704 55.4015 57.4111 54.8059 56.7718L54.8492 56.789Z" fill="#FAFAFA"/>
<path d="M63.6947 53.8811C63.4189 55.1149 62.7513 56.2278 61.7906 57.0557C60.9729 57.7568 60.0138 58.276 58.9777 58.5785C58.2833 58.8209 57.5575 58.9629 56.8225 59C56.486 59.0006 56.15 58.9718 55.8185 58.914C55.4728 58.8773 55.1328 58.7993 54.8059 58.6817C54.1162 58.4693 53.4852 58.1013 52.9623 57.6063C52.0226 56.6655 51.4913 55.3961 51.4823 54.0704C51.4364 53.0272 51.6443 51.9884 52.0882 51.0421C52.4096 50.4347 52.8725 49.9126 53.4384 49.5193L53.8884 49.2526C54.0529 49.1924 54.2173 49.1494 54.3818 49.1063C54.7041 49.01 55.0429 48.9807 55.3771 49.0203C55.7926 49.0203 55.706 49.3989 55.481 49.829C55.3771 50.0527 55.2386 50.2678 55.1261 50.5001C55.0399 50.7149 54.9357 50.9221 54.8145 51.1195C54.7626 51.1883 54.7193 51.2571 54.6674 51.3174C54.6155 51.3776 54.5982 51.4808 54.5635 51.5583C54.4949 51.713 54.4427 51.8745 54.4077 52.04C54.4077 52.1949 54.3472 52.3842 54.2952 52.539C54.2433 52.6939 54.2952 52.8832 54.2952 53.0638C54.2997 53.6974 54.4507 54.3214 54.7366 54.8877C54.7366 54.9565 54.8405 55.0081 54.8924 55.077C54.9428 55.1423 55.0124 55.1904 55.0915 55.2146C55.1633 55.2655 55.2385 55.3115 55.3165 55.3523L55.5935 55.4125C56.0362 55.458 56.4834 55.4318 56.9177 55.3351C57.9435 55.2063 58.8641 54.6453 59.445 53.7951C59.5768 53.5655 59.6566 53.31 59.6787 53.0466C59.7064 52.7846 59.6888 52.5198 59.6268 52.2637C59.5783 51.8729 59.376 51.5172 59.0642 51.2744C58.719 51.0548 58.2919 51.0041 57.9044 51.1367C57.5022 51.277 57.1296 51.4899 56.8052 51.7647C56.4423 52.0738 56.0984 52.4042 55.7753 52.7541C55.6281 52.9004 55.5156 53.081 55.3598 53.2187C54.6674 53.5628 54.2606 53.4596 53.447 52.8832C53.2653 52.7455 53.0749 52.6337 52.9017 52.496C52.3119 51.9995 52.1247 51.1744 52.443 50.4743C52.5308 50.1675 52.6682 49.8769 52.8498 49.6139C53.0371 49.3774 53.2364 49.1506 53.447 48.9343C53.8917 48.4795 54.3884 48.0782 54.927 47.7384C55.5772 47.3414 56.2873 47.0509 57.0302 46.8781L57.7746 46.7147C58.0256 46.7147 58.2766 46.7147 58.5362 46.7147C59.0397 46.7145 59.5407 46.784 60.0249 46.9211C63.0629 47.6266 64.4044 51.5066 63.8072 53.9327L63.6947 53.8811Z" fill="#FAFAFA"/>
</g>
</svg>
