<svg width="78" height="83" viewBox="0 0 78 83" fill="none" xmlns="http://www.w3.org/2000/svg">
<g opacity="0.1">
<path d="M26.3887 54.0435C25.6601 53.5625 24.991 52.9971 24.3951 52.3591C23.7984 51.7562 23.2699 51.0895 22.819 50.3711C21.8981 48.9434 21.2735 47.3452 20.9823 45.6714C20.9222 45.0593 20.8105 44.4526 20.7806 43.8512C20.7513 43.2508 20.7595 42.6493 20.805 42.05C21.0167 39.9992 21.526 37.9902 22.3167 36.0862C22.7168 35.1384 23.0689 34.2157 23.5652 33.3069L24.2117 31.9617L24.9349 30.6591C25.3674 29.8875 25.7874 29.1141 26.2414 28.3709C26.6953 27.6277 27.11 26.8472 27.5693 26.1112C28.1651 25.1719 28.7449 24.2113 29.3586 23.2808C29.9895 22.352 30.7297 21.5024 31.5633 20.7504C32.0481 20.2402 32.1018 20.4003 31.9876 21.0324C31.9242 21.3475 31.8665 21.8033 31.7823 22.357C31.7282 22.6333 31.6539 22.9054 31.5599 23.1708L31.4096 23.6072C31.3281 23.7355 31.2643 23.8727 31.1756 24.0064C28.8519 27.7997 26.738 31.7175 24.8432 35.7423C23.7521 38.1501 23.1755 40.7592 23.1503 43.4026C23.116 44.7926 23.3556 46.1757 23.8554 47.4731L24.3024 48.4065L24.8491 49.3093L25.4917 50.1621L26.2107 50.924C27.4494 52.1459 29.0161 52.9819 30.7207 53.3307C33.4624 53.778 36.2584 53.7782 39.0002 53.3315C41.1798 53.0596 43.3198 52.6169 45.603 52.512C46.1066 52.5002 46.6013 52.4617 47.1193 52.4837C49.0206 52.7445 49.6018 53.1757 49.7777 53.8231C49.8324 53.9519 49.8796 54.0837 49.9192 54.2179C49.9822 54.5381 49.1269 54.8818 47.9504 54.8435C44.3589 54.8535 40.4436 55.7202 36.1425 55.9417C34.5237 56.0873 32.8939 56.0564 31.2817 55.8496C29.5444 55.5985 27.8759 54.9987 26.3763 54.0863L26.3887 54.0435Z" fill="#3C3C3C"/>
<path d="M23.2974 40.8182C22.7253 42.9532 22.7767 45.2073 23.4457 47.314C23.6888 47.7993 23.8573 48.3186 24.1325 48.8021L24.5719 49.5183L24.7881 49.8791L25.0291 50.1989C25.3344 50.6235 25.687 51.012 26.08 51.3569C26.2851 51.5255 26.4688 51.7102 26.6738 51.8788L27.3333 52.2956C28.7751 53.0647 30.3636 53.5197 31.994 53.6305C35.2902 53.8979 38.6073 53.7252 41.858 53.1169L47.0831 52.2436L49.6789 51.8586L52.3191 51.4291C55.562 50.8282 58.8761 50.7115 62.1532 51.0828C64.2522 51.3954 66.3064 51.9571 68.2723 52.7561C69.2427 53.165 70.1679 53.6741 71.0326 54.2751C71.4604 54.5767 71.89 54.8658 72.3107 55.1728L73.5036 56.1792C74.4773 57.0277 74.1093 57.2047 72.9273 57.1149C72.3204 57.0931 71.5547 56.9347 70.6096 56.8781C70.1396 56.8311 69.6447 56.7806 69.1409 56.7034C68.882 56.6588 68.6202 56.6327 68.3576 56.6251C68.1136 56.5527 67.8483 56.4964 67.599 56.4168C65.8311 55.9061 64.0088 55.6073 62.1705 55.5268C60.3525 55.4374 58.5309 55.4593 56.7157 55.5926C54.8074 55.8039 52.9118 56.1165 51.0368 56.5292C50.585 56.6245 49.8431 56.749 49.4161 56.8034L47.9411 56.9901L44.8986 57.3885C42.4343 57.6967 39.9099 58.1616 37.2374 58.4595C34.4743 58.8461 31.6644 58.7374 28.9394 58.1384C28.1555 57.941 27.3889 57.6802 26.6471 57.3588L25.5247 56.8452L24.4678 56.182C23.7736 55.7306 23.1272 55.2097 22.5386 54.6273C21.9781 54.036 21.4503 53.4145 20.9575 52.7657C19.1309 50.1514 18.1509 47.0393 18.1502 43.8501C18.1833 41.9715 18.4859 40.1074 19.0488 38.3148C19.6038 36.5952 20.3081 34.9273 21.1536 33.3303C22.4113 30.9842 23.8485 28.7388 25.4525 26.6144C25.8446 26.0849 26.2243 25.5537 26.5738 25.0564C26.9233 24.559 27.2941 24.0456 27.631 23.502C27.9679 22.9584 28.2871 22.4505 28.5795 21.907C28.8859 21.3742 29.1644 20.8258 29.4141 20.2642C30.9901 16.8977 31.736 13.2024 31.5894 9.48814C31.5811 9.09452 31.5494 8.70175 31.4942 8.31194C31.4541 7.9187 31.4194 7.53257 31.3669 7.13758C31.2997 6.07709 31.3176 5.01292 31.4202 3.95526C31.5243 3.31416 31.8066 2.71528 32.235 2.22705C32.404 1.99999 32.5872 1.7838 32.7834 1.57975C33.1103 1.3334 33.5057 1.45887 34.0141 1.95605C34.7368 2.69108 35.277 3.5853 35.5915 4.56692C35.9571 5.48936 36.2207 6.44901 36.3776 7.42877L36.5305 8.91808C36.5619 9.41812 36.5612 9.92001 36.5588 10.4344C36.5576 12.4702 36.3131 14.4987 35.8304 16.4765C34.824 20.4227 33.1005 24.1501 30.7457 27.4727L28.3632 30.8614C27.6145 31.9381 26.9301 33.0556 26.258 34.1303C24.9786 36.2228 24.0112 38.4907 23.3865 40.8625L23.2974 40.8182Z" fill="#3C3C3C"/>
<path d="M44.5305 20.6729C45.3665 20.817 46.1917 21.0179 47.0003 21.2742C47.4085 21.4007 47.8098 21.5483 48.2027 21.7164C48.6006 21.8495 48.9902 22.0061 49.3695 22.1854C50.1416 22.5692 50.8823 23.0133 51.5847 23.5134C51.9306 23.7653 52.2978 24.0012 52.6205 24.2817L53.5533 25.1498L54.0188 25.5902C54.1474 25.7607 54.2705 25.9242 54.3991 26.0948L55.2466 27.0272C55.7553 27.7024 56.1843 28.4934 56.6415 29.2185C57.4068 30.7978 57.8734 32.5049 58.018 34.2538C58.2384 36.6505 57.9937 39.0671 57.2974 41.3709C55.9866 44.9558 54.2919 48.3884 52.243 51.6089C51.2908 53.1844 50.3866 54.6903 49.5038 56.2692C48.488 58.0263 47.466 59.3759 46.5689 60.921C44.9766 63.5522 43.7987 66.4128 43.0767 69.4023C42.2377 73.2217 42.0995 77.1617 42.6689 81.0304C42.8105 82.283 42.4937 82.2766 41.616 81.3781C41.4339 81.1364 41.1664 80.8701 40.8951 80.5397C40.5917 80.1729 40.3216 79.7798 40.088 79.3651C39.4082 78.3808 38.9458 77.2631 38.7315 76.0863C37.997 71.485 38.6068 66.7695 40.4875 62.5063C41.3696 60.4539 42.4106 58.4736 43.6011 56.5833L44.4506 55.2413L44.8692 54.6138L45.2328 54.0613L46.075 52.6801L46.9475 51.3095C48.3524 49.1878 49.6144 46.9749 50.7251 44.6855C51.7743 42.5404 52.5597 40.2761 53.0645 37.9421C53.8154 35.036 53.1412 31.9461 51.248 29.6169L50.7125 28.9062L50.0632 28.2812C49.6214 27.8555 49.1416 27.4712 48.6297 27.133C48.3795 26.9612 48.1161 26.8094 47.842 26.6792C47.5791 26.5181 47.3031 26.3794 47.017 26.2646C44.0136 25.1196 40.7554 24.8133 37.5912 25.3783C35.0483 25.7609 32.5408 26.3499 30.0935 27.1395C28.8824 27.5284 27.5735 27.9799 26.2627 28.3549C24.9519 28.7298 23.6267 29.071 22.2854 29.3463C18.1185 30.3383 13.8148 30.6248 9.55319 30.1939C8.58904 30.0994 7.63326 29.9332 6.69377 29.6967C3.19191 28.4357 2.45586 27.2076 2.34623 25.9531C2.30266 25.6754 2.28475 25.3942 2.29271 25.1132C2.35586 24.709 2.77197 24.5515 3.43752 24.5179C3.7774 24.4958 4.16724 24.5252 4.63534 24.5401C5.10345 24.5551 5.58423 24.6608 6.15214 24.7342C6.96053 24.905 7.81477 24.8853 8.61781 25.049L9.86404 25.2241L11.0781 25.3566C12.7484 25.4624 14.4238 25.458 16.0935 25.3435C17.8159 25.2208 19.5283 24.9838 21.2193 24.6342C22.9479 24.2865 24.6538 23.8345 26.3277 23.2806L28.3533 22.6122C29.0594 22.381 29.7761 22.164 30.4982 21.9541C31.946 21.554 33.417 21.1698 34.9417 20.9011C38.0956 20.2368 41.3405 20.121 44.5338 20.559L44.5305 20.6729Z" fill="#3C3C3C"/>
<path d="M23.0001 14.133L20.7931 15.6401C20.5387 15.8541 20.273 16.0543 19.9971 16.2399C18.9573 16.8118 17.8906 17.3481 16.856 17.8826C16.3867 18.1026 15.9584 18.3919 15.5105 18.6403C14.9731 19.0196 14.3765 19.3072 13.7451 19.4915C13.5406 19.5453 13.426 19.2751 13.4306 18.9262C13.4077 18.541 13.5484 18.1639 13.818 17.8877C14.7938 17.0723 15.8284 16.33 16.9133 15.6667C17.5613 15.2202 18.1597 14.7057 18.6985 14.1321C19.4091 13.5965 20.1198 13.061 20.793 12.4757L22.1149 11.4796C22.7901 10.9708 23.4652 10.4621 24.0904 9.90179C24.3341 9.6811 24.5591 9.4407 24.7633 9.18302L25.0846 8.79608C25.2095 8.69093 25.3399 8.5926 25.4754 8.50154C25.5837 8.40884 25.6976 8.32298 25.8166 8.24448C26.2805 7.9729 26.544 8.04171 26.9704 8.48924C27.0561 8.60295 27.1773 8.68988 27.2755 8.80535C27.5667 9.14526 27.6357 9.62271 27.4527 10.0312C27.2451 10.598 26.9213 11.1153 26.5022 11.5497C26.088 11.9381 25.6527 12.3033 25.1983 12.6437L23.0876 14.2342L23.0001 14.133Z" fill="#3C3C3C"/>
<path d="M22.2745 18.3013C22.6417 18.1813 22.9985 18.0317 23.3414 17.8539C23.448 17.7736 23.5546 17.6932 23.6683 17.6076C24.1233 17.3538 24.621 17.0679 25.0938 16.7785C25.3038 16.6597 25.4973 16.5139 25.6694 16.3447C25.8359 16.0881 26.0876 15.8985 26.3801 15.8092C26.6007 15.7766 27.3816 17.1382 27.2167 17.4073C26.845 17.8801 26.3697 18.2611 25.8274 18.521C25.5188 18.74 25.2442 19.0033 25.0123 19.3024C24.6785 19.5929 24.3247 19.8596 23.9534 20.1003C23.7402 20.261 23.5199 20.427 23.2709 20.5255C22.9152 20.6971 22.5729 20.8954 22.2471 21.1187C22.027 21.3324 21.8333 21.5719 21.6703 21.8319C21.6324 21.888 21.5909 21.9415 21.5461 21.9924C21.3471 22.1423 21.2063 22.059 20.8261 21.5544L20.5315 21.1635C20.2943 20.8837 20.1743 20.5231 20.1964 20.1569C20.3855 19.6188 20.7499 19.1598 21.2311 18.8536C21.5327 18.6219 21.8609 18.427 22.2086 18.2729L22.2745 18.3013Z" fill="#3C3C3C"/>
<path d="M54.1795 67.3535L56.4347 65.9104C56.6906 65.7176 56.9464 65.5248 57.2094 65.3266C58.2457 64.7797 59.291 64.2594 60.2989 63.6894C60.7522 63.4481 61.1626 63.1499 61.5891 62.8731C62.1041 62.4726 62.674 62.1483 63.2813 61.91C63.4805 61.849 63.6163 62.1032 63.6722 62.4288C63.7189 62.8096 63.6028 63.1924 63.3525 63.4831C62.4203 64.3804 61.4008 65.1822 60.3092 65.8767C59.6583 66.3383 59.0496 66.8566 58.4902 67.4256C57.7795 67.9612 57.0689 68.4967 56.3582 69.0322L55.0434 70.023C54.3754 70.5264 53.7073 71.0298 53.0393 71.5332C52.7959 71.7525 52.5675 71.9879 52.3557 72.2378L52.0344 72.6247C51.9097 72.7301 51.7792 72.8284 51.6435 72.9193C51.5353 73.012 51.4213 73.0978 51.3024 73.1763C50.826 73.4461 50.5696 73.372 50.1628 72.9208C50.0717 72.8 49.986 72.6863 49.9004 72.5726C49.6181 72.2506 49.5351 71.7999 49.6841 71.3985C49.8996 70.8372 50.2266 70.3255 50.6453 69.8942C51.0663 69.5001 51.5087 69.1295 51.9705 68.7841C52.6812 68.2486 53.4294 67.7628 54.1508 67.2415L54.1795 67.3535Z" fill="#3C3C3C"/>
<path d="M55.093 62.8435C54.6086 63.0702 54.1363 63.322 53.678 63.5978C53.5216 63.7156 53.3653 63.8334 53.2089 63.9512C52.6047 64.3174 51.9754 64.6802 51.3855 65.0802C51.127 65.2617 50.8872 65.4685 50.6696 65.6976C50.4181 66.0264 50.0814 66.2801 49.696 66.4313C49.4256 66.5013 48.6945 65.1023 48.966 64.7528C49.4895 64.146 50.1117 63.6319 50.8064 63.2323C51.2211 62.9443 51.5992 62.607 51.9325 62.2277C52.3731 61.8957 52.828 61.553 53.2828 61.2102C53.56 61.0014 53.8371 60.7925 54.1143 60.5836C54.5407 60.2623 55.035 60.0458 55.4418 59.7281C55.7486 59.4528 56.0346 59.1554 56.2977 58.8381C56.3687 58.7845 56.4077 58.6883 56.4787 58.6348C56.7417 58.4366 56.9163 58.5056 57.3036 59.0049C57.3963 59.1131 57.4822 59.2271 57.5607 59.346C57.822 59.6279 57.9263 60.0211 57.8389 60.3954C57.5136 61.0496 57.0281 61.6109 56.4277 62.0271C56.02 62.3507 55.5881 62.6426 55.1358 62.9003L55.093 62.8435Z" fill="#3C3C3C"/>
<path d="M37.2101 34.6909C36.4974 35.1054 35.7776 35.5253 35.0684 35.9594C34.842 36.1514 34.6047 36.3302 34.3577 36.4949C33.4032 37.0025 32.4432 37.5031 31.5261 38.0604C31.1288 38.3209 30.7489 38.6071 30.389 38.9173C29.9651 39.3627 29.4548 39.7169 28.8893 39.9583C28.7026 40.021 28.4668 39.6638 28.3537 39.2476C28.2407 38.8314 28.1593 38.2799 28.4365 38.071C29.2806 37.1693 30.2542 36.3981 31.3252 35.7828C31.9591 35.3659 32.5501 34.887 33.0892 34.3532C33.7573 33.8498 34.4628 33.3961 35.1594 32.9158L36.4442 32.0479C37.0696 31.5766 37.7485 31.1764 38.3133 30.6394C38.8037 30.2699 39.1995 29.8045 39.6684 29.4066C39.7602 29.3038 39.8713 29.2201 39.9954 29.1602C40.3833 28.9754 40.8478 29.0942 41.0995 29.4425C41.1691 29.5349 41.2387 29.6272 41.303 29.7125C41.4946 30.0336 41.522 30.4268 41.3766 30.7713L41.2299 31.2273C41.1765 31.3566 41.1081 31.4792 41.026 31.5926C40.8717 31.8314 40.7121 32.0631 40.5417 32.2807C40.3806 32.5073 40.2039 32.7224 40.0128 32.9244L39.359 33.4171C38.7051 33.9097 37.9799 34.3225 37.2922 34.785L37.2101 34.6909Z" fill="#3C3C3C"/>
<path d="M40.4116 38.4959L37.4136 40.4319C37.0653 40.6944 36.7029 40.9675 36.3689 41.2192C35.0698 42.0533 33.6939 42.8004 32.4055 43.6487C31.8347 44.0287 31.2865 44.4418 30.7639 44.8858C30.1363 45.5027 29.4208 46.0231 28.6406 46.4301C28.3828 46.5463 28.1185 46.1661 28.0461 45.6412C27.8891 45.1309 27.9908 44.576 28.3186 44.1545C29.5937 42.9045 31.0041 41.8005 32.5238 40.8631C33.4587 40.3146 34.2292 39.4888 35.1212 38.8389L38.0797 36.7321L39.8635 35.3879L41.2138 34.3704C41.6687 34.0276 42.1164 33.6902 42.5641 33.3528C43.2748 32.8173 43.8179 32.1629 44.4413 31.5706C44.5791 31.4391 44.7317 31.3241 44.8961 31.2279C45.5004 30.8616 45.7675 30.9055 46.2362 31.1874C46.3369 31.2533 46.4329 31.3262 46.5232 31.4057C46.805 31.6613 46.7918 32.117 46.5367 32.6212C46.1593 33.3536 45.6729 34.0244 45.0942 34.6107C44.5528 35.2082 43.9703 35.7808 43.3789 36.3267C42.9314 36.7174 42.4564 37.0754 41.9575 37.3978L40.504 38.4263L40.4116 38.4959Z" fill="#3C3C3C"/>
<path d="M41.9114 44.5081L40.2923 45.4942C40.1075 45.6334 39.9298 45.7673 39.745 45.9065C39.034 46.3086 38.3123 46.6965 37.6281 47.134C37.3257 47.323 37.0403 47.538 36.7753 47.7767C36.4704 48.1232 36.098 48.4039 35.6808 48.6014C35.3999 48.7017 34.8186 47.4572 35.1861 47.0577C35.8423 46.3849 36.5972 45.816 37.4248 45.3708C37.8868 45.028 38.3188 44.6466 38.7161 44.2306C39.2136 43.8557 39.7181 43.4755 40.2298 43.0899L41.1608 42.3883C41.6534 42.0569 42.1279 41.6994 42.5822 41.3172C42.8921 40.9783 43.1729 40.6139 43.4216 40.2279C43.4997 40.169 43.5297 40.0461 43.5972 39.973C43.8511 39.7037 44.0416 39.7495 44.4964 40.1756C44.5821 40.2893 44.7104 40.3709 44.8103 40.4739C45.156 40.7276 45.3069 41.1698 45.1884 41.5818C44.8002 42.3437 44.2233 42.9933 43.5126 43.4686C43.008 43.8489 42.5034 44.2291 41.9613 44.5596L41.9114 44.5081Z" fill="#3C3C3C"/>
</g>
</svg>
