<svg width="55" height="58" viewBox="0 0 55 58" fill="none" xmlns="http://www.w3.org/2000/svg">
<g opacity="0.1">
<path d="M35.9566 55.4602C33.3164 56.4259 30.567 57.0578 27.7716 57.3413C25.0028 57.6324 22.209 57.5843 19.4518 57.1978C16.666 56.8222 13.9507 56.0352 11.3937 54.8624C8.76401 53.6544 6.41188 51.912 4.4856 49.745C1.65389 46.5332 0.0637191 42.4063 0.00448435 38.1155C-0.0307967 36.3133 0.142203 34.5131 0.520011 32.751C0.843394 30.9954 1.37597 29.2853 2.10625 27.6576C3.56579 24.4001 5.69587 21.4905 8.35602 19.1208C9.71934 17.9248 11.2609 16.9512 12.9244 16.2353C14.6749 15.4868 16.5803 15.1776 18.4762 15.3346C22.1771 15.6039 25.6112 17.3698 27.9936 20.2287C29.0014 21.4839 29.785 22.9052 30.3095 24.4294C30.8771 25.9136 31.2219 27.4744 31.3327 29.0605C31.385 29.881 31.3424 30.7049 31.2058 31.5156C31.0587 32.3472 30.7915 33.1528 30.4127 33.9068C29.6409 35.4188 28.4548 36.6773 26.9943 37.5336C25.1596 38.6355 23.0233 39.1213 20.8952 38.9205C19.7961 38.8029 18.7312 38.4669 17.7624 37.9321C16.7258 37.3691 15.8681 36.5237 15.2879 35.493C14.7281 34.4435 14.4907 33.2507 14.6058 32.0655C14.7002 30.9438 15.0358 29.8559 15.5893 28.8772C15.8531 28.3933 16.1784 27.9458 16.5569 27.546C16.9518 27.151 17.3909 26.8032 17.8655 26.5098C18.8298 25.9098 19.9662 25.6516 21.0935 25.7765C21.587 25.8246 22.061 25.9944 22.4735 26.2707C22.7273 26.454 22.8066 26.5736 22.7511 26.6453C22.6956 26.7171 22.0056 26.6453 21.0935 26.8924C19.9787 27.2324 19.0938 28.0891 18.7142 29.196C18.4321 29.823 18.2245 30.4811 18.0955 31.1569C17.9805 31.8104 18.0021 32.4809 18.159 33.1257C18.269 33.6062 18.5205 34.0423 18.8807 34.3771C19.3374 34.7869 19.8793 35.0892 20.4669 35.2619C21.8179 35.6369 23.2557 35.5385 24.5436 34.9829C25.8247 34.4898 26.8749 33.5311 27.486 32.2967C28.0029 30.934 28.0833 29.4431 27.716 28.0323C27.5362 27.2335 27.2949 26.45 26.9943 25.6888C26.8278 25.2982 26.6612 24.8917 26.4788 24.5251C26.2964 24.1584 26.1298 23.8635 25.9236 23.5446C25.061 22.2729 23.9114 21.2241 22.5687 20.4838C21.2025 19.7189 19.6977 19.2365 18.1431 19.065C17.3793 18.9848 16.6083 19.009 15.851 19.1367C15.0815 19.2706 14.3325 19.5037 13.6223 19.8302C12.7093 20.2683 11.8453 20.8027 11.0447 21.4244C10.2191 22.0756 9.45454 22.8013 8.76051 23.5925C7.32228 25.2126 6.17864 27.0743 5.38183 29.0924C4.99247 30.0864 4.69252 31.1134 4.4856 32.1612C4.36664 32.6713 4.29526 33.2213 4.21594 33.7554C4.13291 34.2833 4.07995 34.8156 4.05732 35.3496C3.87279 37.4632 4.07986 39.5929 4.66802 41.6306C4.99563 42.7135 5.44814 43.7541 6.01632 44.7313C6.61131 45.6888 7.31096 46.5765 8.10223 47.3777C9.77262 48.9912 11.75 50.2492 13.9158 51.0762C18.444 52.7548 23.3322 53.2057 28.0888 52.3834C29.5511 52.1751 30.9941 51.8472 32.4034 51.403C33.8074 50.9641 35.167 50.393 36.4641 49.6972C37.7691 49.0202 39.0067 48.2195 40.1601 47.3059C41.3094 46.3894 42.3715 45.3673 43.3326 44.2531C46.313 40.8401 48.3432 36.6961 49.2175 32.2409C49.6421 30.0201 49.7675 27.7519 49.5903 25.4975C49.4153 23.2552 48.9157 21.0506 48.1071 18.9534C47.459 17.3476 46.623 15.8251 45.6167 14.4179C44.6092 13.0416 43.4667 11.7705 42.2063 10.6238C40.9518 9.52419 39.5823 8.56471 38.1218 7.76221C36.6612 7.0069 35.1244 6.41099 33.5375 5.9847C32.1386 5.66147 30.7128 5.46935 29.2785 5.41079C26.5898 5.25935 24.8053 5.49847 23.5046 5.41079C22.9408 5.42081 22.379 5.34283 21.839 5.17964C21.3821 5.05634 20.95 4.85405 20.5621 4.58182C20.1746 4.37031 19.8081 4.12208 19.4676 3.84052C19.0155 3.37024 19.3169 2.74851 20.3242 2.03909C21.8932 1.06718 23.6561 0.45483 25.4874 0.245638C27.3031 -0.00550265 29.1399 -0.0642785 30.9678 0.0702775C32.8528 0.218499 34.7151 0.579462 36.5197 1.14635C38.3646 1.72706 40.1329 2.52999 41.786 3.53763C42.6083 4.04089 43.4026 4.58904 44.1653 5.17964C44.554 5.47456 44.9109 5.80137 45.2836 6.1202C45.6623 6.42806 46.025 6.7553 46.3702 7.10063L47.3933 8.13685C47.7423 8.48757 48.0357 8.87017 48.353 9.23683C48.9864 9.98275 49.5795 10.7624 50.1296 11.5723C51.2508 13.2136 52.1972 14.9689 52.9531 16.8092C54.4269 20.5073 55.1183 24.4733 54.9835 28.4547C54.7695 34.3396 52.8782 40.0388 49.5347 44.8748C46.2241 49.7325 41.5217 53.4632 36.0517 55.5718L35.9566 55.4602Z" fill="#231F20"/>
</g>
</svg>
